<svg width="200" height="300" viewBox="0 0 200 300" fill="none" xmlns="http://www.w3.org/2000/svg">
<path d="M21.0932 267.825C20.8045 267.825 20.5147 267.816 20.223 267.796C15.0301 267.428 12.3086 263.61 11.5576 260.452C10.752 257.073 11.9326 253.872 14.5628 252.299C16.7902 250.972 19.09 251.089 20.8739 252.622C22.633 254.133 23.3523 256.603 22.5794 258.493C21.6845 260.691 19.9165 261.307 18.6733 261.152C17.5899 261.025 16.8011 260.358 16.6642 259.457C16.4073 257.793 17.953 256.901 18.8043 256.661C19.0989 256.575 19.4036 256.75 19.4879 257.045C19.5712 257.338 19.4005 257.645 19.1069 257.729C19.0444 257.748 17.5908 258.182 17.7615 259.288C17.82 259.676 18.2388 259.981 18.8033 260.05C19.6556 260.145 20.8908 259.693 21.5515 258.076C22.1379 256.638 21.5357 254.657 20.1497 253.465C18.7517 252.264 16.9242 252.186 15.1323 253.256C12.8921 254.593 11.9366 257.252 12.638 260.196C13.3028 262.987 15.7088 266.363 20.3015 266.687C25.1213 267.034 27.8895 264.395 29.1177 262.794C30.9522 260.4 31.6606 257.274 30.8758 255.013C29.1118 249.918 25.5232 248.578 21.7252 247.156C18.6981 246.024 15.5698 244.854 13.395 241.705C8.95119 235.274 13.5538 230.941 13.6014 230.899C13.7552 230.757 13.9795 230.715 14.1729 230.788C14.3694 230.864 14.5063 231.042 14.5281 231.252C14.5331 231.297 15.0361 235.808 17.5988 237.59C18.6376 238.313 19.9036 238.487 21.3591 238.113C23.3563 237.601 24.7403 235.76 25.2582 232.926C26.2236 227.644 23.9833 219.717 19.1376 215.634V218.985C20.5554 221.11 21.9157 223.692 22.3532 226.235C22.7273 228.401 22.4395 230.117 21.501 231.337C20.3659 232.812 18.7021 232.975 18.6296 232.982C18.4739 232.994 18.3211 232.942 18.206 232.838C18.0909 232.733 18.0255 232.584 18.0255 232.428V219.341C16.2713 216.772 14.4825 214.929 14.4497 214.895C14.3485 214.792 14.292 214.652 14.292 214.506V188.949H11.8632C11.642 188.949 11.4415 188.818 11.3532 188.615C11.2639 188.413 11.3056 188.176 11.4564 188.015L14.4408 184.82C14.5966 184.654 14.8386 184.6 15.05 184.683C15.2633 184.766 15.4012 184.972 15.4012 185.2V187.838H17.0184V179.936L11.0774 170.187C11.0258 170.1 11 170.002 11 169.902L11 142.557C11 142.249 11.247 142 11.5556 142C11.8622 142 12.1112 142.249 12.1112 142.557L12.1112 169.75L18.0513 179.499C18.1028 179.584 18.1306 179.684 18.1306 179.783V188.395C18.1306 188.702 17.8806 188.95 17.574 188.95H15.4022V214.284C15.798 214.702 16.8497 215.847 18.0264 217.417V214.506C18.0264 214.299 18.1415 214.109 18.3261 214.014C18.5086 213.917 18.7299 213.933 18.9015 214.052C24.8862 218.251 27.429 227.222 26.3516 233.127C25.7523 236.412 24.0776 238.564 21.6359 239.19C19.848 239.646 18.2764 239.415 16.9628 238.499C14.8733 237.045 13.9834 234.224 13.6332 232.598C12.6976 234.005 11.5021 237.008 14.3099 241.074C16.2872 243.936 19.1198 244.995 22.1161 246.116C25.9875 247.565 29.9908 249.063 31.9275 254.65C32.8413 257.29 32.0842 260.751 30.0007 263.472C27.8547 266.268 24.6441 267.825 21.0932 267.825ZM19.1376 221.093V231.722C19.5742 231.563 20.1685 231.252 20.6308 230.646C21.364 229.681 21.5744 228.261 21.2589 226.424C20.9493 224.624 20.1169 222.773 19.1376 221.093ZM13.1411 187.837H14.292V186.608L13.1411 187.837Z" fill="#E3B261"/>
<path d="M23.3106 263.725C23.1548 263.725 22.9991 263.659 22.887 263.53C22.6885 263.298 22.7153 262.947 22.9485 262.748C22.9832 262.719 26.3248 259.818 26.3873 256.64C26.4121 255.3 25.8367 254.076 24.6759 253C21.8304 250.362 19.6327 249.643 17.8647 249.065C16.9132 248.753 16.051 248.47 15.2801 247.955V252.777C15.2801 253.085 15.0301 253.334 14.7236 253.334C14.415 253.334 14.168 253.085 14.168 252.777V246.74C14.168 246.511 14.3088 246.304 14.5241 246.222C14.7384 246.14 14.9835 246.198 15.1363 246.37C15.9359 247.264 16.8904 247.576 18.2109 248.007C20.0792 248.619 22.4068 249.381 25.4298 252.182C26.8347 253.485 27.5302 254.993 27.4965 256.666C27.4221 260.344 23.8246 263.462 23.6708 263.591C23.5666 263.681 23.4386 263.725 23.3106 263.725Z" fill="#E3B261"/>
<path d="M40.2367 281.397H18.582C18.2735 281.397 18.0255 281.148 18.0255 280.84V259.185C18.0255 258.877 18.2735 258.629 18.582 258.629C18.8876 258.629 19.1376 258.877 19.1376 259.185V280.286H40.2378C40.5443 280.286 40.7943 280.534 40.7943 280.841C40.7943 281.149 40.5433 281.397 40.2367 281.397Z" fill="#E3B261"/>
<path d="M41.0513 288.116C40.3747 288.116 39.6772 288.035 38.9698 287.866C35.8128 287.114 31.996 284.393 31.6279 279.201C31.3511 275.307 32.9296 271.743 35.9537 269.425C38.6712 267.339 42.1348 266.585 44.7749 267.498C50.3627 269.434 51.8609 273.437 53.3094 277.309C54.4305 280.307 55.4892 283.137 58.3505 285.115C62.4164 287.923 65.4206 286.726 66.8265 285.791C65.2003 285.44 62.3807 284.552 60.9242 282.462C60.0094 281.148 59.7772 279.576 60.2346 277.79C60.8607 275.347 63.0147 273.673 66.2977 273.073C72.205 271.998 81.174 274.537 85.3738 280.524C85.4928 280.694 85.5078 280.916 85.4115 281.099C85.3143 281.284 85.1257 281.399 84.9174 281.399H82.0074C83.577 282.576 84.7229 283.626 85.1406 284.023H106.699C107.006 284.023 107.256 284.271 107.256 284.579C107.256 284.887 107.006 285.135 106.699 285.135H84.9174C84.7725 285.135 84.6337 285.077 84.5285 284.977C84.4967 284.944 82.6513 283.153 80.0817 281.401H66.9971C66.8413 281.401 66.6916 281.336 66.5874 281.22C66.4822 281.105 66.4306 280.952 66.4435 280.796C66.4495 280.725 66.6131 279.061 68.0875 277.926C69.3078 276.988 71.0243 276.7 73.1912 277.071C75.734 277.51 78.3156 278.871 80.4408 280.289H83.7903C79.7086 275.442 71.7783 273.202 66.4981 274.167C63.6665 274.684 61.8241 276.069 61.3111 278.066C60.9381 279.527 61.1146 280.791 61.8369 281.829C63.6258 284.397 68.1292 284.891 68.1748 284.897C68.3832 284.918 68.5618 285.056 68.6362 285.252C68.7116 285.448 68.6689 285.669 68.5271 285.825C68.4854 285.872 64.1507 290.474 57.7195 286.03C54.5704 283.856 53.4007 280.726 52.2686 277.7C50.8489 273.902 49.5074 270.315 44.4127 268.55C42.1506 267.768 39.0234 268.473 36.6303 270.307C35.031 271.534 32.3959 274.31 32.7372 279.124C33.0626 283.716 36.4378 286.123 39.2297 286.787C42.1745 287.488 44.8325 286.533 46.1709 284.292C47.2394 282.504 47.164 280.675 45.9606 279.275C44.77 277.89 42.7866 277.287 41.35 277.873C39.7308 278.534 39.2744 279.766 39.3756 280.622C39.4421 281.185 39.7476 281.603 40.1366 281.664C41.2488 281.846 41.6913 280.336 41.6953 280.32C41.7776 280.026 42.0842 279.855 42.3799 279.936C42.6765 280.019 42.8481 280.326 42.7658 280.621C42.5247 281.473 41.6288 283.021 39.9679 282.761C39.0661 282.622 38.4003 281.834 38.2724 280.752C38.1265 279.51 38.7337 277.741 40.9313 276.845C42.8243 276.074 45.2928 276.793 46.8048 278.553C48.3387 280.337 48.4558 282.637 47.1253 284.864C45.8801 286.942 43.617 288.116 41.0513 288.116ZM67.6986 280.286H78.3275C76.6488 279.305 74.7964 278.474 73.0006 278.164C71.1543 277.844 69.7275 278.06 68.7641 278.804C68.1589 279.268 67.8524 279.853 67.6986 280.286Z" fill="#E3B261"/>
<path d="M52.6833 285.255H46.6461C46.3395 285.255 46.0894 285.007 46.0894 284.7C46.0894 284.392 46.3395 284.143 46.6461 284.143H51.4689C50.952 283.371 50.6693 282.51 50.3587 281.557C49.7803 279.791 49.061 277.591 46.4248 274.748C45.3473 273.587 44.0903 273.049 42.7827 273.036C39.6058 273.099 36.7037 276.44 36.6759 276.474C36.4755 276.706 36.1243 276.732 35.8921 276.534C35.66 276.335 35.6322 275.985 35.8316 275.752C35.9616 275.599 39.0769 272 42.7558 271.926C44.4276 271.927 45.9367 272.588 47.2393 273.993C50.0412 277.016 50.8022 279.344 51.4143 281.212C51.8459 282.532 52.1575 283.485 53.0524 284.286C53.224 284.44 53.2826 284.683 53.2003 284.899C53.1199 285.113 52.9135 285.255 52.6833 285.255Z" fill="#E3B261"/>
<path d="M34.5656 285.256H14.7236C14.415 285.256 14.168 285.007 14.168 284.7V264.858C14.168 264.55 14.415 264.302 14.7236 264.302C15.0301 264.302 15.2801 264.55 15.2801 264.858V284.143H34.5656C34.8741 284.143 35.1212 284.392 35.1212 284.7C35.1212 285.007 34.8732 285.256 34.5656 285.256Z" fill="#E3B261"/>
<path d="M179.66 267.825C179.936 267.825 180.213 267.816 180.491 267.796C185.455 267.428 188.056 263.61 188.774 260.452C189.544 257.073 188.415 253.872 185.901 252.299C183.772 250.972 181.574 251.089 179.869 252.622C178.188 254.133 177.5 256.603 178.239 258.493C179.094 260.691 180.784 261.307 181.973 261.152C183.008 261.025 183.762 260.358 183.893 259.457C184.138 257.793 182.661 256.901 181.847 256.661C181.566 256.575 181.275 256.75 181.194 257.045C181.114 257.338 181.277 257.645 181.558 257.729C181.618 257.748 183.007 258.182 182.844 259.288C182.788 259.676 182.388 259.981 181.848 260.05C181.034 260.145 179.853 259.693 179.222 258.076C178.661 256.638 179.237 254.657 180.561 253.465C181.898 252.264 183.644 252.186 185.357 253.256C187.498 254.593 188.411 257.252 187.741 260.196C187.106 262.987 184.806 266.363 180.416 266.687C175.81 267.034 173.164 264.395 171.99 262.794C170.236 260.4 169.559 257.274 170.31 255.013C171.996 249.918 175.426 248.578 179.056 247.156C181.949 246.024 184.939 244.854 187.017 241.705C191.265 235.274 186.866 230.941 186.82 230.899C186.673 230.757 186.459 230.715 186.274 230.788C186.086 230.864 185.955 231.042 185.934 231.252C185.93 231.297 185.449 235.808 183 237.59C182.007 238.313 180.797 238.487 179.406 238.113C177.497 237.601 176.174 235.76 175.679 232.926C174.756 227.644 176.897 219.717 181.529 215.634V218.985C180.174 221.11 178.873 223.692 178.455 226.235C178.098 228.401 178.373 230.117 179.27 231.337C180.355 232.812 181.945 232.975 182.014 232.982C182.163 232.994 182.309 232.942 182.419 232.838C182.529 232.733 182.592 232.584 182.592 232.428V219.341C184.268 216.772 185.978 214.929 186.009 214.895C186.106 214.792 186.16 214.652 186.16 214.506V188.949H188.482C188.693 188.949 188.885 188.818 188.969 188.615C189.054 188.413 189.015 188.176 188.87 188.015L186.018 184.82C185.869 184.654 185.638 184.6 185.436 184.683C185.232 184.766 185.1 184.972 185.1 185.2V187.838H183.554V179.936L189.233 170.187C189.282 170.1 189.307 170.002 189.307 169.902L189.307 142.557C189.307 142.249 189.07 142 188.776 142C188.483 142 188.245 142.249 188.245 142.557L188.245 169.75L182.567 179.499C182.518 179.584 182.491 179.684 182.491 179.783V188.395C182.491 188.702 182.73 188.95 183.023 188.95H185.099V214.284C184.721 214.702 183.715 215.847 182.591 217.417V214.506C182.591 214.299 182.481 214.109 182.304 214.014C182.13 213.917 181.918 213.933 181.754 214.052C176.034 218.251 173.604 227.222 174.634 233.127C175.207 236.412 176.807 238.564 179.141 239.19C180.85 239.646 182.352 239.415 183.607 238.499C185.604 237.045 186.455 234.224 186.79 232.598C187.684 234.005 188.827 237.008 186.143 241.074C184.253 243.936 181.546 244.995 178.682 246.116C174.982 247.565 171.155 249.063 169.304 254.65C168.431 257.29 169.155 260.751 171.146 263.472C173.197 266.268 176.266 267.825 179.66 267.825ZM181.529 221.093V231.722C181.111 231.563 180.543 231.252 180.102 230.646C179.401 229.681 179.2 228.261 179.501 226.424C179.797 224.624 180.593 222.773 181.529 221.093ZM187.26 187.837H186.16V186.608L187.26 187.837Z" fill="#E3B261"/>
<path d="M177.54 263.725C177.689 263.725 177.838 263.659 177.945 263.53C178.135 263.298 178.109 262.947 177.886 262.748C177.853 262.719 174.659 259.818 174.6 256.64C174.576 255.3 175.126 254.076 176.235 253C178.955 250.362 181.056 249.643 182.745 249.065C183.655 248.753 184.479 248.47 185.216 247.955V252.777C185.216 253.085 185.455 253.334 185.748 253.334C186.043 253.334 186.279 253.085 186.279 252.777V246.74C186.279 246.511 186.144 246.304 185.938 246.222C185.733 246.14 185.499 246.198 185.353 246.37C184.589 247.264 183.677 247.576 182.414 248.007C180.629 248.619 178.404 249.381 175.515 252.182C174.172 253.485 173.507 254.993 173.539 256.666C173.611 260.344 177.049 263.462 177.196 263.591C177.296 263.681 177.418 263.725 177.54 263.725Z" fill="#E3B261"/>
<path d="M161.362 281.397H182.06C182.355 281.397 182.592 281.148 182.592 280.84V259.185C182.592 258.877 182.355 258.629 182.06 258.629C181.768 258.629 181.529 258.877 181.529 259.185V280.286H161.361C161.068 280.286 160.83 280.534 160.83 280.841C160.83 281.149 161.069 281.397 161.362 281.397Z" fill="#E3B261"/>
<path d="M160.584 288.116C161.231 288.116 161.897 288.035 162.573 287.866C165.591 287.114 169.239 284.393 169.591 279.201C169.855 275.307 168.347 271.743 165.456 269.425C162.859 267.339 159.548 266.585 157.025 267.498C151.684 269.434 150.252 273.437 148.868 277.309C147.796 280.307 146.784 283.137 144.05 285.115C140.163 287.923 137.292 286.726 135.948 285.791C137.503 285.44 140.198 284.552 141.59 282.462C142.464 281.148 142.686 279.576 142.249 277.79C141.65 275.347 139.592 273.673 136.454 273.073C130.808 271.998 122.235 274.537 118.221 280.524C118.107 280.694 118.093 280.916 118.185 281.099C118.278 281.284 118.458 281.399 118.657 281.399H121.439C119.938 282.576 118.843 283.626 118.444 284.023H97.8386C97.5455 284.023 97.3066 284.271 97.3066 284.579C97.3066 284.887 97.5455 285.135 97.8386 285.135H118.657C118.796 285.135 118.928 285.077 119.029 284.977C119.059 284.944 120.823 283.153 123.279 281.401H135.785C135.934 281.401 136.077 281.336 136.177 281.22C136.277 281.105 136.327 280.952 136.314 280.796C136.309 280.725 136.152 279.061 134.743 277.926C133.577 276.988 131.936 276.7 129.865 277.071C127.435 277.51 124.967 278.871 122.936 280.289H119.735C123.636 275.442 131.215 273.202 136.262 274.167C138.969 274.684 140.73 276.069 141.22 278.066C141.576 279.527 141.408 280.791 140.717 281.829C139.008 284.397 134.703 284.891 134.66 284.897C134.46 284.918 134.29 285.056 134.219 285.252C134.147 285.448 134.187 285.669 134.323 285.825C134.363 285.872 138.506 290.474 144.653 286.03C147.662 283.856 148.781 280.726 149.863 277.7C151.22 273.902 152.502 270.315 157.371 268.55C159.533 267.768 162.522 268.473 164.809 270.307C166.338 271.534 168.857 274.31 168.53 279.124C168.219 283.716 164.993 286.123 162.325 286.787C159.51 287.488 156.97 286.533 155.691 284.292C154.669 282.504 154.741 280.675 155.892 279.275C157.03 277.89 158.925 277.287 160.298 277.873C161.846 278.534 162.282 279.766 162.186 280.622C162.122 281.185 161.83 281.603 161.458 281.664C160.395 281.846 159.972 280.336 159.968 280.32C159.89 280.026 159.597 279.855 159.314 279.936C159.031 280.019 158.867 280.326 158.945 280.621C159.176 281.473 160.032 283.021 161.619 282.761C162.481 282.622 163.118 281.834 163.24 280.752C163.379 279.51 162.799 277.741 160.699 276.845C158.889 276.074 156.53 276.793 155.085 278.553C153.619 280.337 153.507 282.637 154.778 284.864C155.969 286.942 158.132 288.116 160.584 288.116ZM135.115 280.286H124.956C126.56 279.305 128.331 278.474 130.047 278.164C131.812 277.844 133.176 278.06 134.096 278.804C134.675 279.268 134.968 279.853 135.115 280.286Z" fill="#E3B261"/>
<path d="M149.466 285.255H155.237C155.53 285.255 155.769 285.007 155.769 284.7C155.769 284.392 155.53 284.143 155.237 284.143H150.627C151.121 283.371 151.391 282.51 151.688 281.557C152.241 279.791 152.928 277.591 155.448 274.748C156.478 273.587 157.679 273.049 158.929 273.036C161.966 273.099 164.739 276.44 164.766 276.474C164.957 276.706 165.293 276.732 165.515 276.534C165.737 276.335 165.763 275.985 165.573 275.752C165.449 275.599 162.471 272 158.955 271.926C157.357 271.927 155.915 272.588 154.669 273.993C151.992 277.016 151.264 279.344 150.679 281.212C150.267 282.532 149.969 283.485 149.113 284.286C148.949 284.44 148.893 284.683 148.972 284.899C149.049 285.113 149.246 285.255 149.466 285.255Z" fill="#E3B261"/>
<path d="M166.783 285.256H185.748C186.043 285.256 186.279 285.007 186.279 284.7V264.858C186.279 264.55 186.043 264.302 185.748 264.302C185.455 264.302 185.216 264.55 185.216 264.858V284.143H166.783C166.488 284.143 166.252 284.392 166.252 284.7C166.252 285.007 166.489 285.256 166.783 285.256Z" fill="#E3B261"/>
<path d="M179.213 31.2905C179.502 31.2905 179.792 31.3005 180.084 31.3203C185.276 31.6884 187.998 35.5062 188.749 38.6642C189.555 42.0435 188.374 45.2442 185.744 46.8167C183.516 48.1442 181.217 48.0271 179.433 46.4943C177.674 44.9832 176.954 42.5127 177.727 40.6227C178.622 38.4251 180.39 37.809 181.633 37.9637C182.717 38.0907 183.505 38.7575 183.642 39.6593C183.899 41.3232 182.354 42.2151 181.502 42.4552C181.208 42.5405 180.903 42.3659 180.819 42.0713C180.735 41.7776 180.906 41.471 181.2 41.3867C181.262 41.3678 182.716 40.9342 182.545 39.828C182.487 39.4401 182.068 39.1345 181.503 39.066C180.651 38.9708 179.416 39.4232 178.755 41.0404C178.169 42.478 178.771 44.4594 180.157 45.6509C181.555 46.8524 183.382 46.9298 185.174 45.8603C187.415 44.5229 188.37 41.8639 187.669 38.9202C187.004 36.1293 184.598 32.7529 180.005 32.4285C175.185 32.0823 172.417 34.7214 171.189 36.3217C169.354 38.7158 168.646 41.8421 169.431 44.1032C171.195 49.1979 174.783 50.5383 178.581 51.96C181.608 53.0921 184.737 54.2618 186.912 57.4109C191.355 63.8421 186.753 68.1748 186.705 68.2174C186.551 68.3593 186.327 68.401 186.134 68.3276C185.937 68.2522 185.8 68.0736 185.778 67.8642C185.774 67.8186 185.271 63.3083 182.708 61.5264C181.669 60.8031 180.403 60.6295 178.948 61.0025C176.95 61.5155 175.566 63.3559 175.048 66.1895C174.083 71.4717 176.323 79.399 181.169 83.4817L181.169 80.1312C179.751 78.006 178.391 75.4244 177.953 72.8805C177.579 70.7147 177.867 68.9992 178.806 67.7789C179.941 66.3036 181.605 66.1409 181.677 66.1339C181.833 66.122 181.986 66.1736 182.101 66.2778C182.216 66.3829 182.281 66.5318 182.281 66.6876L182.281 79.775C184.035 82.3437 185.824 84.1871 185.857 84.2209C185.958 84.324 186.015 84.4639 186.015 84.6098L186.015 110.167L188.443 110.167C188.665 110.167 188.865 110.298 188.953 110.501C189.043 110.703 189.001 110.94 188.85 111.101L185.866 114.296C185.71 114.462 185.468 114.516 185.257 114.433C185.043 114.35 184.905 114.144 184.905 113.916L184.905 111.278L183.288 111.278L183.288 119.18L189.229 128.929C189.281 129.016 189.307 129.114 189.307 129.214L189.307 156.559C189.307 156.867 189.06 157.116 188.751 157.116C188.444 157.116 188.195 156.867 188.195 156.559L188.195 129.366L182.255 119.617C182.204 119.532 182.176 119.432 182.176 119.333L182.176 110.721C182.176 110.414 182.426 110.166 182.733 110.166L184.904 110.166L184.904 84.832C184.509 84.4143 183.457 83.2694 182.28 81.6988L182.28 84.6098C182.28 84.8171 182.165 85.0067 181.981 85.1019C181.798 85.1991 181.577 85.1832 181.405 85.0642C175.42 80.8654 172.878 71.8944 173.955 65.9891C174.554 62.7041 176.229 60.5521 178.671 59.926C180.459 59.4696 182.03 59.7008 183.344 60.6166C185.433 62.071 186.323 64.8917 186.673 66.5179C187.609 65.111 188.805 62.1078 185.997 58.0419C184.019 55.1796 181.187 54.1209 178.191 52.9998C174.319 51.5513 170.316 50.0531 168.379 44.4663C167.465 41.8262 168.222 38.3646 170.306 35.6441C172.452 32.8482 175.663 31.2905 179.213 31.2905ZM181.169 78.0229L181.169 67.3939C180.732 67.5527 180.138 67.8642 179.676 68.4705C178.943 69.4348 178.732 70.8546 179.048 72.692C179.357 74.4918 180.19 76.3432 181.169 78.0229ZM187.166 111.279L186.015 111.279L186.015 112.508L187.166 111.279Z" fill="#E3B261"/>
<path d="M176.996 35.3911C177.152 35.3911 177.307 35.4566 177.42 35.5856C177.618 35.8177 177.591 36.1689 177.358 36.3684C177.323 36.3971 173.982 39.2982 173.919 42.4761C173.894 43.8155 174.47 45.0398 175.631 46.1163C178.476 48.7534 180.674 49.4727 182.442 50.0511C183.393 50.3627 184.256 50.6454 185.026 51.1614L185.026 46.3385C185.026 46.0309 185.276 45.7819 185.583 45.7819C185.892 45.7819 186.139 46.0309 186.139 46.3385L186.139 52.3757C186.139 52.6049 185.998 52.8123 185.782 52.8937C185.568 52.976 185.323 52.9175 185.17 52.7458C184.371 51.8519 183.416 51.5403 182.096 51.1088C180.227 50.4966 177.9 49.7347 174.877 46.9338C173.472 45.6311 172.776 44.123 172.81 42.4503C172.884 38.7723 176.482 35.654 176.636 35.525C176.74 35.4347 176.868 35.3911 176.996 35.3911Z" fill="#E3B261"/>
<path d="M160.07 17.7189L181.725 17.7189C182.033 17.7189 182.281 17.9679 182.281 18.2755L182.281 39.9312C182.281 40.2388 182.033 40.4868 181.725 40.4868C181.419 40.4868 181.169 40.2388 181.169 39.9312L181.169 18.8301L160.069 18.8301C159.762 18.8301 159.512 18.5821 159.512 18.2745C159.512 17.9669 159.763 17.7189 160.07 17.7189Z" fill="#E3B261"/>
<path d="M159.255 11.0001C159.932 11.0001 160.629 11.0814 161.337 11.2501C164.494 12.0021 168.311 14.7226 168.679 19.9146C168.956 23.8088 167.377 27.3726 164.353 29.6912C161.635 31.7767 158.172 32.5308 155.532 31.618C149.944 29.6823 148.446 25.679 146.997 21.8066C145.876 18.8093 144.817 15.9787 141.956 14.0013C137.89 11.1925 134.886 12.3901 133.48 13.3247C135.106 13.6759 137.926 14.5639 139.382 16.6543C140.297 17.968 140.529 19.5405 140.072 21.3264C139.446 23.7691 137.292 25.4428 134.009 26.0431C128.102 27.1176 119.133 24.5787 114.933 18.592C114.814 18.4224 114.799 18.2001 114.895 18.0166C114.992 17.832 115.181 17.717 115.389 17.717L118.299 17.717C116.73 16.5403 115.584 15.4896 115.166 15.0927L93.6075 15.0927C93.3009 15.0927 93.0509 14.8447 93.0509 14.5371C93.0509 14.2295 93.3009 13.9815 93.6075 13.9815L115.389 13.9815C115.534 13.9815 115.673 14.039 115.778 14.1392C115.81 14.172 117.655 15.9628 120.225 17.715L133.309 17.715C133.465 17.715 133.615 17.7804 133.719 17.8955C133.824 18.0106 133.876 18.1644 133.863 18.3202C133.857 18.3906 133.693 20.0554 132.219 21.1905C130.999 22.128 129.282 22.4158 127.115 22.0447C124.573 21.6062 121.991 20.2449 119.866 18.8272L116.516 18.8272C120.598 23.6738 128.528 25.9141 133.809 24.9488C136.64 24.4318 138.483 23.0468 138.995 21.0496C139.369 19.5891 139.192 18.3251 138.47 17.2873C136.681 14.7187 132.177 14.2246 132.132 14.2186C131.923 14.1978 131.745 14.0599 131.67 13.8644C131.595 13.668 131.638 13.4467 131.78 13.291C131.821 13.2443 136.156 8.64174 142.587 13.0856C145.736 15.2604 146.906 18.3896 148.038 21.4157C149.458 25.2137 150.799 28.8013 155.894 30.5663C158.156 31.3481 161.283 30.6427 163.676 28.8092C165.276 27.5819 167.911 24.8059 167.569 19.992C167.244 15.4003 163.869 12.9933 161.077 12.3286C158.132 11.6281 155.474 12.5825 154.136 14.8238C153.067 16.6117 153.143 18.4412 154.346 19.8411C155.537 21.2262 157.52 21.8294 158.957 21.243C160.576 20.5823 161.032 19.35 160.931 18.4938C160.865 17.9312 160.559 17.5126 160.17 17.452C159.058 17.2705 158.615 18.7805 158.611 18.7964C158.529 19.0901 158.222 19.2607 157.927 19.1804C157.63 19.097 157.458 18.7905 157.541 18.4948C157.782 17.6435 158.678 16.0948 160.339 16.3547C161.241 16.4936 161.906 17.2824 162.034 18.3638C162.18 19.606 161.573 21.375 159.375 22.2709C157.482 23.0418 155.014 22.3235 153.502 20.5634C151.968 18.7785 151.851 16.4787 153.181 14.2524C154.426 12.1738 156.69 11.0001 159.255 11.0001ZM132.608 18.8301L121.979 18.8301C123.658 19.8114 125.51 20.6418 127.306 20.9523C129.152 21.2718 130.579 21.0555 131.542 20.3124C132.148 19.8481 132.454 19.2627 132.608 18.8301Z" fill="#E3B261"/>
<path d="M147.623 13.8604L153.661 13.8604C153.967 13.8604 154.217 14.1085 154.217 14.416C154.217 14.7236 153.967 14.9726 153.661 14.9726L148.838 14.9726C149.355 15.7445 149.637 16.6057 149.948 17.5592C150.526 19.3252 151.246 21.5248 153.882 24.3683C154.959 25.5291 156.216 26.0669 157.524 26.0798C160.701 26.0173 163.603 22.6757 163.631 22.642C163.831 22.4098 164.182 22.384 164.414 22.5815C164.647 22.7809 164.674 23.1311 164.475 23.3643C164.345 23.5171 161.23 27.1156 157.551 27.19C155.879 27.189 154.37 26.5283 153.067 25.1234C150.265 22.1003 149.504 19.7717 148.892 17.9035C148.461 16.5839 148.149 15.6305 147.254 14.8298C147.083 14.676 147.024 14.4329 147.106 14.2166C147.187 14.0033 147.393 13.8604 147.623 13.8604Z" fill="#E3B261"/>
<path d="M165.741 13.8604L185.583 13.8604C185.892 13.8604 186.139 14.1085 186.139 14.416L186.139 34.2581C186.139 34.5657 185.892 34.8137 185.583 34.8137C185.276 34.8137 185.026 34.5657 185.026 34.2581L185.026 14.9726L165.741 14.9726C165.432 14.9726 165.185 14.7236 165.185 14.416C165.185 14.1085 165.433 13.8604 165.741 13.8604Z" fill="#E3B261"/>
<path d="M20.647 31.2905C20.371 31.2905 20.0941 31.3005 19.8153 31.3203C14.852 31.6884 12.2508 35.5062 11.533 38.6642C10.7629 42.0435 11.8914 45.2442 14.4053 46.8167C16.5342 48.1442 18.7324 48.0271 20.4374 46.4943C22.1187 44.9832 22.8062 42.5127 22.0675 40.6227C21.2121 38.4251 19.5223 37.809 18.3341 37.9637C17.2985 38.0907 16.5447 38.7575 16.4138 39.6593C16.1682 41.3232 17.6456 42.2151 18.4592 42.4552C18.7409 42.5405 19.032 42.3659 19.1126 42.0713C19.1923 41.7776 19.0292 41.471 18.7485 41.3867C18.6887 41.3678 17.2995 40.9342 17.4626 39.828C17.5185 39.4401 17.9187 39.1345 18.4583 39.066C19.2729 38.9708 20.4535 39.4232 21.085 41.0404C21.6455 42.478 21.0699 44.4594 19.7451 45.6509C18.409 46.8524 16.6623 46.9298 14.9497 45.8603C12.8084 44.5229 11.8952 41.8639 12.5656 38.9202C13.201 36.1293 15.5006 32.7529 19.8902 32.4285C24.497 32.0823 27.1428 34.7214 28.3167 36.3217C30.0701 38.7158 30.7472 41.8421 29.9971 44.1032C28.311 49.1979 24.8811 50.5383 21.251 51.96C18.3578 53.0921 15.3678 54.2618 13.2892 57.4109C9.0418 63.8421 13.4409 68.1748 13.4864 68.2174C13.6334 68.3593 13.8478 68.401 14.0327 68.3276C14.2204 68.2522 14.3513 68.0736 14.3721 67.8642C14.3769 67.8186 14.8576 63.3083 17.3071 61.5264C18.2999 60.8031 19.51 60.6295 20.9011 61.0025C22.81 61.5155 24.1329 63.3559 24.6279 66.1895C25.5505 71.4717 23.4093 79.399 18.7779 83.4817L18.7779 80.1312C20.133 78.006 21.4331 75.4244 21.8513 72.8805C22.2088 70.7147 21.9338 68.9992 21.0367 67.7789C19.9519 66.3036 18.3616 66.1409 18.2923 66.1339C18.1434 66.122 17.9974 66.1736 17.8874 66.2778C17.7774 66.3829 17.7149 66.5318 17.7149 66.6876L17.7149 79.775C16.0383 82.3437 14.3285 84.1871 14.2972 84.2209C14.2005 84.324 14.1465 84.4639 14.1465 84.6098L14.1465 110.167L11.8251 110.167C11.6136 110.167 11.422 110.298 11.3376 110.501C11.2523 110.703 11.2921 110.94 11.4362 111.101L14.2887 114.296C14.4376 114.462 14.669 114.516 14.8709 114.433C15.0748 114.35 15.2066 114.144 15.2066 113.916L15.2066 111.278L16.7523 111.278L16.7524 119.18L11.074 128.929C11.0247 129.016 11 129.114 11 129.214L11 156.559C11 156.867 11.2362 157.116 11.5311 157.116C11.8241 157.116 12.0621 156.867 12.0621 156.559L12.0621 129.366L17.7395 119.617C17.7888 119.532 17.8154 119.432 17.8154 119.333L17.8154 110.721C17.8154 110.414 17.5764 110.166 17.2834 110.166L15.2076 110.166L15.2076 84.832C15.5859 84.4143 16.5911 83.2694 17.7158 81.6988L17.7158 84.6098C17.7158 84.8171 17.8258 85.0067 18.0022 85.1019C18.1767 85.1991 18.3882 85.1832 18.5522 85.0642C24.2723 80.8654 26.7027 71.8944 25.6729 65.9891C25.1001 62.704 23.4994 60.5521 21.1657 59.926C19.4569 59.4696 17.9547 59.7008 16.6992 60.6166C14.7021 62.071 13.8516 64.8917 13.5168 66.5179C12.6226 65.111 11.4799 62.1078 14.1635 58.0419C16.0535 55.1796 18.7608 54.1209 21.6246 52.9998C25.3249 51.5513 29.1512 50.0531 31.0023 44.4663C31.8756 41.8262 31.1521 38.3646 29.1607 35.6441C27.1095 32.8482 24.0409 31.2905 20.647 31.2905ZM18.7779 78.0229L18.7779 67.3939C19.1951 67.5527 19.7631 67.8642 20.2051 68.4705C20.9058 69.4348 21.1069 70.8546 20.8053 72.692C20.5094 74.4918 19.7138 76.3432 18.7779 78.0229ZM13.0464 111.279L14.1465 111.279L14.1465 112.508L13.0464 111.279Z" fill="#E3B261"/>
<path d="M22.7664 35.3912C22.6175 35.3912 22.4686 35.4566 22.3614 35.5856C22.1718 35.8178 22.1974 36.169 22.4202 36.3684C22.4534 36.3972 25.6473 39.2982 25.707 42.4761C25.7307 43.8155 25.1807 45.0398 24.0712 46.1163C21.3515 48.7535 19.251 49.4728 17.5612 50.0512C16.6518 50.3627 15.8277 50.6455 15.0909 51.1614L15.0909 46.3386C15.0909 46.031 14.852 45.782 14.559 45.782C14.264 45.782 14.0279 46.031 14.0279 46.3386L14.0279 52.3758C14.0279 52.605 14.1625 52.8124 14.3683 52.8937C14.5731 52.9761 14.8074 52.9175 14.9534 52.7459C15.7177 51.852 16.63 51.5404 17.8921 51.1088C19.6778 50.4967 21.9025 49.7347 24.7919 46.9339C26.1347 45.6312 26.7994 44.1231 26.7672 42.4503C26.696 38.7724 23.2576 35.6541 23.1106 35.5251C23.011 35.4348 22.8887 35.3912 22.7664 35.3912Z" fill="#E3B261"/>
<path d="M38.9441 17.7189L18.2468 17.7189C17.9519 17.7189 17.7149 17.9679 17.7149 18.2755L17.7149 39.9312C17.7149 40.2388 17.9519 40.4868 18.2468 40.4868C18.5389 40.4868 18.7779 40.2388 18.7779 39.9312L18.7779 18.8301L38.9451 18.8301C39.2381 18.8301 39.4771 18.5821 39.4771 18.2745C39.4771 17.9669 39.2372 17.7189 38.9441 17.7189Z" fill="#E3B261"/>
<path d="M39.7227 11C39.076 11 38.4094 11.0814 37.7332 11.25C34.7158 12.0021 31.0677 14.7226 30.7159 19.9145C30.4513 23.8087 31.96 27.3725 34.8504 29.6912C37.4478 31.7767 40.7583 32.5307 43.2817 31.6179C48.6224 29.6822 50.0543 25.6789 51.4388 21.8065C52.5104 18.8092 53.5222 15.9786 56.2571 14.0013C60.1432 11.1925 63.0145 12.39 64.3583 13.3246C62.804 13.6758 60.109 14.5638 58.7169 16.6543C57.8426 17.9679 57.6207 19.5405 58.0579 21.3263C58.6562 23.769 60.715 25.4428 63.8529 26.043C69.499 27.1175 78.0715 24.5786 82.0856 18.592C82.1994 18.4223 82.2136 18.2001 82.1216 18.0165C82.0287 17.832 81.8485 17.7169 81.6493 17.7169L78.868 17.7169C80.3682 16.5402 81.4635 15.4895 81.8627 15.0926L102.468 15.0926C102.761 15.0926 103 14.8446 103 14.537C103 14.2295 102.761 13.9814 102.468 13.9814L81.6493 13.9814C81.5109 13.9814 81.3781 14.039 81.2776 14.1392C81.2473 14.1719 79.4835 15.9627 77.0274 17.7149L64.5214 17.7149C64.3725 17.7149 64.2293 17.7804 64.1298 17.8955C64.0292 18.0106 63.9799 18.1643 63.9922 18.3201C63.9979 18.3906 64.1544 20.0554 65.5635 21.1904C66.7299 22.128 68.3705 22.4157 70.4416 22.0447C72.872 21.6061 75.3395 20.2449 77.3707 18.8271L80.5721 18.8271C76.6708 23.6738 69.0912 25.914 64.0444 24.9487C61.338 24.4318 59.577 23.0467 59.0868 21.0495C58.7302 19.5891 58.899 18.3251 59.5893 17.2873C61.2991 14.7186 65.6034 14.2245 65.647 14.2186C65.8461 14.1977 66.0168 14.0598 66.088 13.8643C66.16 13.6679 66.1193 13.4467 65.9837 13.2909C65.9438 13.2443 61.8008 8.64167 55.654 13.0855C52.6441 15.2603 51.5261 18.3896 50.4441 21.4156C49.0871 25.2136 47.805 28.8012 42.9355 30.5662C40.7734 31.3481 37.7844 30.6426 35.4972 28.8091C33.9685 27.5819 31.4499 24.8058 31.7761 19.9919C32.0872 15.4002 35.3132 12.9933 37.9817 12.3285C40.7962 11.6281 43.3367 12.5825 44.6159 14.8238C45.6372 16.6116 45.5652 18.4411 44.4149 19.8411C43.2769 21.2261 41.3813 21.8293 40.0082 21.243C38.4606 20.5822 38.0244 19.35 38.1211 18.4937C38.1846 17.9312 38.4767 17.5125 38.8484 17.452C39.9114 17.2704 40.3344 18.7805 40.3382 18.7963C40.4169 19.09 40.7099 19.2607 40.9925 19.1803C41.2761 19.0969 41.4401 18.7904 41.3614 18.4947C41.1309 17.6435 40.2746 16.0947 38.6872 16.3546C37.8252 16.4935 37.1889 17.2823 37.0666 18.3637C36.9272 19.6059 37.5075 21.3749 39.608 22.2709C41.4173 23.0418 43.7766 22.3234 45.2218 20.5634C46.6879 18.7785 46.7998 16.4787 45.5281 14.2523C44.338 12.1737 42.175 11 39.7227 11ZM65.1918 18.8301L75.3508 18.8301C73.7463 19.8113 71.9759 20.6417 70.2595 20.9523C68.4947 21.2718 67.1311 21.0555 66.2103 20.3124C65.6318 19.848 65.3388 19.2626 65.1918 18.8301Z" fill="#E3B261"/>
<path d="M50.8404 13.8605L45.0701 13.8605C44.7771 13.8605 44.5381 14.1085 44.5381 14.4161C44.5381 14.7237 44.7771 14.9727 45.0701 14.9727L49.6797 14.9727C49.1856 15.7446 48.9154 16.6058 48.6186 17.5592C48.0657 19.3253 47.3782 21.5249 44.8586 24.3684C43.8288 25.5292 42.6273 26.067 41.3775 26.0799C38.3411 26.0174 35.5673 22.6758 35.5408 22.6421C35.3492 22.4099 35.0135 22.3841 34.7916 22.5815C34.5697 22.7809 34.5431 23.1312 34.7338 23.3643C34.858 23.5171 37.8356 27.1157 41.3519 27.1901C42.9497 27.1891 44.392 26.5283 45.6371 25.1234C48.3151 22.1003 49.0424 19.7718 49.6275 17.9035C50.04 16.584 50.3378 15.6305 51.1932 14.8299C51.3572 14.6761 51.4132 14.433 51.3345 14.2167C51.2577 14.0034 51.0604 13.8605 50.8404 13.8605Z" fill="#E3B261"/>
<path d="M33.5237 13.8604L14.559 13.8604C14.264 13.8604 14.0279 14.1085 14.0279 14.416L14.0279 34.2581C14.0279 34.5657 14.264 34.8137 14.559 34.8137C14.852 34.8137 15.0909 34.5657 15.0909 34.2581L15.0909 14.9726L33.5237 14.9726C33.8186 14.9726 34.0548 14.7236 34.0548 14.416C34.0548 14.1085 33.8177 13.8604 33.5237 13.8604Z" fill="#E3B261"/>
</svg>
