<svg width="200" height="280" viewBox="0 0 200 280" fill="none" xmlns="http://www.w3.org/2000/svg">
<path d="M189.557 141.112C189.25 141.112 189.001 140.864 189.001 140.556V128.059L183.368 118.617C183.316 118.531 183.288 118.433 183.288 118.333V109.722C183.288 109.414 183.538 109.165 183.845 109.165H186.017V83.8326C185.62 83.4139 184.569 82.269 183.393 80.6994V83.6094C183.393 83.8167 183.278 84.0062 183.093 84.1025C182.91 84.1987 182.689 84.1838 182.518 84.0648C176.533 79.866 173.989 70.894 175.067 64.9887C175.667 61.7036 177.341 59.5517 179.783 58.9266C181.569 58.4682 183.143 58.7004 184.456 59.6162C186.546 61.0716 187.436 63.8923 187.786 65.5175C188.721 64.1116 189.917 61.1074 187.109 57.0415C185.132 54.1792 182.3 53.1215 179.304 52.0004C175.432 50.5519 171.428 49.0547 169.492 43.4659C168.578 40.8258 169.335 37.3642 171.418 34.6437C173.737 31.6186 177.305 30.0371 181.195 30.3189C186.388 30.686 189.109 34.5048 189.86 37.6618C190.666 41.0421 189.485 44.2428 186.855 45.8143C184.629 47.1448 182.328 47.0267 180.544 45.4939C178.785 43.9808 178.066 41.5114 178.839 39.6203C179.733 37.4237 181.507 36.8185 182.745 36.9614C183.828 37.0893 184.617 37.7551 184.754 38.6569C185.011 40.3218 183.465 41.2137 182.614 41.4538C182.317 41.5342 182.015 41.3645 181.93 41.0699C181.847 40.7762 182.017 40.4696 182.311 40.3843C182.374 40.3664 183.827 39.9329 183.657 38.8256C183.598 38.4367 183.179 38.1321 182.615 38.0646C181.754 37.9595 180.527 38.4208 179.866 40.039C179.28 41.4766 179.882 43.459 181.268 44.6495C182.667 45.852 184.496 45.9304 186.286 44.8599C188.526 43.5205 189.481 40.8615 188.78 37.9188C188.115 35.1269 185.709 31.7516 181.118 31.4261C176.305 31.0908 173.529 33.719 172.3 35.3184C170.466 37.7124 169.757 40.8397 170.542 43.1018C172.307 48.1955 175.895 49.5369 179.694 50.9586C182.72 52.0907 185.848 53.2594 188.024 56.4085C192.468 62.8407 187.865 67.1734 187.818 67.217C187.664 67.3579 187.442 67.4026 187.246 67.3252C187.05 67.2508 186.913 67.0722 186.891 66.8638C186.886 66.8182 186.383 62.3069 183.82 60.525C182.782 59.8037 181.519 59.6271 180.06 60.0011C178.063 60.5131 176.679 62.3535 176.161 65.1871C175.195 70.4693 177.436 78.3966 182.281 82.4803V79.1298C180.864 77.0046 179.503 74.423 179.066 71.8792C178.692 69.7133 178.979 67.9969 179.918 66.7765C181.053 65.3022 182.717 65.1385 182.789 65.1325C182.942 65.1157 183.098 65.1712 183.213 65.2764C183.328 65.3816 183.394 65.5304 183.394 65.6862V78.7716C185.148 81.3413 186.937 83.1857 186.969 83.2185C187.07 83.3216 187.127 83.4615 187.127 83.6074V109.164H189.556C189.777 109.164 189.977 109.296 190.066 109.499C190.155 109.702 190.113 109.937 189.963 110.099L186.978 113.294C186.822 113.461 186.581 113.516 186.369 113.431C186.156 113.347 186.018 113.143 186.018 112.915V110.275H184.401V118.178L190.035 127.619C190.087 127.706 190.112 127.804 190.112 127.904V140.554C190.111 140.864 189.864 141.112 189.557 141.112ZM187.127 110.278V111.509L188.278 110.278H187.127ZM182.282 66.3965C181.846 66.5533 181.252 66.8658 180.789 67.471C180.056 68.4354 179.846 69.8552 180.161 71.6936C180.471 73.4924 181.302 75.3438 182.282 77.0225V66.3965Z" fill="#D5D5D5"/>
<path d="M186.696 51.9319C186.543 51.9319 186.39 51.8674 186.283 51.7464C185.483 50.8535 184.529 50.5409 183.21 50.1093C181.34 49.4982 179.012 48.7362 175.989 45.9344C174.584 44.6317 173.889 43.1246 173.922 41.4518C173.997 37.7729 177.594 34.6556 177.748 34.5256C177.982 34.3262 178.333 34.355 178.532 34.5871C178.73 34.8203 178.704 35.1715 178.471 35.3709C178.436 35.3987 175.094 38.3007 175.032 41.4776C175.007 42.818 175.582 44.0433 176.743 45.1198C179.589 47.756 181.788 48.4753 183.555 49.0537C184.506 49.3652 185.368 49.647 186.139 50.1629V45.3411C186.139 45.0335 186.389 44.7855 186.695 44.7855C187.004 44.7855 187.251 45.0335 187.251 45.3411V51.3773C187.251 51.6075 187.11 51.8139 186.895 51.8962C186.831 51.92 186.763 51.9319 186.696 51.9319Z" fill="#D5D5D5"/>
<path d="M182.837 39.4864C182.531 39.4864 182.281 39.2383 182.281 38.9308V17.8297H161.181C160.875 17.8297 160.625 17.5817 160.625 17.2741C160.625 16.9665 160.875 16.7175 161.181 16.7175H182.836C183.145 16.7175 183.393 16.9665 183.393 17.2741V38.9298C183.394 39.2383 183.146 39.4864 182.837 39.4864Z" fill="#D5D5D5"/>
<path d="M159.038 31.0015C158.198 31.0015 157.388 30.8765 156.645 30.6185C151.057 28.6828 149.559 24.6805 148.111 20.8071C146.99 17.8098 145.931 14.9792 143.07 13.0019C138.979 10.1762 135.982 11.3837 134.585 12.3232C136.21 12.6745 139.037 13.5604 140.496 15.6539C141.411 16.9685 141.643 18.541 141.185 20.3279C140.559 22.7706 138.405 24.4444 135.122 25.0436C129.213 26.1241 120.246 23.5782 116.046 17.5926C115.927 17.4229 115.912 17.2007 116.009 17.0171C116.106 16.8336 116.294 16.7175 116.503 16.7175H119.411C117.842 15.5418 116.697 14.4911 116.279 14.0952H94.7209C94.4144 14.0952 94.1644 13.8462 94.1644 13.5386C94.1644 13.2311 94.4144 12.983 94.7209 12.983H116.503C116.648 12.983 116.786 13.0406 116.892 13.1408C116.923 13.1735 118.769 14.9633 121.337 16.7165H134.423C134.579 16.7165 134.729 16.782 134.833 16.898C134.938 17.0131 134.99 17.1669 134.977 17.3217C134.971 17.3921 134.807 19.056 133.333 20.192C132.112 21.1316 130.398 21.4183 128.229 21.0462C125.686 20.6087 123.103 19.2465 120.978 17.8287H117.63C121.711 22.6753 129.644 24.9156 134.922 23.9513C137.754 23.4343 139.596 22.0493 140.109 20.0511C140.482 18.5916 140.305 17.3266 139.583 16.2889C137.793 13.7202 133.291 13.2251 133.245 13.2201C133.037 13.1993 132.858 13.0614 132.784 12.8659C132.708 12.6695 132.751 12.4482 132.893 12.2935C132.934 12.2458 137.268 7.64225 143.701 12.0871C146.85 14.2619 148.019 17.3911 149.151 20.4172C150.571 24.2142 151.913 27.8018 157.007 29.5668C159.268 30.3516 162.397 29.6452 164.79 27.8097C166.389 26.5834 169.024 23.8064 168.683 18.9925C168.358 14.4008 164.982 11.9958 162.19 11.3301C159.249 10.6276 156.588 11.5851 155.249 13.8244C154.181 15.6132 154.256 17.4417 155.459 18.8417C156.65 20.2267 158.633 20.8319 160.07 20.2436C161.689 19.5838 162.146 18.3515 162.044 17.4953C161.978 16.9328 161.672 16.5131 161.283 16.4536C160.167 16.2789 159.729 17.7821 159.725 17.7969C159.642 18.0926 159.336 18.2662 159.04 18.1819C158.744 18.0985 158.572 17.792 158.654 17.4973C158.895 16.645 159.791 15.0953 161.452 15.3562C162.354 15.4951 163.021 16.2839 163.148 17.3663C163.294 18.6085 162.686 20.3775 160.489 21.2734C158.596 22.0443 156.127 21.326 154.615 19.5659C153.081 17.7811 152.965 15.4813 154.295 13.2559C155.865 10.6247 159.065 9.44301 162.448 10.2506C165.605 11.0037 169.422 13.7242 169.79 18.9161C170.067 22.8103 168.488 26.3741 165.464 28.6927C163.514 30.1899 161.177 31.0015 159.038 31.0015ZM123.091 17.8307C124.768 18.8119 126.623 19.6433 128.418 19.9539C130.257 20.2704 131.679 20.058 132.642 19.3239C133.247 18.8625 133.56 18.2692 133.717 17.8307H123.091Z" fill="#D5D5D5"/>
<path d="M158.546 26.1925C156.92 26.1925 155.451 25.497 154.18 24.1239C151.378 21.1018 150.617 18.7732 150.005 16.904C149.573 15.5844 149.262 14.631 148.367 13.8303C148.195 13.6775 148.136 13.4334 148.219 13.2191C148.301 13.0029 148.507 12.862 148.737 12.862H154.774C155.081 12.862 155.331 13.11 155.331 13.4176C155.331 13.7251 155.081 13.9732 154.774 13.9732H149.951C150.469 14.7451 150.751 15.6073 151.061 16.5597C151.64 18.3258 152.359 20.5254 154.995 23.3699C156.073 24.5317 157.277 25.1031 158.641 25.0813C161.825 25.0168 164.716 21.6772 164.744 21.6435C164.944 21.4104 165.296 21.3836 165.528 21.582C165.76 21.7814 165.788 22.1317 165.588 22.3648C165.458 22.5186 162.343 26.1171 158.664 26.1915C158.624 26.1915 158.584 26.1925 158.546 26.1925Z" fill="#D5D5D5"/>
<path d="M186.696 33.8142C186.39 33.8142 186.14 33.5662 186.14 33.2586V13.9722H166.854C166.546 13.9722 166.299 13.7242 166.299 13.4166C166.299 13.109 166.546 12.861 166.854 12.861H186.696C187.005 12.861 187.252 13.109 187.252 13.4166V33.2586C187.251 33.5662 187.004 33.8142 186.696 33.8142Z" fill="#D5D5D5"/>
<path d="M9.55663 141.112C9.24807 141.112 9.00103 140.864 9.00103 140.556V127.906C9.00103 127.805 9.02677 127.708 9.07836 127.621L14.7128 118.18V110.277H13.0956V112.917C13.0956 113.144 12.9567 113.349 12.7444 113.433C12.533 113.518 12.291 113.463 12.1352 113.296L9.15085 110.101C9.00004 109.939 8.95836 109.704 9.04766 109.501C9.13596 109.298 9.33635 109.166 9.5576 109.166H11.9864V83.6094C11.9864 83.4645 12.0439 83.3246 12.1441 83.2204C12.1769 83.1877 13.9667 81.3423 15.7199 78.7736V65.6881C15.7199 65.5324 15.7844 65.3835 15.9004 65.2784C16.0155 65.1742 16.1683 65.1186 16.3241 65.1345C16.3955 65.1405 18.0603 65.3042 19.1954 66.7785C20.1339 67.9979 20.4217 69.7153 20.0476 71.8811C19.6101 74.424 18.2488 77.0066 16.832 79.1318V82.4823C21.6777 78.3996 23.918 70.4723 22.9526 65.1891C22.4357 62.3565 21.0507 60.515 19.0535 60.0031C17.595 59.6291 16.331 59.8066 15.2932 60.5269C12.7305 62.3089 12.2275 66.8202 12.2225 66.8658C12.2007 67.0742 12.0638 67.2528 11.8673 67.3272C11.6739 67.4036 11.4497 67.3589 11.2959 67.219C11.2482 67.1754 6.6456 62.8436 11.0885 56.4105C13.2643 53.2614 16.3936 52.0917 19.4186 50.9606C23.2176 49.5389 26.8042 48.1975 28.5702 43.1038C29.354 40.8427 28.6456 37.7144 26.8121 35.3203C25.5848 33.721 22.8028 31.0878 17.9959 31.4281C13.4032 31.7535 10.9972 35.1279 10.3325 37.9208C9.63103 40.8635 10.5864 43.5225 12.8267 44.8619C14.6186 45.9324 16.4451 45.854 17.844 44.6515C19.2301 43.4609 19.8323 41.4786 19.246 40.042C18.5862 38.4228 17.351 37.9605 16.4977 38.0666C15.9342 38.1331 15.5145 38.4387 15.456 38.8276C15.2833 39.9467 16.7844 40.3813 16.7993 40.3863C17.095 40.4686 17.2676 40.7762 17.1843 41.0709C17.1019 41.3665 16.7973 41.5391 16.4997 41.4558C15.6484 41.2157 14.1027 40.3228 14.3596 38.6589C14.4976 37.7571 15.2863 37.0913 16.3687 36.9633C17.6168 36.8234 19.3799 37.4267 20.2748 39.6233C21.0477 41.5133 20.3294 43.9828 18.5693 45.4958C16.7825 47.0277 14.4826 47.1458 12.2582 45.8163C9.62803 44.2447 8.44738 41.0441 9.253 37.6638C10.0051 34.5058 12.7255 30.688 17.9185 30.3209C21.8047 30.0391 25.3755 31.6216 27.6951 34.6457C29.7797 37.3652 30.5357 40.8268 29.6219 43.4679C27.6852 49.0567 23.6829 50.5538 19.8095 52.0024C16.8122 53.1235 13.9816 54.1812 12.0043 57.0435C9.19646 61.1094 10.392 64.1136 11.3276 65.5195C11.6788 63.8933 12.5678 61.0736 14.6573 59.6182C15.9709 58.7024 17.5444 58.4732 19.3303 58.9286C21.772 59.5537 23.4468 61.7066 24.046 64.9906C25.1245 70.8949 22.5806 79.867 16.5959 84.0668C16.4263 84.1858 16.203 84.2007 16.0205 84.1045C15.8359 84.0082 15.7208 83.8187 15.7208 83.6114V80.7014C14.5441 82.271 13.4945 83.4159 13.0966 83.8346V109.167H15.2684C15.575 109.167 15.825 109.416 15.825 109.724V118.335C15.825 118.436 15.7972 118.533 15.7457 118.619L10.1122 128.061V140.558C10.1112 140.863 9.86222 141.112 9.55663 141.112ZM10.8345 110.278L11.9854 111.509V110.278H10.8345ZM16.8311 66.3965V77.0225C17.8103 75.3438 18.6427 73.4914 18.9523 71.6936C19.2678 69.8552 19.0575 68.4354 18.3243 67.471C17.8619 66.8648 17.2686 66.5533 16.8311 66.3965Z" fill="#D5D5D5"/>
<path d="M12.417 51.9319C12.3505 51.9319 12.2821 51.92 12.2186 51.8962C12.0023 51.8139 11.8624 51.6075 11.8624 51.3773V45.3411C11.8624 45.0335 12.1094 44.7855 12.418 44.7855C12.7245 44.7855 12.9745 45.0335 12.9745 45.3411V50.1629C13.7454 49.646 14.6076 49.3652 15.5581 49.0537C17.3251 48.4753 19.5248 47.756 22.3703 45.1198C23.5321 44.0423 24.1085 42.816 24.0807 41.4747C24.0182 38.2889 20.6777 35.3997 20.6439 35.3709C20.4108 35.1715 20.382 34.8213 20.5814 34.5881C20.7809 34.355 21.133 34.3262 21.3652 34.5256C21.519 34.6566 25.1166 37.7729 25.191 41.4518C25.2247 43.1246 24.5292 44.6317 23.1243 45.9344C20.1012 48.7362 17.7726 49.4982 15.9034 50.1093C14.5848 50.5419 13.6304 50.8535 12.8307 51.7464C12.7226 51.8665 12.5708 51.9319 12.417 51.9319Z" fill="#D5D5D5"/>
<path d="M16.2755 39.4864C15.9669 39.4864 15.7189 39.2383 15.7189 38.9308V17.2751C15.7189 16.9675 15.9669 16.7185 16.2755 16.7185H37.9302C38.2367 16.7185 38.4868 16.9675 38.4868 17.2751C38.4868 17.5826 38.2367 17.8307 37.9302 17.8307H16.8301V38.9318C16.8311 39.2383 16.581 39.4864 16.2755 39.4864Z" fill="#D5D5D5"/>
<path d="M40.0752 31.0015C37.9361 31.0015 35.6006 30.1899 33.647 28.6928C30.6219 26.3741 29.0434 22.8103 29.3212 18.9161C29.6893 13.7242 33.5072 11.0027 36.6632 10.2506C40.0454 9.44401 43.2451 10.6247 44.8167 13.2559C46.1462 15.4813 46.0301 17.7821 44.4963 19.566C42.9842 21.325 40.5157 22.0453 38.6227 21.2734C36.4251 20.3785 35.8179 18.6085 35.9637 17.3663C36.0907 16.2829 36.7574 15.4941 37.6593 15.3562C39.3241 15.0953 40.2171 16.645 40.4572 17.4973C40.5395 17.792 40.3679 18.0966 40.0722 18.1799C39.7815 18.2662 39.472 18.0936 39.3866 17.7989C39.3698 17.7364 38.9412 16.2879 37.829 16.4546C37.439 16.5141 37.1344 16.9328 37.067 17.4963C36.9658 18.3516 37.4222 19.5838 39.0414 20.2446C40.478 20.8299 42.4613 20.2277 43.6529 18.8427C44.8554 17.4437 44.9308 15.6142 43.8622 13.8253C42.5238 11.5861 39.8659 10.6286 36.9212 11.3311C34.1302 11.9968 30.7539 14.4018 30.4285 18.9935C30.0872 23.8074 32.7224 26.5834 34.3217 27.8107C36.7148 29.6462 39.8421 30.3516 42.1042 29.5678C47.1989 27.8038 48.5402 24.2152 49.96 20.4182C51.093 17.3911 52.2618 14.2629 55.4109 12.0881C61.843 7.64524 66.1767 12.2468 66.2184 12.2945C66.3603 12.4492 66.4039 12.6705 66.3275 12.8659C66.2531 13.0624 66.0746 13.2003 65.8662 13.2211C65.8206 13.2261 61.3092 13.7281 59.5273 16.2918C58.805 17.3296 58.6294 18.5946 59.0025 20.0521C59.5154 22.0503 61.3569 23.4343 64.1895 23.9522C69.4687 24.9176 77.399 22.6764 81.4817 17.8297H78.1331C76.008 19.2475 73.4264 20.6097 70.8825 21.0472C68.7137 21.4193 67.0002 21.1326 65.7789 20.193C64.3046 19.057 64.1408 17.3941 64.1349 17.3227C64.121 17.1679 64.1726 17.0141 64.2787 16.899C64.3829 16.784 64.5328 16.7175 64.6885 16.7175H77.776C80.3457 14.9643 82.1881 13.1755 82.2198 13.1428C82.324 13.0406 82.4629 12.984 82.6088 12.984H104.39C104.697 12.984 104.947 13.232 104.947 13.5396C104.947 13.8472 104.697 14.0962 104.39 14.0962H82.832C82.4143 14.4911 81.2703 15.5428 79.7008 16.7185H82.6088C82.8171 16.7185 83.0056 16.8345 83.1029 17.0181C83.1991 17.2026 83.1842 17.4239 83.0651 17.5935C78.8664 23.5792 69.9003 26.1251 63.989 25.0446C60.705 24.4454 58.552 22.7716 57.926 20.3289C57.4686 18.542 57.7008 16.9695 58.6155 15.6549C60.072 13.5654 62.8917 12.6774 64.5179 12.3262C63.113 11.3916 60.1087 10.1951 56.0419 13.0029C53.1805 14.9802 52.1219 17.8118 51.0008 20.8081C49.5522 24.6805 48.0541 28.6838 42.4663 30.6195C41.7252 30.8765 40.9145 31.0015 40.0752 31.0015ZM65.3949 17.8307C65.5527 18.2682 65.8652 18.8625 66.4704 19.3239C67.4338 20.0581 68.8555 20.2704 70.694 19.9539C72.4928 19.6433 74.3461 18.8129 76.0239 17.8307H65.3949Z" fill="#D5D5D5"/>
<path d="M40.5674 26.1925C40.5297 26.1925 40.49 26.1915 40.4513 26.1915C36.7724 26.1171 33.656 22.5186 33.527 22.3648C33.3276 22.1326 33.3544 21.7814 33.5875 21.582C33.8197 21.3846 34.171 21.4104 34.3714 21.6435C34.3991 21.6772 37.3012 25.0188 40.478 25.0813C41.7857 25.1101 43.0428 24.5317 44.1202 23.3699C46.7564 20.5254 47.4757 18.3258 48.0542 16.5597C48.3647 15.6073 48.6464 14.7451 49.1643 13.9732H44.3415C44.0349 13.9732 43.7849 13.7251 43.7849 13.4176C43.7849 13.11 44.0349 12.862 44.3415 12.862H50.3787C50.6079 12.862 50.8143 13.0038 50.8967 13.2191C50.979 13.4334 50.9194 13.6775 50.7488 13.8303C49.8539 14.631 49.5414 15.5844 49.1108 16.904C48.4986 18.7742 47.7377 21.1018 44.9358 24.1239C43.6629 25.497 42.1925 26.1925 40.5674 26.1925Z" fill="#D5D5D5"/>
<path d="M12.417 33.8142C12.1084 33.8142 11.8614 33.5662 11.8614 33.2586V13.4166C11.8614 13.109 12.1084 12.861 12.417 12.861H32.259C32.5676 12.861 32.8146 13.109 32.8146 13.4166C32.8146 13.7242 32.5676 13.9722 32.259 13.9722H12.9736V33.2586C12.9726 33.5662 12.7226 33.8142 12.417 33.8142Z" fill="#D5D5D5"/>
<path d="M18.7866 250.823C18.4979 250.823 18.2082 250.813 17.9165 250.793C12.7235 250.425 10.0021 246.607 9.25101 243.449C8.44538 240.07 9.62603 236.869 12.2562 235.297C14.4836 233.969 16.7834 234.086 18.5673 235.619C20.3264 237.13 21.0457 239.601 20.2728 241.491C19.3779 243.688 17.6099 244.304 16.3667 244.15C15.2833 244.023 14.4946 243.356 14.3576 242.454C14.1007 240.79 15.6464 239.898 16.4977 239.658C16.7924 239.573 17.097 239.747 17.1813 240.042C17.2647 240.336 17.094 240.642 16.8003 240.727C16.7378 240.745 15.2843 241.179 15.4549 242.285C15.5135 242.673 15.9322 242.979 16.4967 243.047C17.349 243.143 18.5842 242.69 19.245 241.073C19.8313 239.635 19.2291 237.654 17.8431 236.462C16.4451 235.261 14.6176 235.183 12.8258 236.253C10.5855 237.59 9.63 240.249 10.3314 243.193C10.9962 245.984 13.4022 249.36 17.9949 249.685C22.8148 250.031 25.5829 247.392 26.8111 245.792C28.6456 243.397 29.354 240.271 28.5692 238.01C26.8052 232.915 23.2166 231.575 19.4186 230.153C16.3916 229.021 13.2633 227.851 11.0885 224.702C6.64461 218.271 11.2472 213.939 11.2948 213.896C11.4486 213.754 11.6729 213.712 11.8664 213.786C12.0628 213.861 12.1997 214.04 12.2215 214.249C12.2265 214.295 12.7295 218.805 15.2922 220.587C16.331 221.31 17.597 221.484 19.0525 221.111C21.0497 220.598 22.4338 218.757 22.9517 215.924C23.917 210.642 21.6767 202.714 16.8311 198.632V201.982C18.2488 204.107 19.6091 206.689 20.0467 209.233C20.4207 211.399 20.133 213.114 19.1944 214.334C18.0594 215.81 16.3955 215.972 16.3231 215.979C16.1673 215.991 16.0145 215.94 15.8994 215.836C15.7843 215.73 15.7189 215.582 15.7189 215.426V202.338C13.9648 199.77 12.1759 197.926 12.1432 197.892C12.042 197.789 11.9854 197.649 11.9854 197.504V171.947H9.55663C9.33538 171.947 9.13493 171.816 9.04663 171.612C8.95733 171.41 8.99901 171.174 9.14982 171.012L12.1342 167.817C12.29 167.652 12.5321 167.597 12.7434 167.68C12.9567 167.764 13.0946 167.969 13.0946 168.197V170.835H14.7118V162.933L9.07739 153.491C9.0258 153.404 9 153.306 9 153.206V140.557C9 140.249 9.24704 140 9.5556 140C9.86218 140 10.1112 140.249 10.1112 140.557V153.054L15.7447 162.496C15.7963 162.582 15.824 162.681 15.824 162.78V171.392C15.824 171.7 15.574 171.948 15.2674 171.948H13.0956V197.281C13.4915 197.699 14.5432 198.844 15.7199 200.414V197.504C15.7199 197.296 15.8349 197.107 16.0195 197.011C16.202 196.914 16.4233 196.93 16.595 197.049C22.5796 201.248 25.1225 210.219 24.045 216.124C23.4457 219.409 21.771 221.561 19.3293 222.187C17.5414 222.644 15.9699 222.412 14.6562 221.497C12.5668 220.042 11.6769 217.222 11.3266 215.595C10.391 217.002 9.19549 220.006 12.0033 224.071C13.9806 226.934 16.8132 227.992 19.8095 229.113C23.6809 230.562 27.6842 232.06 29.6209 237.647C30.5347 240.287 29.7776 243.749 27.6941 246.469C25.5481 249.265 22.3375 250.823 18.7866 250.823ZM16.8311 204.09V214.719C17.2676 214.561 17.8619 214.249 18.3243 213.643C19.0575 212.678 19.2678 211.259 18.9523 209.421C18.6427 207.621 17.8103 205.77 16.8311 204.09ZM10.8345 170.834H11.9854V169.605L10.8345 170.834Z" fill="#D5D5D5"/>
<path d="M21.004 246.722C20.8483 246.722 20.6925 246.657 20.5804 246.528C20.382 246.296 20.4088 245.944 20.6419 245.745C20.6766 245.716 24.0182 242.815 24.0807 239.637C24.1055 238.298 23.5301 237.073 22.3693 235.997C19.5238 233.36 17.3261 232.641 15.5581 232.062C14.6066 231.751 13.7445 231.468 12.9736 230.952V235.775C12.9736 236.082 12.7236 236.331 12.417 236.331C12.1084 236.331 11.8614 236.082 11.8614 235.775V229.738C11.8614 229.508 12.0022 229.301 12.2175 229.22C12.4318 229.137 12.6769 229.196 12.8297 229.367C13.6294 230.261 14.5838 230.573 15.9044 231.005C17.7726 231.617 20.1002 232.379 23.1233 235.179C24.5282 236.482 25.2237 237.99 25.1899 239.663C25.1155 243.341 21.518 246.459 21.3642 246.588C21.2601 246.679 21.132 246.722 21.004 246.722Z" fill="#D5D5D5"/>
<path d="M37.9302 264.394H16.2755C15.9669 264.394 15.7189 264.145 15.7189 263.838V242.182C15.7189 241.875 15.9669 241.626 16.2755 241.626C16.581 241.626 16.8311 241.875 16.8311 242.182V263.283H37.9312C38.2378 263.283 38.4878 263.531 38.4878 263.839C38.4878 264.146 38.2367 264.394 37.9302 264.394Z" fill="#D5D5D5"/>
<path d="M38.7447 271.113C38.0681 271.113 37.3706 271.032 36.6632 270.863C33.5062 270.111 29.6894 267.391 29.3213 262.199C29.0445 258.305 30.623 254.741 33.647 252.422C36.3646 250.337 39.8282 249.583 42.4683 250.495C48.0561 252.431 49.5543 256.434 51.0028 260.307C52.1239 263.304 53.1826 266.135 56.0439 268.112C60.1098 270.921 63.114 269.723 64.5199 268.789C62.8937 268.437 60.074 267.549 58.6176 265.459C57.7028 264.145 57.4706 262.573 57.928 260.787C58.5541 258.344 60.708 256.67 63.9911 256.07C69.8984 254.996 78.8674 257.535 83.0672 263.521C83.1862 263.691 83.2011 263.913 83.1049 264.097C83.0077 264.281 82.8191 264.396 82.6108 264.396H79.7008C81.2704 265.573 82.4163 266.624 82.834 267.021H104.393C104.699 267.021 104.949 267.269 104.949 267.576C104.949 267.884 104.699 268.132 104.393 268.132H82.6108C82.4659 268.132 82.327 268.074 82.2219 267.974C82.1901 267.941 80.3447 266.151 77.7751 264.398H64.6905C64.5347 264.398 64.385 264.333 64.2808 264.218C64.1756 264.103 64.124 263.949 64.1369 263.793C64.1428 263.723 64.3065 262.058 65.7809 260.923C67.0012 259.985 68.7177 259.698 70.8845 260.069C73.4274 260.507 76.009 261.868 78.1342 263.286H81.4837C77.402 258.439 69.4717 256.199 64.1915 257.165C61.3599 257.681 59.5175 259.067 59.0045 261.064C58.6315 262.524 58.808 263.788 59.5303 264.826C61.3192 267.395 65.8226 267.889 65.8682 267.895C66.0765 267.916 66.2552 268.053 66.3296 268.249C66.405 268.445 66.3623 268.667 66.2205 268.822C66.1788 268.869 61.8441 273.472 55.4129 269.028C52.2638 266.853 51.0941 263.724 49.962 260.698C48.5423 256.9 47.2008 253.312 42.1061 251.547C39.844 250.765 36.7168 251.471 34.3237 253.304C32.7244 254.531 30.0892 257.307 30.4305 262.121C30.756 266.713 34.1312 269.12 36.9231 269.785C39.8678 270.485 42.5259 269.531 43.8643 267.289C44.9328 265.502 44.8574 263.672 43.654 262.272C42.4634 260.887 40.48 260.284 39.0434 260.87C37.4242 261.531 36.9678 262.763 37.069 263.62C37.1355 264.182 37.441 264.601 37.83 264.661C38.9422 264.843 39.3847 263.333 39.3887 263.317C39.471 263.023 39.7776 262.853 40.0733 262.933C40.3699 263.016 40.5415 263.323 40.4592 263.619C40.2181 264.47 39.3222 266.019 37.6613 265.759C36.7594 265.62 36.0937 264.831 35.9657 263.75C35.8199 262.507 36.4271 260.738 38.6247 259.842C40.5177 259.071 42.9862 259.79 44.4982 261.55C46.0321 263.335 46.1492 265.635 44.8187 267.861C43.5735 269.94 41.3104 271.113 38.7447 271.113ZM65.392 263.283H76.0209C74.3422 262.302 72.4898 261.472 70.694 261.161C68.8476 260.841 67.4209 261.058 66.4575 261.801C65.8523 262.265 65.5458 262.851 65.392 263.283Z" fill="#D5D5D5"/>
<path d="M50.3767 268.253H44.3395C44.0329 268.253 43.7828 268.005 43.7828 267.697C43.7828 267.39 44.0329 267.141 44.3395 267.141H49.1623C48.6454 266.369 48.3626 265.508 48.0521 264.554C47.4737 262.788 46.7543 260.588 44.1182 257.745C43.0407 256.584 41.7837 256.046 40.476 256.034C37.2992 256.096 34.3971 259.438 34.3693 259.471C34.1689 259.703 33.8177 259.729 33.5855 259.532C33.3534 259.332 33.3256 258.982 33.525 258.749C33.655 258.596 36.7703 254.998 40.4492 254.923C42.121 254.924 43.63 255.585 44.9327 256.99C47.7346 260.013 48.4956 262.342 49.1077 264.21C49.5393 265.529 49.8508 266.483 50.7458 267.284C50.9174 267.437 50.976 267.68 50.8936 267.897C50.8133 268.11 50.6069 268.253 50.3767 268.253Z" fill="#D5D5D5"/>
<path d="M32.259 268.253H12.417C12.1084 268.253 11.8614 268.005 11.8614 267.697V247.855C11.8614 247.548 12.1084 247.3 12.417 247.3C12.7236 247.3 12.9736 247.548 12.9736 247.855V267.141H32.259C32.5676 267.141 32.8146 267.39 32.8146 267.697C32.8146 268.005 32.5666 268.253 32.259 268.253Z" fill="#D5D5D5"/>
<path d="M180.327 250.823C176.776 250.823 173.566 249.265 171.42 246.466C169.336 243.747 168.58 240.285 169.494 237.644C171.43 232.057 175.433 230.559 179.305 229.11C182.302 227.989 185.134 226.931 187.111 224.068C189.937 219.979 188.73 216.981 187.789 215.584C187.439 217.21 186.552 220.035 184.458 221.494C183.145 222.41 181.574 222.641 179.785 222.184C177.343 221.558 175.669 219.405 175.069 216.121C173.992 210.217 176.535 201.246 182.52 197.046C182.689 196.927 182.912 196.911 183.095 197.008C183.279 197.104 183.395 197.293 183.395 197.501V200.411C184.571 198.841 185.622 197.696 186.019 197.278V171.945H183.847C183.54 171.945 183.29 171.697 183.29 171.389V162.777C183.29 162.677 183.318 162.579 183.37 162.493L189.003 153.051V140.554C189.003 140.246 189.252 139.997 189.559 139.997C189.867 139.997 190.114 140.246 190.114 140.554V153.203C190.114 153.304 190.089 153.401 190.037 153.488L184.403 162.93V170.832H186.02V168.194C186.02 167.967 186.159 167.761 186.371 167.677C186.583 167.594 186.824 167.649 186.98 167.814L189.965 171.009C190.115 171.171 190.157 171.407 190.068 171.609C189.979 171.813 189.779 171.944 189.558 171.944H187.129V197.501C187.129 197.645 187.072 197.785 186.971 197.889C186.939 197.923 185.149 199.769 183.396 202.337V215.423C183.396 215.579 183.331 215.727 183.215 215.833C183.1 215.936 182.945 215.987 182.791 215.976C182.72 215.969 181.055 215.807 179.92 214.331C178.981 213.112 178.694 211.396 179.068 209.23C179.505 206.687 180.867 204.104 182.283 201.979V198.629C177.438 202.71 175.197 210.638 176.163 215.921C176.68 218.753 178.065 220.595 180.062 221.108C181.521 221.481 182.787 221.303 183.824 220.583C186.392 218.793 186.888 214.292 186.892 214.246C186.914 214.037 187.052 213.858 187.247 213.783C187.442 213.709 187.665 213.751 187.82 213.893C187.867 213.936 192.47 218.267 188.027 224.699C185.851 227.848 182.722 229.019 179.696 230.15C175.898 231.572 172.31 232.912 170.545 238.007C169.761 240.267 170.47 243.395 172.303 245.789C173.531 247.389 176.302 250.032 181.121 249.682C185.712 249.357 188.118 245.982 188.783 243.19C189.484 240.246 188.529 237.587 186.289 236.25C184.499 235.18 182.671 235.258 181.271 236.459C179.885 237.651 179.283 239.632 179.869 241.07C180.529 242.687 181.756 243.14 182.618 243.044C183.181 242.977 183.601 242.67 183.659 242.282C183.832 241.164 182.331 240.73 182.316 240.726C182.02 240.641 181.848 240.335 181.931 240.04C182.013 239.745 182.322 239.574 182.616 239.655C183.467 239.895 185.013 240.788 184.756 242.451C184.618 243.353 183.829 244.02 182.747 244.147C181.503 244.295 179.736 243.685 178.841 241.488C178.068 239.598 178.786 237.127 180.546 235.616C182.33 234.083 184.631 233.966 186.857 235.294C189.487 236.866 190.668 240.067 189.862 243.446C189.11 246.605 186.39 250.422 181.197 250.79C180.906 250.814 180.616 250.823 180.327 250.823ZM182.282 204.092C181.303 205.771 180.471 207.624 180.161 209.421C179.844 211.268 180.058 212.693 180.8 213.657C181.265 214.261 181.851 214.569 182.282 214.722V204.092ZM187.127 170.834H188.278L187.127 169.605V170.834Z" fill="#D5D5D5"/>
<path d="M178.109 246.722C177.981 246.722 177.853 246.679 177.749 246.588C177.595 246.458 173.998 243.341 173.924 239.663C173.89 237.99 174.585 236.483 175.99 235.179C179.013 232.379 181.342 231.617 183.209 231.004C184.53 230.572 185.484 230.261 186.284 229.367C186.437 229.195 186.682 229.137 186.896 229.22C187.112 229.301 187.252 229.508 187.252 229.738V235.775C187.252 236.082 187.005 236.331 186.696 236.331C186.39 236.331 186.14 236.082 186.14 235.775V230.952C185.369 231.469 184.507 231.751 183.555 232.062C181.787 232.641 179.59 233.36 176.744 235.997C175.582 237.073 175.006 238.3 175.034 239.641C175.096 242.826 178.437 245.716 178.471 245.745C178.704 245.943 178.732 246.296 178.533 246.528C178.421 246.656 178.266 246.722 178.109 246.722Z" fill="#D5D5D5"/>
<path d="M182.837 264.394H161.182C160.876 264.394 160.626 264.145 160.626 263.838C160.626 263.53 160.876 263.282 161.182 263.282H182.282V242.181C182.282 241.874 182.532 241.625 182.838 241.625C183.147 241.625 183.395 241.874 183.395 242.181V263.837C183.394 264.145 183.146 264.394 182.837 264.394Z" fill="#D5D5D5"/>
<path d="M160.369 271.113C157.803 271.113 155.54 269.94 154.297 267.859C152.966 265.633 153.083 263.332 154.617 261.548C156.129 259.79 158.6 259.069 160.491 259.84C162.688 260.736 163.296 262.506 163.15 263.747C163.022 264.83 162.356 265.619 161.454 265.757C159.79 266.015 158.897 264.469 158.656 263.617C158.574 263.321 158.746 263.016 159.041 262.933C159.332 262.848 159.641 263.019 159.727 263.314C159.745 263.376 160.175 264.829 161.284 264.659C161.674 264.599 161.979 264.181 162.046 263.618C162.148 262.762 161.691 261.53 160.072 260.868C158.633 260.282 156.652 260.885 155.462 262.27C154.258 263.67 154.183 265.5 155.251 267.287C156.59 269.529 159.249 270.483 162.192 269.783C164.983 269.118 168.36 266.711 168.685 262.119C169.026 257.305 166.391 254.53 164.792 253.302C162.399 251.468 159.271 250.762 157.009 251.545C151.915 253.309 150.573 256.898 149.153 260.696C148.02 263.722 146.852 266.85 143.703 269.026C137.271 273.469 132.939 268.867 132.895 268.82C132.753 268.665 132.71 268.443 132.786 268.247C132.86 268.052 133.039 267.914 133.247 267.893C133.293 267.887 137.804 267.385 139.586 264.822C140.308 263.784 140.484 262.52 140.111 261.062C139.598 259.065 137.757 257.68 134.924 257.163C129.646 256.198 121.714 258.437 117.632 263.284H120.981C123.106 261.866 125.688 260.505 128.231 260.067C130.398 259.695 132.113 259.983 133.335 260.921C134.809 262.056 134.973 263.72 134.979 263.791C134.993 263.946 134.941 264.101 134.835 264.216C134.731 264.33 134.581 264.396 134.425 264.396H121.34C118.77 266.149 116.925 267.939 116.894 267.972C116.789 268.073 116.65 268.13 116.505 268.13H94.723C94.4164 268.13 94.1664 267.882 94.1664 267.574C94.1664 267.267 94.4164 267.019 94.723 267.019H116.281C116.699 266.623 117.845 265.571 119.415 264.394H116.505C116.296 264.394 116.108 264.279 116.011 264.095C115.914 263.91 115.929 263.689 116.048 263.519C120.247 257.533 129.216 254.989 135.124 256.068C138.408 256.667 140.561 258.342 141.187 260.785C141.645 262.571 141.413 264.143 140.498 265.457C139.041 267.547 136.221 268.435 134.596 268.787C136.001 269.723 139.006 270.92 143.072 268.11C145.933 266.133 146.992 263.301 148.113 260.305C149.561 256.433 151.059 252.429 156.647 250.493C159.287 249.58 162.75 250.336 165.468 252.42C168.493 254.739 170.072 258.303 169.794 262.197C169.426 267.389 165.608 270.11 162.452 270.861C161.742 271.032 161.044 271.113 160.369 271.113ZM123.092 263.283H133.717C133.56 262.845 133.247 262.251 132.642 261.79C131.677 261.057 130.26 260.842 128.418 261.161C126.623 261.471 124.771 262.302 123.092 263.283Z" fill="#D5D5D5"/>
<path d="M154.773 268.253H148.736C148.507 268.253 148.3 268.11 148.218 267.897C148.136 267.68 148.195 267.437 148.366 267.284C149.261 266.483 149.573 265.529 150.004 264.21C150.616 262.341 151.377 260.013 154.179 256.99C155.481 255.585 157.002 254.922 158.662 254.923C162.341 254.998 165.457 258.596 165.586 258.749C165.786 258.982 165.759 259.332 165.526 259.532C165.294 259.729 164.944 259.704 164.742 259.471C164.714 259.438 161.812 256.096 158.635 256.034C157.292 256.013 156.07 256.584 154.993 257.745C152.357 260.588 151.638 262.788 151.059 264.554C150.749 265.508 150.465 266.369 149.949 267.141H154.772C155.079 267.141 155.329 267.39 155.329 267.697C155.329 268.005 155.08 268.253 154.773 268.253Z" fill="#D5D5D5"/>
<path d="M186.696 268.253H166.854C166.546 268.253 166.299 268.005 166.299 267.697C166.299 267.39 166.546 267.141 166.854 267.141H186.14V247.855C186.14 247.548 186.39 247.3 186.696 247.3C187.005 247.3 187.252 247.548 187.252 247.855V267.697C187.251 268.005 187.004 268.253 186.696 268.253Z" fill="#D5D5D5"/>
<path d="M118.858 123.066C118.557 123.066 118.257 123.055 117.952 123.033C112.547 122.651 109.713 118.676 108.931 115.389C108.089 111.86 109.323 108.518 112.074 106.876C114.374 105.502 116.849 105.631 118.696 107.216C120.542 108.802 121.293 111.398 120.483 113.386C119.537 115.702 117.664 116.339 116.35 116.187C115.187 116.05 114.339 115.331 114.19 114.355C113.914 112.569 115.562 111.614 116.47 111.359C116.831 111.261 117.201 111.468 117.301 111.826C117.402 112.185 117.192 112.556 116.836 112.657C116.76 112.68 115.36 113.104 115.521 114.15C115.577 114.505 115.972 114.785 116.506 114.848C117.359 114.953 118.575 114.491 119.233 112.875C119.822 111.433 119.212 109.439 117.815 108.238C116.989 107.528 115.234 106.559 112.764 108.033C110.052 109.653 109.682 112.732 110.241 115.076C110.919 117.919 113.369 121.357 118.045 121.688C122.967 122.033 125.791 119.348 127.042 117.715C128.916 115.275 129.636 112.09 128.84 109.79C127.036 104.586 123.361 103.211 119.469 101.755C116.336 100.584 113.097 99.3723 110.837 96.1011C106.208 89.4009 111.015 84.8763 111.064 84.8317C111.253 84.6595 111.522 84.6078 111.758 84.6981C111.996 84.7884 112.162 85.0051 112.189 85.2579C112.194 85.3049 112.708 89.9089 115.312 91.7185C116.369 92.4542 117.609 92.6275 119.102 92.2435C121.824 91.5476 122.742 88.6484 123.045 86.9808C124.023 81.6267 121.789 73.6214 116.938 69.3978V72.5968C118.399 74.7916 119.802 77.4573 120.252 80.0844C120.641 82.3443 120.338 84.1394 119.354 85.4205C118.156 86.976 116.398 87.1494 116.323 87.1554C116.132 87.1783 115.948 87.1085 115.808 86.9796C115.669 86.8532 115.589 86.6714 115.589 86.4836V73.023C113.794 70.3995 111.967 68.5188 111.935 68.4839C111.809 68.3587 111.742 68.1889 111.742 68.012V45.5648C111.742 45.1915 112.042 44.8893 112.416 44.8893C112.788 44.8893 113.092 45.1915 113.092 45.5648V67.7411C113.497 68.1721 114.476 69.2436 115.59 70.7065V68.012C115.59 67.7603 115.73 67.5304 115.954 67.4136C116.176 67.298 116.446 67.3161 116.652 67.4593C122.854 71.8106 125.489 81.1054 124.372 87.2204C123.746 90.6458 121.993 92.8924 119.437 93.5474C117.565 94.0242 115.916 93.781 114.536 92.8202C112.456 91.3718 111.519 88.6327 111.118 86.917C110.2 88.4172 109.215 91.3814 111.945 95.3329C113.965 98.2562 116.869 99.3422 119.941 100.491C123.954 101.992 128.103 103.544 130.114 109.347C131.065 112.098 130.281 115.704 128.114 118.534C125.886 121.446 122.549 123.066 118.858 123.066ZM116.942 75.1805V85.6071C117.361 85.4361 117.885 85.1303 118.301 84.5813C119.036 83.6121 119.246 82.1757 118.927 80.3119C118.63 78.5866 117.864 76.8119 116.942 75.1805Z" fill="#D5D5D5"/>
<path d="M121.143 118.838C120.951 118.838 120.764 118.759 120.629 118.604C120.387 118.321 120.42 117.895 120.703 117.653C120.737 117.624 124.147 114.663 124.211 111.434C124.236 110.083 123.653 108.847 122.478 107.757C119.564 105.056 117.311 104.318 115.499 103.725C114.571 103.423 113.73 103.147 112.965 102.671V107.456C112.965 107.829 112.664 108.13 112.291 108.13C111.918 108.13 111.616 107.829 111.616 107.456V101.234C111.616 100.954 111.789 100.704 112.05 100.604C112.312 100.506 112.605 100.577 112.792 100.785C113.599 101.686 114.57 102.004 115.916 102.444C117.851 103.077 120.263 103.867 123.393 106.768C124.866 108.131 125.592 109.712 125.557 111.465C125.48 115.301 121.736 118.541 121.577 118.677C121.452 118.785 121.297 118.838 121.143 118.838Z" fill="#D5D5D5"/>
<path d="M116.269 137.052C116.147 137.052 116.027 137.02 115.919 136.955C115.716 136.832 115.594 136.614 115.594 136.378V114.06C115.594 113.687 115.895 113.386 116.269 113.386C116.641 113.386 116.943 113.687 116.943 114.06V135.236C119.031 134.046 124.147 130.958 129.513 126.414C129.211 125.71 128.976 124.987 128.819 124.262C128.096 120.903 129.087 117.89 131.612 115.777C131.896 115.536 132.323 115.577 132.56 115.861C132.799 116.146 132.763 116.571 132.477 116.81C129.757 119.086 129.702 121.964 130.137 123.977C130.247 124.485 130.398 124.99 130.588 125.487C133.687 122.761 136.808 119.563 139.422 115.978C136.043 107.793 130.907 98.5861 127.998 93.8135C127.823 93.5269 127.886 93.1537 128.146 92.9394C128.408 92.7275 128.787 92.7395 129.033 92.9695L144.99 107.847C145.196 108.039 145.261 108.336 145.154 108.596C144.069 111.251 142.628 113.767 140.969 116.122C143.745 123.079 145.254 129.546 142.797 132.149C141.296 133.737 139.25 134.271 137.041 133.655C134.358 132.905 131.716 130.523 130.123 127.654C123.159 133.505 116.7 136.914 116.581 136.975C116.481 137.027 116.373 137.052 116.269 137.052ZM131.162 126.766C132.558 129.438 134.961 131.674 137.403 132.357C138.609 132.694 140.355 132.771 141.817 131.224C143.72 129.208 142.477 123.739 140.011 117.439C137.346 120.957 134.234 124.093 131.162 126.766ZM131.516 97.1281C133.944 101.363 137.618 108.108 140.36 114.638C141.666 112.698 142.815 110.651 143.726 108.514L131.516 97.1281Z" fill="#D5D5D5"/>
<path d="M112.292 141.028C111.919 141.028 111.617 140.726 111.617 140.353V119.904C111.617 119.531 111.919 119.23 112.292 119.23C112.665 119.23 112.966 119.531 112.966 119.904V140.353C112.965 140.726 112.664 141.028 112.292 141.028Z" fill="#D5D5D5"/>
<path d="M112.292 141.595C111.98 141.595 111.704 141.381 111.634 141.067C111.553 140.703 111.783 140.343 112.147 140.262C112.408 140.204 138.404 134.29 148.227 117.819C148.342 117.625 148.547 117.501 148.771 117.491C149.001 117.488 149.214 117.581 149.348 117.764L155.577 126.191C157.542 123.61 158.875 120.853 158.734 118.2C158.557 114.815 157.188 112.639 154.774 111.905C151.988 111.061 148.435 112.381 147.121 114.134C146.897 114.433 146.475 114.492 146.179 114.269C145.881 114.045 145.82 113.624 146.045 113.327C147.627 111.212 151.766 109.582 155.168 110.615C156.883 111.138 159.803 112.808 160.083 118.129C160.247 121.251 158.672 124.424 156.413 127.321L165.867 140.112C166.026 140.325 166.043 140.613 165.913 140.844C165.783 141.074 165.526 141.218 165.263 141.182L142.415 139.027C142.126 139 141.886 138.79 141.821 138.506C141.756 138.222 141.882 137.929 142.128 137.778C142.245 137.709 149.824 133.067 154.704 127.276L148.856 119.366C138.397 135.685 113.511 141.342 112.439 141.578C112.387 141.589 112.339 141.595 112.292 141.595ZM144.482 137.866L163.885 139.698L155.53 128.396C151.896 132.645 147.014 136.174 144.482 137.866Z" fill="#D5D5D5"/>
<path d="M112.42 236.222C112.045 236.222 111.746 235.919 111.746 235.546V213.098C111.746 212.922 111.814 212.752 111.938 212.626C111.971 212.592 113.797 210.709 115.592 208.085V194.631C115.592 194.441 115.672 194.26 115.812 194.132C115.951 194.007 116.14 193.948 116.326 193.958C116.401 193.965 118.158 194.137 119.357 195.692C120.342 196.973 120.644 198.768 120.255 201.029C119.805 203.655 118.403 206.319 116.942 208.514V211.713C121.793 207.492 124.026 199.488 123.049 194.132C122.745 192.466 121.828 189.564 119.106 188.867C117.613 188.484 116.373 188.657 115.315 189.394C112.711 191.202 112.197 195.806 112.192 195.852C112.166 196.105 112 196.322 111.761 196.413C111.525 196.502 111.257 196.453 111.068 196.28C111.018 196.236 106.212 191.71 110.84 185.012C113.101 181.74 116.34 180.526 119.475 179.356C123.365 177.9 127.04 176.525 128.844 171.32C129.639 169.022 128.919 165.836 127.046 163.396C125.795 161.763 122.957 159.066 118.049 159.425C113.372 159.755 110.921 163.192 110.244 166.035C109.686 168.378 110.055 171.46 112.768 173.079C115.238 174.559 116.991 173.584 117.819 172.872C119.215 171.673 119.826 169.681 119.237 168.236C118.578 166.621 117.357 166.166 116.51 166.264C115.975 166.326 115.58 166.607 115.525 166.961C115.361 168.026 116.823 168.45 116.836 168.454C117.195 168.555 117.406 168.927 117.305 169.284C117.205 169.644 116.834 169.854 116.474 169.752C115.566 169.496 113.918 168.542 114.193 166.755C114.343 165.78 115.19 165.061 116.353 164.925C117.658 164.772 119.541 165.409 120.487 167.726C121.297 169.713 120.546 172.308 118.7 173.895C116.853 175.484 114.375 175.61 112.078 174.236C109.327 172.592 108.092 169.25 108.936 165.721C109.717 162.434 112.551 158.459 117.956 158.077C121.999 157.801 125.707 159.429 128.119 162.573C130.287 165.402 131.071 169.009 130.12 171.76C128.109 177.563 123.961 179.115 119.947 180.615C116.875 181.764 113.971 182.85 111.952 185.776C109.221 189.725 110.207 192.689 111.124 194.19C111.525 192.472 112.462 189.735 114.543 188.286C115.922 187.326 117.572 187.078 119.443 187.559C122.001 188.215 123.753 190.461 124.379 193.888C125.494 200.004 122.86 209.297 116.658 213.646C116.45 213.792 116.181 213.808 115.958 213.692C115.736 213.576 115.596 213.346 115.596 213.094V210.4C114.482 211.862 113.504 212.934 113.098 213.366V235.542C113.095 235.919 112.792 236.222 112.42 236.222ZM116.942 195.506V205.929C117.864 204.299 118.63 202.524 118.926 200.8C119.247 198.938 119.036 197.501 118.3 196.532C117.885 195.987 117.361 195.678 116.942 195.506Z" fill="#D5D5D5"/>
<path d="M112.292 180.554C112.21 180.554 112.13 180.538 112.053 180.509C111.79 180.411 111.618 180.159 111.618 179.88V173.66C111.618 173.287 111.92 172.986 112.293 172.986C112.667 172.986 112.968 173.287 112.968 173.66V178.442C113.732 177.966 114.574 177.692 115.5 177.39C117.31 176.797 119.567 176.059 122.48 173.356C123.658 172.267 124.239 171.028 124.213 169.676C124.147 166.438 120.739 163.491 120.706 163.461C120.424 163.22 120.389 162.794 120.631 162.511C120.873 162.229 121.298 162.194 121.581 162.436C121.74 162.571 125.482 165.812 125.56 169.648C125.595 171.401 124.868 172.982 123.397 174.344C120.265 177.246 117.855 178.035 115.919 178.668C114.574 179.109 113.602 179.427 112.795 180.327C112.663 180.476 112.48 180.554 112.292 180.554Z" fill="#D5D5D5"/>
<path d="M128.571 188.324C128.421 188.324 128.27 188.275 128.145 188.173C127.885 187.96 127.821 187.588 127.997 187.299C130.906 182.526 136.043 173.319 139.421 165.136C136.807 161.548 133.686 158.35 130.588 155.625C130.398 156.122 130.247 156.628 130.135 157.136C129.702 159.15 129.757 162.028 132.476 164.304C132.761 164.543 132.799 164.969 132.559 165.255C132.322 165.538 131.897 165.577 131.61 165.338C129.084 163.225 128.095 160.211 128.818 156.853C128.975 156.126 129.211 155.404 129.513 154.697C124.146 150.152 119.03 147.066 116.942 145.878V167.053C116.942 167.427 116.64 167.729 116.268 167.729C115.893 167.729 115.592 167.427 115.592 167.053V144.735C115.592 144.5 115.715 144.281 115.917 144.158C116.119 144.034 116.368 144.027 116.578 144.137C116.698 144.198 123.156 147.607 130.121 153.459C131.715 150.589 134.355 148.21 137.039 147.459C139.247 146.841 141.294 147.378 142.794 148.965C145.251 151.567 143.743 158.033 140.966 164.989C142.626 167.346 144.066 169.861 145.152 172.516C145.259 172.775 145.194 173.072 144.988 173.264L129.03 188.143C128.902 188.264 128.738 188.324 128.571 188.324ZM140.358 166.474C137.618 173.004 133.944 179.748 131.515 183.983L143.725 172.598C142.813 170.461 141.665 168.413 140.358 166.474ZM131.164 154.349C134.235 157.022 137.347 160.156 140.011 163.675C142.477 157.377 143.719 151.907 141.816 149.893C140.354 148.345 138.609 148.419 137.403 148.76C134.961 149.44 132.558 151.676 131.164 154.349Z" fill="#D5D5D5"/>
<path d="M112.292 161.884C111.919 161.884 111.617 161.581 111.617 161.208V140.759C111.617 140.386 111.919 140.084 112.292 140.084C112.665 140.084 112.966 140.386 112.966 140.759V161.208C112.965 161.581 112.664 161.884 112.292 161.884Z" fill="#D5D5D5"/>
<path d="M152.928 170.82C150.119 170.82 147.289 169.454 146.043 167.789C145.817 167.492 145.879 167.069 146.176 166.845C146.472 166.621 146.896 166.684 147.119 166.981C148.435 168.732 151.985 170.061 154.771 169.21C157.185 168.477 158.554 166.299 158.731 162.914C158.872 160.256 157.533 157.491 155.561 154.906L149.346 163.351C149.213 163.532 149.018 163.651 148.77 163.625C148.546 163.614 148.341 163.492 148.225 163.297C138.398 146.817 112.407 140.911 112.145 140.853C111.782 140.774 111.552 140.413 111.633 140.049C111.712 139.686 112.066 139.457 112.436 139.536C113.507 139.773 138.391 145.431 148.851 161.747L154.688 153.82C149.806 148.038 142.242 143.406 142.125 143.337C141.878 143.186 141.753 142.894 141.817 142.61C141.883 142.327 142.12 142.118 142.409 142.089L165.257 139.841C165.518 139.813 165.777 139.948 165.908 140.178C166.04 140.409 166.023 140.697 165.866 140.91L156.394 153.776C158.662 156.679 160.244 159.858 160.081 162.985C159.801 168.308 156.881 169.979 155.165 170.499C154.443 170.72 153.685 170.82 152.928 170.82ZM144.471 143.24C146.996 144.927 151.876 148.453 155.512 152.698L163.882 141.329L144.471 143.24Z" fill="#D5D5D5"/>
<path d="M80.2553 123.066C76.5626 123.066 73.2251 121.445 70.9966 118.536C68.8282 115.707 68.0444 112.101 68.9967 109.35C71.0062 103.547 75.1563 101.995 79.168 100.493C82.2418 99.3446 85.1458 98.2586 87.1661 95.3353C89.8944 91.3838 88.9107 88.4208 87.9909 86.9194C87.5924 88.6375 86.6545 91.3742 84.5728 92.8226C83.193 93.7846 81.5447 94.0266 79.6749 93.5498C77.1177 92.8948 75.3635 90.6482 74.7386 87.2228C73.6213 81.1078 76.2556 71.813 82.4586 67.4617C82.6645 67.3185 82.9342 67.3004 83.1569 67.416C83.3796 67.5328 83.5204 67.7627 83.5204 68.0144V70.7089C84.6329 69.246 85.6118 68.1757 86.0187 67.7435V45.5672C86.0187 45.1939 86.321 44.8917 86.6942 44.8917C87.0675 44.8917 87.3685 45.1939 87.3685 45.5672V68.0144C87.3685 68.1902 87.2986 68.3599 87.177 68.4863C87.1445 68.52 85.3156 70.4031 83.5217 73.0278V86.4848C83.5217 86.6726 83.441 86.8544 83.3014 86.9808C83.1629 87.1085 82.9823 87.1783 82.7873 87.1566C82.7126 87.1494 80.9548 86.9772 79.7568 85.4217C78.7707 84.1418 78.4697 82.3455 78.8574 80.0844C79.3101 77.4585 80.7115 74.7928 82.172 72.5992V69.399C77.3199 73.6226 75.0865 81.6267 76.0654 86.982C76.37 88.6496 77.2862 91.5476 80.0084 92.2447C81.5014 92.6264 82.7415 92.4566 83.7986 91.7197C86.4016 89.9101 86.9157 85.3061 86.9206 85.2591C86.947 85.0063 87.1144 84.7896 87.3528 84.6993C87.5912 84.6102 87.8585 84.662 88.0451 84.8329C88.0945 84.8775 92.902 89.4021 88.2739 96.1023C86.014 99.3735 82.774 100.586 79.6412 101.756C75.7487 103.212 72.073 104.587 70.2706 109.792C69.4735 112.091 70.1959 115.276 72.067 117.716C73.3179 119.349 76.1376 122.024 81.0656 121.689C85.7431 121.358 88.1932 117.92 88.871 115.076C89.4297 112.734 89.0576 109.654 86.345 108.034C83.8768 106.56 82.1214 107.529 81.2943 108.24C79.8988 109.439 79.2873 111.433 79.8772 112.876C80.5358 114.492 81.7554 114.946 82.603 114.85C83.1376 114.786 83.5337 114.506 83.5879 114.151C83.7529 113.086 82.2912 112.663 82.2768 112.658C81.918 112.558 81.7085 112.185 81.8096 111.828C81.9096 111.469 82.284 111.262 82.6404 111.36C83.5494 111.616 85.1965 112.57 84.9195 114.356C84.7702 115.334 83.9226 116.051 82.7607 116.188C81.4412 116.34 79.5738 115.703 78.6286 113.387C77.8172 111.399 78.5673 108.803 80.4142 107.218C82.2623 105.632 84.7377 105.503 87.0362 106.877C89.7861 108.519 91.0214 111.861 90.181 115.389C89.396 118.676 86.563 122.651 81.1582 123.034C80.856 123.056 80.555 123.066 80.2553 123.066ZM82.1708 75.1829C81.2485 76.8143 80.4828 78.589 80.1866 80.3131C79.8627 82.1878 80.0782 83.6289 80.8235 84.5993C81.2389 85.1363 81.7554 85.4397 82.1708 85.6095V75.1829Z" fill="#D5D5D5"/>
<path d="M77.9714 118.838C77.816 118.838 77.6607 118.785 77.5343 118.677C77.3741 118.541 73.6321 115.3 73.5551 111.465C73.519 109.712 74.2462 108.13 75.7175 106.768C78.8491 103.867 81.2594 103.078 83.1955 102.444C84.5403 102.004 85.5119 101.686 86.3198 100.785C86.5052 100.576 86.8026 100.506 87.0615 100.604C87.3239 100.704 87.4949 100.954 87.4949 101.234V107.456C87.4949 107.829 87.1939 108.13 86.8195 108.13C86.4487 108.13 86.1453 107.829 86.1453 107.456V102.671C85.3807 103.147 84.5391 103.423 83.6132 103.725C81.8024 104.317 79.5474 105.055 76.6325 107.757C75.4574 108.845 74.8758 110.083 74.9011 111.434C74.9637 114.663 78.3735 117.624 78.4072 117.652C78.6901 117.894 78.7238 118.321 78.4818 118.604C78.3494 118.758 78.1616 118.838 77.9714 118.838Z" fill="#D5D5D5"/>
<path d="M82.845 137.052C82.7391 137.052 82.632 137.027 82.5332 136.977C82.4152 136.915 75.9558 133.507 68.9919 127.655C67.399 130.526 64.7575 132.906 62.0738 133.656C59.862 134.274 57.8177 133.737 56.3187 132.15C53.8602 129.548 55.3687 123.081 58.1451 116.123C56.4872 113.768 55.0473 111.252 53.9601 108.597C53.8554 108.337 53.9191 108.04 54.125 107.848L70.0828 92.9707C70.3296 92.7407 70.7076 92.7287 70.9677 92.9406C71.2277 93.1549 71.2928 93.527 71.117 93.8147C68.2069 98.5873 63.0695 107.794 59.6935 115.979C62.3061 119.566 65.4269 122.763 68.526 125.488C68.7162 124.991 68.8691 124.486 68.9775 123.978C69.4109 121.965 69.3567 119.086 66.6393 116.811C66.3515 116.573 66.3143 116.148 66.5551 115.862C66.791 115.578 67.2172 115.536 67.5026 115.778C70.0286 117.891 71.0194 120.904 70.297 124.264C70.1381 124.99 69.9045 125.711 69.6011 126.415C74.9685 130.959 80.0842 134.047 82.172 135.237V114.06C82.172 113.687 82.473 113.386 82.8462 113.386C83.2194 113.386 83.5217 113.687 83.5217 114.06V136.378C83.5217 136.613 83.3989 136.832 83.1954 136.955C83.087 137.019 82.9654 137.052 82.845 137.052ZM59.106 117.439C56.6354 123.737 55.3952 129.207 57.2975 131.223C58.758 132.77 60.5037 132.694 61.7101 132.356C64.1506 131.674 66.555 129.437 67.9517 126.764C64.8779 124.093 61.7656 120.957 59.106 117.439ZM55.3868 108.514C56.2983 110.651 57.4469 112.698 58.7544 114.638C61.4935 108.108 65.1704 101.363 67.5977 97.1281L55.3868 108.514Z" fill="#D5D5D5"/>
<path d="M86.8206 141.028C86.4498 141.028 86.1464 140.726 86.1464 140.353V119.904C86.1464 119.531 86.4498 119.23 86.8206 119.23C87.1951 119.23 87.496 119.531 87.496 119.904V140.353C87.4948 140.726 87.1939 141.028 86.8206 141.028Z" fill="#D5D5D5"/>
<path d="M86.8218 141.595C86.7737 141.595 86.7268 141.589 86.6762 141.578C85.6046 141.342 60.7193 135.683 50.2602 119.366L44.4113 127.278C49.2923 133.068 56.8726 137.709 56.987 137.778C57.2338 137.929 57.3602 138.221 57.2952 138.506C57.229 138.789 56.9894 138.999 56.7005 139.027L33.8535 141.182C33.585 141.217 33.3333 141.074 33.2033 140.844C33.0721 140.613 33.0902 140.324 33.2479 140.112L42.7028 127.321C40.4441 124.424 38.8681 121.251 39.0331 118.129C39.3124 112.808 42.2333 111.136 43.9477 110.615C47.3502 109.58 51.4883 111.212 53.0716 113.327C53.2967 113.624 53.2353 114.047 52.9367 114.269C52.6394 114.492 52.2143 114.433 51.994 114.134C50.6792 112.383 47.1287 111.059 44.3415 111.905C41.9287 112.639 40.5597 114.816 40.3815 118.2C40.2419 120.854 41.5735 123.611 43.5384 126.192L49.7691 117.764C49.9027 117.583 50.1158 117.489 50.3445 117.491C50.5709 117.502 50.7744 117.625 50.8899 117.819C60.7169 134.299 86.7075 140.204 86.97 140.262C87.3336 140.343 87.5635 140.703 87.4817 141.066C87.4106 141.381 87.1313 141.595 86.8218 141.595ZM43.583 128.396L35.2273 139.698L54.6307 137.866C52.0999 136.173 47.2166 132.645 43.583 128.396Z" fill="#D5D5D5"/>
<path d="M86.693 236.222C86.3198 236.222 86.0176 235.919 86.0176 235.546V213.37C85.6106 212.939 84.6318 211.866 83.5193 210.403V213.098C83.5193 213.349 83.3785 213.579 83.1569 213.696C82.9318 213.812 82.6644 213.796 82.4573 213.649C76.2568 209.3 73.6201 200.008 74.7362 193.893C75.3623 190.465 77.1153 188.218 79.6738 187.562C81.546 187.083 83.1942 187.33 84.5728 188.289C86.6533 189.739 87.5912 192.477 87.9897 194.194C88.9108 192.692 89.8932 189.728 87.165 185.779C85.1447 182.853 82.2395 181.767 79.1669 180.619C75.154 179.119 71.005 177.567 68.9956 171.763C68.0432 169.012 68.827 165.405 70.9978 162.577C73.407 159.431 77.1092 157.792 81.1594 158.08C86.563 158.462 89.3972 162.437 90.1822 165.724C91.0214 169.254 89.7885 172.595 87.0373 174.24C84.7389 175.614 82.2635 175.486 80.4154 173.898C78.5685 172.311 77.8184 169.717 78.6299 167.73C79.5738 165.412 81.4497 164.776 82.762 164.928C83.9239 165.063 84.7714 165.783 84.9207 166.759C85.1977 168.545 83.5506 169.5 82.6416 169.755C82.284 169.858 81.9107 169.648 81.8108 169.288C81.7097 168.931 81.918 168.56 82.2744 168.459C82.3466 168.437 83.7516 168.013 83.5891 166.964C83.5349 166.61 83.1388 166.33 82.6042 166.267C81.7566 166.17 80.537 166.625 79.8784 168.239C79.2885 169.683 79.9001 171.676 81.2955 172.876C82.1239 173.588 83.8769 174.562 86.3463 173.083C89.0589 171.464 89.4309 168.383 88.8722 166.04C88.1932 163.196 85.7419 159.759 81.0668 159.429C76.1473 159.078 73.3203 161.767 72.0681 163.399C70.1971 165.84 69.4747 169.026 70.2718 171.324C72.0742 176.529 75.7499 177.904 79.6388 179.359C82.774 180.531 86.014 181.743 88.2751 185.016C92.9032 191.714 88.0957 196.239 88.0463 196.284C87.8597 196.457 87.5924 196.507 87.354 196.416C87.1156 196.326 86.9482 196.108 86.9218 195.855C86.9169 195.81 86.4029 191.206 83.801 189.397C82.7427 188.662 81.5026 188.488 80.0097 188.871C77.2863 189.568 76.3712 192.47 76.0654 194.136C75.089 199.491 77.3224 207.496 82.1732 211.717V208.518C80.7128 206.323 79.3114 203.658 78.8587 201.033C78.471 198.771 78.7719 196.977 79.758 195.695C80.9548 194.141 82.7138 193.968 82.7885 193.961C82.9751 193.951 83.1641 194.01 83.3026 194.136C83.441 194.264 83.5229 194.444 83.5229 194.635V208.088C85.3168 210.714 87.1457 212.596 87.1782 212.629C87.301 212.755 87.3696 212.924 87.3696 213.101V235.55C87.3672 235.919 87.0662 236.222 86.693 236.222ZM82.1708 195.506C81.7506 195.678 81.2269 195.984 80.8115 196.533C80.0758 197.502 79.8652 198.939 80.1855 200.801C80.4804 202.525 81.2486 204.298 82.1696 205.93L82.1708 195.506Z" fill="#D5D5D5"/>
<path d="M86.8207 180.554C86.634 180.554 86.4498 180.476 86.3198 180.327C85.5131 179.427 84.5415 179.109 83.1966 178.668C81.2594 178.036 78.8491 177.246 75.7175 174.342C74.2486 172.981 73.519 171.401 73.5551 169.648C73.6309 165.811 77.3741 162.571 77.5343 162.436C77.816 162.193 78.241 162.228 78.483 162.511C78.725 162.794 78.6925 163.219 78.4084 163.461C78.3747 163.49 74.965 166.453 74.9024 169.681C74.8771 171.031 75.4598 172.267 76.6337 173.355C79.5486 176.058 81.8036 176.796 83.6144 177.39C84.5403 177.692 85.3819 177.966 86.1464 178.442V173.66C86.1464 173.287 86.4498 172.986 86.8207 172.986C87.1951 172.986 87.4961 173.287 87.4961 173.66V179.88C87.4961 180.159 87.3239 180.411 87.0626 180.509C86.9832 180.539 86.9025 180.554 86.8207 180.554Z" fill="#D5D5D5"/>
<path d="M70.5403 188.324C70.3754 188.324 70.2116 188.264 70.0816 188.144L54.1239 173.265C53.918 173.073 53.8542 172.776 53.9589 172.517C55.0449 169.862 56.4861 167.347 58.144 164.99C55.3676 158.036 53.8602 151.569 56.3175 148.966C57.8165 147.379 59.8633 146.842 62.0727 147.46C64.7563 148.211 67.3967 150.591 68.9908 153.46C75.9558 147.608 82.4141 144.199 82.532 144.138C82.7427 144.027 82.9908 144.036 83.1931 144.16C83.3965 144.282 83.5193 144.5 83.5193 144.736V167.055C83.5193 167.428 83.2172 167.73 82.8439 167.73C82.4707 167.73 82.1697 167.428 82.1697 167.055V145.879C80.082 147.068 74.965 150.158 69.5988 154.702C69.9022 155.405 70.1358 156.127 70.2947 156.854C71.0171 160.212 70.025 163.226 67.5002 165.339C67.2161 165.577 66.7887 165.539 66.5527 165.256C66.3131 164.971 66.3492 164.544 66.637 164.305C69.3556 162.029 69.4097 159.152 68.9751 157.137C68.8643 156.631 68.7138 156.125 68.5236 155.629C65.4245 158.353 62.3038 161.551 59.6911 165.138C63.0683 173.321 68.2046 182.527 71.1146 187.3C71.2904 187.588 71.2254 187.961 70.9653 188.174C70.8437 188.275 70.692 188.324 70.5403 188.324ZM55.3869 172.598L67.5966 183.983C65.1693 179.751 61.4947 173.004 58.7532 166.476C57.4469 168.414 56.2983 170.461 55.3869 172.598ZM60.3184 148.558C59.3456 148.558 58.2608 148.873 57.2976 149.892C55.3953 151.906 56.6354 157.376 59.1048 163.674C61.7656 160.155 64.878 157.021 67.9506 154.348C66.5563 151.675 64.1519 149.439 61.7102 148.758C61.2985 148.643 60.8229 148.558 60.3184 148.558Z" fill="#D5D5D5"/>
<path d="M86.8206 161.884C86.4498 161.884 86.1464 161.581 86.1464 161.208V140.759C86.1464 140.386 86.4498 140.084 86.8206 140.084C87.1951 140.084 87.496 140.386 87.496 140.759V161.208C87.4948 161.581 87.1939 161.884 86.8206 161.884Z" fill="#D5D5D5"/>
<path d="M46.1859 170.82C45.4274 170.82 44.6713 170.72 43.9477 170.499C42.2332 169.978 39.3124 168.308 39.033 162.985C38.8681 159.857 40.4513 156.679 42.7184 153.776L33.2479 140.91C33.0914 140.696 33.0721 140.409 33.2045 140.178C33.3358 139.948 33.5946 139.812 33.8583 139.841L56.704 142.089C56.993 142.116 57.2314 142.326 57.2964 142.61C57.3602 142.893 57.2349 143.186 56.9881 143.337C56.8725 143.406 49.3079 148.039 44.4257 153.822L50.2615 161.747C60.7229 145.431 85.6058 139.773 86.6773 139.536C87.0433 139.457 87.4009 139.686 87.4804 140.049C87.5623 140.413 87.3323 140.774 86.9687 140.853C86.7062 140.911 60.7109 146.825 50.8887 163.297C50.7731 163.492 50.5673 163.615 50.3433 163.625C50.1121 163.651 49.9002 163.533 49.7666 163.351L43.5516 154.908C41.5807 157.493 40.2418 160.258 40.3815 162.914C40.5597 166.3 41.9286 168.477 44.3414 169.21C47.1299 170.059 50.6804 168.733 51.994 166.981C52.2179 166.684 52.6417 166.622 52.9367 166.845C53.2353 167.07 53.2967 167.492 53.0715 167.789C51.8242 169.453 48.9936 170.82 46.1859 170.82ZM35.2308 141.329L43.5997 152.698C47.237 148.453 52.1156 144.927 54.6416 143.24L35.2308 141.329Z" fill="#D5D5D5"/>
<path d="M99.3879 153.423C99.2145 153.423 99.0423 153.357 98.9111 153.226L86.5149 140.831C86.3896 140.704 86.3186 140.533 86.3186 140.354C86.3186 140.176 86.3896 140.003 86.5149 139.877L98.9111 127.482C99.1748 127.218 99.601 127.218 99.8646 127.482L112.261 139.877C112.386 140.002 112.458 140.174 112.458 140.354C112.458 140.533 112.386 140.704 112.261 140.831L99.8646 153.226C99.7322 153.358 99.56 153.423 99.3879 153.423ZM87.9452 140.354L99.3879 151.797L110.831 140.354L99.3879 128.912L87.9452 140.354Z" fill="#D5D5D5"/>
</svg>
