<svg width="200" height="280" viewBox="0 0 200 280" fill="none" xmlns="http://www.w3.org/2000/svg">
<path d="M189.557 140.111C189.25 140.111 189.001 139.863 189.001 139.556V127.059L183.368 117.617C183.316 117.531 183.288 117.433 183.288 117.333V108.722C183.288 108.414 183.539 108.165 183.845 108.165H186.017V82.8325C185.62 82.4139 184.569 81.2689 183.393 79.6993V82.6093C183.393 82.8167 183.278 83.0062 183.093 83.1024C182.91 83.1987 182.689 83.1838 182.518 83.0647C176.533 78.8659 173.989 69.8939 175.067 63.9886C175.667 60.7036 177.342 58.5516 179.783 57.9266C181.569 57.4682 183.143 57.7003 184.456 58.6161C186.546 60.0716 187.436 62.8923 187.786 64.5174C188.721 63.1115 189.917 60.1073 187.109 56.0415C185.132 53.1791 182.3 52.1215 179.304 51.0003C175.432 49.5518 171.428 48.0546 169.492 42.4658C168.578 39.8257 169.335 36.3641 171.418 33.6436C173.737 30.6186 177.305 29.0371 181.195 29.3188C186.388 29.6859 189.109 33.5047 189.86 36.6618C190.666 40.042 189.485 43.2427 186.855 44.8143C184.629 46.1447 182.328 46.0267 180.544 44.4938C178.785 42.9808 178.066 40.5113 178.839 38.6203C179.733 36.4236 181.508 35.8184 182.745 35.9613C183.828 36.0893 184.617 36.755 184.754 37.6569C185.011 39.3217 183.465 40.2137 182.614 40.4538C182.317 40.5341 182.015 40.3645 181.93 40.0698C181.847 39.7761 182.018 39.4696 182.311 39.3842C182.374 39.3664 183.827 38.9328 183.657 37.8256C183.598 37.4366 183.179 37.132 182.615 37.0646C181.754 36.9594 180.527 37.4208 179.867 39.039C179.28 40.4766 179.882 42.4589 181.268 43.6495C182.667 44.852 184.496 44.9304 186.286 43.8598C188.526 42.5204 189.481 39.8615 188.78 36.9187C188.115 34.1268 185.709 30.7515 181.118 30.4261C176.305 30.0907 173.529 32.7189 172.3 34.3183C170.466 36.7124 169.757 39.8396 170.542 42.1017C172.307 47.1954 175.895 48.5368 179.694 49.9586C182.72 51.0906 185.848 52.2594 188.024 55.4085C192.468 61.8406 187.865 66.1733 187.818 66.217C187.664 66.3579 187.442 66.4025 187.246 66.3251C187.05 66.2507 186.913 66.0721 186.891 65.8638C186.886 65.8181 186.383 61.3068 183.82 59.5249C182.782 58.8036 181.519 58.627 180.06 59.001C178.063 59.513 176.679 61.3534 176.161 64.187C175.196 69.4693 177.436 77.3966 182.281 81.4803V78.1297C180.864 76.0046 179.503 73.423 179.066 70.8791C178.692 68.7132 178.98 66.9968 179.918 65.7765C181.053 64.3021 182.717 64.1384 182.789 64.1325C182.942 64.1156 183.098 64.1712 183.213 64.2763C183.328 64.3815 183.394 64.5303 183.394 64.6861V77.7716C185.148 80.3413 186.937 82.1857 186.969 82.2184C187.071 82.3216 187.127 82.4615 187.127 82.6073V108.164H189.556C189.777 108.164 189.978 108.296 190.066 108.499C190.155 108.702 190.113 108.937 189.963 109.099L186.978 112.294C186.822 112.461 186.581 112.516 186.369 112.431C186.156 112.347 186.018 112.143 186.018 111.915V109.275H184.401V117.178L190.035 126.619C190.087 126.706 190.112 126.804 190.112 126.904V139.554C190.111 139.863 189.864 140.111 189.557 140.111ZM187.127 109.278V110.509L188.278 109.278H187.127ZM182.282 65.3965C181.846 65.5532 181.252 65.8658 180.789 66.471C180.056 67.4353 179.846 68.8551 180.161 70.6936C180.471 72.4923 181.302 74.3437 182.282 76.0224V65.3965Z" fill="#E3B261"/>
<path d="M186.697 50.9319C186.543 50.9319 186.39 50.8674 186.283 50.7463C185.483 49.8534 184.529 49.5409 183.21 49.1093C181.34 48.4981 179.012 47.7361 175.989 44.9343C174.584 43.6316 173.889 42.1245 173.923 40.4518C173.997 36.7729 177.595 33.6555 177.748 33.5256C177.982 33.3261 178.333 33.3549 178.532 33.5871C178.731 33.8202 178.704 34.1714 178.471 34.3709C178.436 34.3986 175.094 37.3007 175.032 40.4776C175.007 41.818 175.582 43.0433 176.743 44.1198C179.589 46.7559 181.788 47.4752 183.555 48.0536C184.506 48.3652 185.368 48.6469 186.139 49.1629V44.341C186.139 44.0334 186.389 43.7854 186.696 43.7854C187.004 43.7854 187.251 44.0334 187.251 44.341V50.3772C187.251 50.6074 187.11 50.8138 186.895 50.8962C186.831 50.92 186.763 50.9319 186.697 50.9319Z" fill="#E3B261"/>
<path d="M182.837 38.4863C182.531 38.4863 182.281 38.2383 182.281 37.9307V16.8296H161.181C160.875 16.8296 160.625 16.5816 160.625 16.274C160.625 15.9665 160.875 15.7174 161.181 15.7174H182.836C183.145 15.7174 183.393 15.9665 183.393 16.274V37.9297C183.394 38.2383 183.146 38.4863 182.837 38.4863Z" fill="#E3B261"/>
<path d="M159.038 30.0014C158.198 30.0014 157.388 29.8764 156.645 29.6185C151.057 27.6828 149.559 23.6804 148.111 19.8071C146.99 16.8098 145.931 13.9792 143.07 12.0018C138.979 9.17616 135.982 10.3836 134.585 11.3232C136.21 11.6744 139.037 12.5604 140.496 14.6538C141.411 15.9684 141.643 17.541 141.186 19.3278C140.559 21.7705 138.405 23.4443 135.122 24.0436C129.213 25.124 120.246 22.5781 116.046 16.5925C115.927 16.4228 115.912 16.2006 116.009 16.017C116.106 15.8335 116.294 15.7174 116.503 15.7174H119.411C117.842 14.5417 116.697 13.491 116.279 13.0951H94.721C94.4144 13.0951 94.1644 12.8461 94.1644 12.5386C94.1644 12.231 94.4144 11.9829 94.721 11.9829H116.503C116.648 11.9829 116.786 12.0405 116.892 12.1407C116.923 12.1734 118.769 13.9633 121.337 15.7164H134.423C134.579 15.7164 134.729 15.7819 134.833 15.898C134.938 16.0131 134.991 16.1669 134.977 16.3216C134.971 16.3921 134.807 18.0559 133.333 19.1919C132.112 20.1315 130.398 20.4182 128.229 20.0462C125.686 19.6086 123.104 18.2464 120.978 16.8286H117.63C121.712 21.6753 129.644 23.9156 134.922 22.9512C137.754 22.4343 139.596 21.0492 140.109 19.051C140.482 17.5916 140.305 16.3266 139.583 15.2888C137.793 12.7201 133.291 12.225 133.245 12.2201C133.037 12.1992 132.858 12.0613 132.784 11.8659C132.709 11.6694 132.751 11.4482 132.893 11.2934C132.934 11.2458 137.268 6.64219 143.701 11.087C146.85 13.2618 148.019 16.3911 149.151 19.4172C150.571 23.2141 151.913 26.8017 157.007 28.5668C159.268 29.3516 162.397 28.6451 164.79 26.8097C166.389 25.5834 169.024 22.8063 168.683 17.9924C168.359 13.4007 164.982 10.9958 162.19 10.33C159.249 9.62757 156.588 10.585 155.249 12.8243C154.181 14.6131 154.256 16.4417 155.459 17.8416C156.65 19.2266 158.633 19.8319 160.07 19.2435C161.689 18.5837 162.146 17.3515 162.044 16.4953C161.978 15.9327 161.672 15.513 161.284 15.4535C160.167 15.2789 159.729 16.782 159.725 16.7969C159.642 17.0925 159.336 17.2662 159.04 17.1818C158.744 17.0985 158.572 16.7919 158.654 16.4972C158.895 15.645 159.791 14.0952 161.452 14.3562C162.354 14.4951 163.021 15.2838 163.148 16.3663C163.294 17.6084 162.686 19.3775 160.489 20.2734C158.596 21.0443 156.127 20.326 154.615 18.5659C153.081 16.781 152.965 14.4812 154.295 12.2558C155.865 9.62461 159.065 8.44295 162.448 9.25056C165.605 10.0036 169.422 12.7241 169.79 17.916C170.067 21.8102 168.489 25.374 165.464 27.6927C163.514 29.1898 161.177 30.0014 159.038 30.0014ZM123.091 16.8306C124.768 17.8118 126.623 18.6433 128.419 18.9538C130.257 19.2703 131.679 19.058 132.642 18.3238C133.247 17.8624 133.56 17.2691 133.718 16.8306H123.091Z" fill="#E3B261"/>
<path d="M158.546 25.1925C156.92 25.1925 155.451 24.497 154.18 23.1238C151.378 20.1017 150.617 17.7732 150.005 15.9039C149.573 14.5844 149.262 13.6309 148.367 12.8302C148.195 12.6775 148.137 12.4334 148.219 12.2191C148.301 12.0028 148.508 11.8619 148.737 11.8619H154.774C155.081 11.8619 155.331 12.1099 155.331 12.4175C155.331 12.7251 155.081 12.9731 154.774 12.9731H149.951C150.469 13.745 150.751 14.6072 151.061 15.5597C151.64 17.3257 152.359 19.5253 154.995 22.3698C156.073 23.5316 157.277 24.1031 158.641 24.0812C161.825 24.0168 164.716 20.6772 164.744 20.6434C164.944 20.4103 165.296 20.3835 165.528 20.5819C165.76 20.7814 165.788 21.1316 165.588 21.3647C165.459 21.5185 162.343 25.1171 158.664 25.1915C158.624 25.1915 158.584 25.1925 158.546 25.1925Z" fill="#E3B261"/>
<path d="M186.697 32.8142C186.39 32.8142 186.14 32.5661 186.14 32.2586V12.9721H166.854C166.546 12.9721 166.299 12.7241 166.299 12.4165C166.299 12.109 166.546 11.8609 166.854 11.8609H186.697C187.005 11.8609 187.252 12.109 187.252 12.4165V32.2586C187.251 32.5661 187.004 32.8142 186.697 32.8142Z" fill="#E3B261"/>
<path d="M9.5567 140.111C9.24814 140.111 9.0011 139.863 9.0011 139.556V126.906C9.0011 126.805 9.02684 126.707 9.07843 126.621L14.7129 117.18V109.277H13.0957V111.917C13.0957 112.144 12.9568 112.349 12.7444 112.433C12.5331 112.518 12.2911 112.463 12.1353 112.295L9.15091 109.101C9.00011 108.939 8.95843 108.704 9.04773 108.501C9.13603 108.298 9.33642 108.166 9.55767 108.166H11.9865V82.6093C11.9865 82.4645 12.044 82.3246 12.1442 82.2204C12.1769 82.1876 13.9668 80.3422 15.7199 77.7736V64.6881C15.7199 64.5323 15.7844 64.3835 15.9005 64.2783C16.0156 64.1741 16.1684 64.1186 16.3242 64.1345C16.3956 64.1404 18.0604 64.3041 19.1954 65.7784C20.134 66.9978 20.4217 68.7152 20.0477 70.8811C19.6102 73.424 18.2489 76.0065 16.8321 78.1317V81.4822C21.6778 77.3995 23.9181 69.4722 22.9527 64.189C22.4358 61.3564 21.0507 59.515 19.0535 59.003C17.5951 58.629 16.3311 58.8066 15.2933 59.5269C12.7306 61.3088 12.2275 65.8201 12.2226 65.8658C12.2007 66.0741 12.0638 66.2527 11.8674 66.3271C11.6739 66.4035 11.4497 66.3589 11.2959 66.219C11.2483 66.1753 6.64567 61.8436 11.0885 55.4105C13.2643 52.2614 16.3936 51.0916 19.4187 49.9606C23.2176 48.5388 26.8043 47.1974 28.5703 42.1037C29.3541 39.8426 28.6457 36.7143 26.8122 34.3203C25.5849 32.7209 22.8029 30.0878 17.9959 30.4281C13.4033 30.7535 10.9973 34.1278 10.3325 36.9207C9.6311 39.8634 10.5865 42.5224 12.8268 43.8618C14.6186 44.9323 16.4452 44.854 17.8441 43.6515C19.2302 42.4609 19.8324 40.4786 19.2461 39.0419C18.5863 37.4227 17.351 36.9604 16.4978 37.0666C15.9342 37.133 15.5146 37.4386 15.456 37.8275C15.2834 38.9467 16.7845 39.3812 16.7994 39.3862C17.0951 39.4686 17.2677 39.7761 17.1844 40.0708C17.102 40.3665 16.7974 40.5391 16.4998 40.4557C15.6485 40.2156 14.1027 39.3227 14.3597 37.6589C14.4976 36.757 15.2863 36.0913 16.3688 35.9633C17.6169 35.8234 19.38 36.4266 20.2749 38.6232C21.0478 40.5133 20.3295 42.9828 18.5694 44.4958C16.7825 46.0277 14.4827 46.1457 12.2583 44.8163C9.6281 43.2447 8.44745 40.044 9.25307 36.6637C10.0051 33.5057 12.7256 29.6879 17.9185 29.3208C21.8048 29.0391 25.3756 30.6215 27.6952 33.6456C29.7797 36.3651 30.5358 39.8267 29.622 42.4678C27.6853 48.0566 23.6829 49.5538 19.8096 51.0023C16.8123 52.1235 13.9817 53.1811 12.0043 56.0435C9.19653 60.1093 10.3921 63.1135 11.3277 64.5194C11.6789 62.8933 12.5679 60.0736 14.6573 58.6181C15.971 57.7023 17.5445 57.4731 19.3303 57.9285C21.772 58.5536 23.4468 60.7066 24.0461 63.9906C25.1246 69.8949 22.5807 78.8669 16.596 83.0667C16.4263 83.1858 16.2031 83.2006 16.0205 83.1044C15.836 83.0082 15.7209 82.8187 15.7209 82.6113V79.7013C14.5442 81.2709 13.4945 82.4158 13.0967 82.8345V108.167H15.2685C15.5751 108.167 15.8251 108.416 15.8251 108.724V117.335C15.8251 117.436 15.7973 117.533 15.7457 117.619L10.1123 127.061V139.558C10.1113 139.863 9.86228 140.111 9.5567 140.111ZM10.8346 109.278L11.9855 110.509V109.278H10.8346ZM16.8311 65.3965V76.0224C17.8104 74.3437 18.6428 72.4913 18.9524 70.6936C19.2679 68.8551 19.0575 67.4353 18.3243 66.471C17.862 65.8648 17.2687 65.5532 16.8311 65.3965Z" fill="#E3B261"/>
<path d="M12.4171 50.9319C12.3506 50.9319 12.2821 50.92 12.2186 50.8962C12.0023 50.8138 11.8624 50.6074 11.8624 50.3773V44.341C11.8624 44.0334 12.1095 43.7854 12.418 43.7854C12.7246 43.7854 12.9746 44.0334 12.9746 44.341V49.1629C13.7455 48.646 14.6077 48.3652 15.5582 48.0536C17.3252 47.4752 19.5248 46.7559 22.3703 44.1198C23.5321 43.0423 24.1086 41.816 24.0808 40.4746C24.0183 37.2888 20.6777 34.3996 20.644 34.3709C20.4108 34.1714 20.3821 33.8212 20.5815 33.5881C20.7809 33.3549 21.1331 33.3261 21.3653 33.5256C21.519 33.6565 25.1166 36.7729 25.191 40.4518C25.2248 42.1245 24.5292 43.6316 23.1244 44.9343C20.1013 47.7362 17.7727 48.4981 15.9035 49.1093C14.5849 49.5419 13.6305 49.8534 12.8308 50.7463C12.7226 50.8664 12.5708 50.9319 12.4171 50.9319Z" fill="#E3B261"/>
<path d="M16.2755 38.4863C15.967 38.4863 15.719 38.2383 15.719 37.9307V16.275C15.719 15.9674 15.967 15.7184 16.2755 15.7184H37.9302C38.2368 15.7184 38.4869 15.9674 38.4869 16.275C38.4869 16.5826 38.2368 16.8306 37.9302 16.8306H16.8302V37.9317C16.8312 38.2383 16.5811 38.4863 16.2755 38.4863Z" fill="#E3B261"/>
<path d="M40.0752 30.0014C37.9361 30.0014 35.6006 29.1898 33.6471 27.6927C30.622 25.374 29.0435 21.8102 29.3213 17.916C29.6894 12.7241 33.5072 10.0026 36.6633 9.25057C40.0455 8.44395 43.2452 9.62461 44.8168 12.2558C46.1463 14.4812 46.0302 16.782 44.4963 18.5659C42.9843 20.325 40.5158 21.0453 38.6227 20.2734C36.4251 19.3785 35.8179 17.6085 35.9638 16.3663C36.0908 15.2828 36.7575 14.4941 37.6593 14.3562C39.3242 14.0952 40.2171 15.645 40.4572 16.4972C40.5396 16.7919 40.3679 17.0965 40.0723 17.1799C39.7816 17.2662 39.472 17.0935 39.3867 16.7989C39.3698 16.7364 38.9412 15.2878 37.829 15.4545C37.4391 15.514 37.1345 15.9327 37.067 16.4963C36.9658 17.3515 37.4222 18.5837 39.0414 19.2445C40.4781 19.8299 42.4614 19.2277 43.6529 17.8426C44.8554 16.4437 44.9308 14.6141 43.8623 12.8253C42.5239 10.586 39.8659 9.62858 36.9212 10.331C34.1303 10.9968 30.754 13.4017 30.4286 17.9934C30.0873 22.8073 32.7224 25.5834 34.3218 26.8107C36.7149 28.6462 39.8421 29.3516 42.1042 28.5678C47.1989 26.8037 48.5403 23.2151 49.9601 19.4181C51.0931 16.3911 52.2619 13.2628 55.411 11.088C61.8431 6.64518 66.1768 11.2468 66.2185 11.2944C66.3604 11.4492 66.404 11.6704 66.3276 11.8659C66.2532 12.0623 66.0746 12.2002 65.8663 12.2211C65.8206 12.226 61.3093 12.7281 59.5274 15.2918C58.8051 16.3296 58.6295 17.5946 59.0025 19.052C59.5155 21.0502 61.3569 22.4343 64.1895 22.9522C69.4688 23.9176 77.399 21.6763 81.4817 16.8296H78.1332C76.008 18.2474 73.4265 19.6096 70.8826 20.0472C68.7137 20.4192 67.0003 20.1325 65.779 19.1929C64.3046 18.0569 64.1409 16.3941 64.1349 16.3226C64.121 16.1679 64.1726 16.0141 64.2788 15.899C64.383 15.7839 64.5328 15.7174 64.6886 15.7174H77.776C80.3457 13.9643 82.1882 12.1754 82.2199 12.1427C82.3241 12.0405 82.463 11.984 82.6089 11.984H104.391C104.697 11.984 104.947 12.232 104.947 12.5396C104.947 12.8471 104.697 13.0962 104.391 13.0962H82.8321C82.4144 13.491 81.2704 14.5427 79.7008 15.7184H82.6089C82.8172 15.7184 83.0057 15.8345 83.1029 16.018C83.1992 16.2026 83.1843 16.4238 83.0652 16.5935C78.8664 22.5791 69.9003 25.125 63.9891 24.0446C60.7051 23.4453 58.5521 21.7715 57.926 19.3289C57.4687 17.542 57.7008 15.9694 58.6156 14.6548C60.0721 12.5654 62.8918 11.6774 64.5179 11.3262C63.1131 10.3916 60.1088 9.19501 56.042 12.0028C53.1806 13.9802 52.122 16.8118 51.0008 19.8081C49.5523 23.6804 48.0542 27.6838 42.4664 29.6195C41.7252 29.8764 40.9146 30.0014 40.0752 30.0014ZM65.395 16.8306C65.5527 17.2681 65.8652 17.8625 66.4705 18.3238C67.4338 19.058 68.8556 19.2703 70.6941 18.9538C72.4928 18.6433 74.3462 17.8128 76.0239 16.8306H65.395Z" fill="#E3B261"/>
<path d="M40.5674 25.1925C40.5297 25.1925 40.49 25.1915 40.4513 25.1915C36.7724 25.1171 33.6561 21.5185 33.5271 21.3647C33.3277 21.1326 33.3545 20.7814 33.5876 20.5819C33.8198 20.3845 34.171 20.4103 34.3714 20.6434C34.3992 20.6772 37.3012 24.0187 40.4781 24.0812C41.7858 24.11 43.0428 23.5316 44.1203 22.3698C46.7565 19.5253 47.4758 17.3257 48.0542 15.5597C48.3648 14.6072 48.6465 13.745 49.1644 12.9731H44.3416C44.035 12.9731 43.785 12.7251 43.785 12.4175C43.785 12.1099 44.035 11.8619 44.3416 11.8619H50.3788C50.608 11.8619 50.8144 12.0038 50.8967 12.2191C50.9791 12.4334 50.9195 12.6775 50.7489 12.8302C49.8539 13.6309 49.5415 14.5844 49.1109 15.9039C48.4987 17.7741 47.7377 20.1017 44.9359 23.1238C43.663 24.497 42.1926 25.1925 40.5674 25.1925Z" fill="#E3B261"/>
<path d="M12.4171 32.8142C12.1085 32.8142 11.8615 32.5661 11.8615 32.2586V12.4165C11.8615 12.109 12.1085 11.8609 12.4171 11.8609H32.2591C32.5676 11.8609 32.8147 12.109 32.8147 12.4165C32.8147 12.7241 32.5676 12.9721 32.2591 12.9721H12.9736V32.2586C12.9726 32.5661 12.7226 32.8142 12.4171 32.8142Z" fill="#E3B261"/>
<path d="M18.7867 249.823C18.4979 249.823 18.2082 249.813 17.9165 249.793C12.7236 249.425 10.0021 245.607 9.25107 242.449C8.44544 239.07 9.62609 235.869 12.2563 234.297C14.4837 232.969 16.7835 233.086 18.5674 234.619C20.3265 236.13 21.0458 238.6 20.2729 240.491C19.378 242.688 17.6099 243.304 16.3668 243.149C15.2833 243.022 14.4946 242.356 14.3577 241.454C14.1007 239.79 15.6465 238.898 16.4978 238.658C16.7924 238.573 17.097 238.747 17.1814 239.042C17.2647 239.336 17.094 239.642 16.8004 239.727C16.7379 239.745 15.2843 240.179 15.455 241.285C15.5135 241.673 15.9323 241.979 16.4968 242.047C17.3491 242.142 18.5842 241.69 19.245 240.073C19.8314 238.635 19.2292 236.654 17.8431 235.462C16.4452 234.261 14.6176 234.183 12.8258 235.253C10.5855 236.59 9.63006 239.249 10.3315 242.193C10.9963 244.984 13.4023 248.36 17.995 248.685C22.8148 249.031 25.5829 246.392 26.8112 244.792C28.6457 242.397 29.3541 239.271 28.5693 237.01C26.8052 231.915 23.2166 230.575 19.4187 229.153C16.3916 228.021 13.2633 226.851 11.0885 223.702C6.64467 217.271 11.2473 212.938 11.2949 212.896C11.4487 212.754 11.673 212.712 11.8664 212.786C12.0629 212.861 12.1998 213.04 12.2216 213.249C12.2265 213.295 12.7295 217.805 15.2923 219.587C16.3311 220.31 17.5971 220.484 19.0526 220.111C21.0498 219.598 22.4338 217.757 22.9517 214.924C23.9171 209.642 21.6768 201.714 16.8311 197.632V200.982C18.2489 203.107 19.6092 205.689 20.0467 208.233C20.4208 210.399 20.133 212.114 19.1944 213.334C18.0594 214.81 16.3955 214.972 16.3231 214.979C16.1673 214.991 16.0146 214.94 15.8995 214.835C15.7844 214.73 15.7189 214.581 15.7189 214.426V201.338C13.9648 198.77 12.176 196.926 12.1432 196.892C12.042 196.789 11.9855 196.649 11.9855 196.503V170.947H9.55669C9.33544 170.947 9.13499 170.816 9.04669 170.612C8.9574 170.41 8.99907 170.174 9.14988 170.012L12.1343 166.817C12.29 166.652 12.5321 166.597 12.7435 166.68C12.9568 166.764 13.0947 166.969 13.0947 167.197V169.835H14.7119V161.933L9.07745 152.491C9.02586 152.404 9.00006 152.306 9.00006 152.206V139.557C9.00006 139.249 9.2471 139 9.55566 139C9.86224 139 10.1113 139.249 10.1113 139.557V152.054L15.7447 161.496C15.7963 161.582 15.8241 161.681 15.8241 161.78V170.392C15.8241 170.7 15.5741 170.948 15.2675 170.948H13.0957V196.281C13.4915 196.699 14.5432 197.844 15.7199 199.414V196.503C15.7199 196.296 15.835 196.107 16.0195 196.011C16.2021 195.914 16.4234 195.93 16.595 196.049C22.5797 200.248 25.1225 209.219 24.0451 215.124C23.4458 218.409 21.7711 220.561 19.3294 221.187C17.5415 221.644 15.9699 221.412 14.6563 220.497C12.5668 219.042 11.6769 216.221 11.3267 214.595C10.3911 216.002 9.19555 219.005 12.0033 223.071C13.9807 225.934 16.8133 226.992 19.8096 228.113C23.681 229.562 27.6843 231.06 29.6209 236.647C30.5347 239.287 29.7777 242.749 27.6942 245.469C25.5481 248.265 22.3376 249.823 18.7867 249.823ZM16.8311 203.09V213.719C17.2677 213.561 17.862 213.249 18.3243 212.643C19.0575 211.678 19.2678 210.259 18.9523 208.421C18.6428 206.621 17.8104 204.77 16.8311 203.09ZM10.8345 169.834H11.9855V168.605L10.8345 169.834Z" fill="#E3B261"/>
<path d="M21.0041 245.722C20.8483 245.722 20.6926 245.657 20.5804 245.528C20.382 245.296 20.4088 244.944 20.642 244.745C20.6767 244.716 24.0183 241.815 24.0808 238.637C24.1056 237.298 23.5302 236.073 22.3693 234.997C19.5238 232.36 17.3262 231.64 15.5582 231.062C14.6067 230.751 13.7445 230.468 12.9736 229.952V234.775C12.9736 235.082 12.7236 235.331 12.4171 235.331C12.1085 235.331 11.8615 235.082 11.8615 234.775V228.737C11.8615 228.508 12.0023 228.301 12.2176 228.22C12.4319 228.137 12.677 228.196 12.8297 228.367C13.6294 229.261 14.5839 229.573 15.9044 230.004C17.7726 230.617 20.1002 231.379 23.1233 234.179C24.5282 235.482 25.2237 236.99 25.19 238.663C25.1156 242.341 21.5181 245.459 21.3643 245.588C21.2601 245.678 21.1321 245.722 21.0041 245.722Z" fill="#E3B261"/>
<path d="M37.9302 263.394H16.2755C15.967 263.394 15.719 263.145 15.719 262.838V241.182C15.719 240.874 15.967 240.626 16.2755 240.626C16.5811 240.626 16.8311 240.874 16.8311 241.182V262.283H37.9313C38.2378 262.283 38.4878 262.531 38.4878 262.839C38.4878 263.146 38.2368 263.394 37.9302 263.394Z" fill="#E3B261"/>
<path d="M38.7448 270.113C38.0681 270.113 37.3707 270.032 36.6633 269.863C33.5063 269.111 29.6894 266.391 29.3213 261.199C29.0445 257.304 30.623 253.741 33.6471 251.422C36.3646 249.337 39.8283 248.582 42.4684 249.495C48.0562 251.431 49.5543 255.434 51.0029 259.307C52.124 262.304 53.1826 265.135 56.044 267.112C60.1098 269.921 63.114 268.723 64.5199 267.789C62.8938 267.437 60.0741 266.549 58.6176 264.459C57.7029 263.145 57.4707 261.573 57.9281 259.787C58.5541 257.344 60.7081 255.67 63.9911 255.07C69.8984 253.996 78.8675 256.535 83.0672 262.521C83.1863 262.691 83.2012 262.913 83.105 263.097C83.0077 263.281 82.8192 263.396 82.6108 263.396H79.7009C81.2704 264.573 82.4164 265.624 82.8341 266.021H104.393C104.699 266.021 104.949 266.269 104.949 266.576C104.949 266.884 104.699 267.132 104.393 267.132H82.6108C82.466 267.132 82.3271 267.074 82.2219 266.974C82.1902 266.941 80.3448 265.15 77.7751 263.398H64.6906C64.5348 263.398 64.385 263.333 64.2808 263.218C64.1757 263.103 64.1241 262.949 64.137 262.793C64.1429 262.723 64.3066 261.058 65.7809 259.923C67.0013 258.985 68.7177 258.697 70.8846 259.069C73.4275 259.507 76.0091 260.868 78.1343 262.286H81.4838C77.402 257.439 69.4718 255.199 64.1915 256.165C61.3599 256.681 59.5175 258.066 59.0046 260.064C58.6315 261.524 58.8081 262.788 59.5304 263.826C61.3192 266.395 65.8226 266.889 65.8683 266.895C66.0766 266.915 66.2552 267.053 66.3296 267.249C66.405 267.445 66.3624 267.667 66.2205 267.822C66.1788 267.869 61.8441 272.472 55.413 268.028C52.2639 265.853 51.0941 262.724 49.9621 259.698C48.5423 255.9 47.2009 252.312 42.1062 250.547C39.8441 249.765 36.7168 250.471 34.3238 252.304C32.7244 253.531 30.0893 256.307 30.4306 261.121C30.756 265.713 34.1313 268.12 36.9232 268.785C39.8679 269.485 42.5259 268.531 43.8643 266.289C44.9329 264.502 44.8575 262.672 43.654 261.272C42.4634 259.887 40.4801 259.284 39.0434 259.87C37.4243 260.531 36.9679 261.763 37.0691 262.619C37.1356 263.182 37.4411 263.601 37.83 263.661C38.9422 263.843 39.3848 262.333 39.3887 262.317C39.4711 262.023 39.7777 261.853 40.0733 261.933C40.37 262.016 40.5416 262.323 40.4593 262.618C40.2182 263.47 39.3222 265.018 37.6614 264.759C36.7595 264.62 36.0938 263.831 35.9658 262.749C35.82 261.507 36.4271 259.738 38.6248 258.842C40.5178 258.071 42.9862 258.79 44.4983 260.55C46.0322 262.335 46.1492 264.635 44.8188 266.861C43.5736 268.939 41.3105 270.113 38.7448 270.113ZM65.392 262.283H76.021C74.3423 261.302 72.4899 260.471 70.6941 260.161C68.8477 259.841 67.421 260.058 66.4576 260.801C65.8524 261.265 65.5458 261.851 65.392 262.283Z" fill="#E3B261"/>
<path d="M50.3767 267.253H44.3395C44.033 267.253 43.7829 267.005 43.7829 266.697C43.7829 266.39 44.033 266.141 44.3395 266.141H49.1623C48.6454 265.369 48.3627 264.508 48.0522 263.554C47.4737 261.788 46.7544 259.588 44.1183 256.745C43.0408 255.584 41.7838 255.046 40.4761 255.033C37.2992 255.096 34.3972 258.438 34.3694 258.471C34.169 258.703 33.8178 258.729 33.5856 258.532C33.3534 258.332 33.3256 257.982 33.525 257.749C33.655 257.596 36.7704 253.998 40.4493 253.923C42.1211 253.924 43.6301 254.585 44.9328 255.99C47.7346 259.013 48.4956 261.342 49.1078 263.21C49.5394 264.529 49.8509 265.483 50.7458 266.283C50.9175 266.437 50.9761 266.68 50.8937 266.897C50.8133 267.11 50.6069 267.253 50.3767 267.253Z" fill="#E3B261"/>
<path d="M32.2591 267.253H12.4171C12.1085 267.253 11.8615 267.005 11.8615 266.697V246.855C11.8615 246.548 12.1085 246.3 12.4171 246.3C12.7236 246.3 12.9736 246.548 12.9736 246.855V266.141H32.2591C32.5676 266.141 32.8147 266.39 32.8147 266.697C32.8147 267.005 32.5666 267.253 32.2591 267.253Z" fill="#E3B261"/>
<path d="M180.327 249.823C176.776 249.823 173.566 248.265 171.42 245.466C169.336 242.747 168.58 239.285 169.494 236.644C171.43 231.057 175.433 229.559 179.305 228.11C182.302 226.989 185.134 225.931 187.111 223.068C189.937 218.979 188.73 215.981 187.789 214.584C187.439 216.21 186.552 219.035 184.458 220.494C183.145 221.409 181.574 221.641 179.785 221.184C177.343 220.558 175.669 218.405 175.069 215.121C173.992 209.217 176.535 200.246 182.52 196.046C182.689 195.927 182.912 195.911 183.095 196.008C183.28 196.104 183.395 196.293 183.395 196.5V199.411C184.571 197.841 185.622 196.696 186.019 196.278V170.945H183.847C183.54 170.945 183.29 170.697 183.29 170.389V161.777C183.29 161.677 183.318 161.579 183.37 161.493L189.003 152.051V139.554C189.003 139.246 189.252 138.997 189.559 138.997C189.867 138.997 190.114 139.246 190.114 139.554V152.203C190.114 152.304 190.089 152.401 190.037 152.488L184.403 161.93V169.832H186.02V167.194C186.02 166.967 186.159 166.761 186.371 166.677C186.583 166.594 186.824 166.649 186.98 166.814L189.965 170.009C190.115 170.171 190.157 170.407 190.068 170.609C189.98 170.813 189.779 170.944 189.558 170.944H187.129V196.5C187.129 196.645 187.072 196.785 186.971 196.889C186.939 196.923 185.149 198.769 183.396 201.337V214.423C183.396 214.578 183.331 214.727 183.215 214.832C183.1 214.936 182.945 214.987 182.791 214.976C182.72 214.969 181.055 214.807 179.92 213.331C178.982 212.112 178.694 210.396 179.068 208.23C179.505 205.687 180.867 203.104 182.283 200.979V197.629C177.438 201.71 175.197 209.638 176.163 214.921C176.68 217.753 178.065 219.595 180.062 220.108C181.521 220.481 182.787 220.303 183.824 219.583C186.392 217.793 186.888 213.292 186.892 213.246C186.914 213.037 187.052 212.858 187.247 212.783C187.442 212.709 187.665 212.751 187.82 212.893C187.867 212.935 192.47 217.267 188.027 223.699C185.851 226.848 182.722 228.019 179.696 229.15C175.898 230.572 172.31 231.912 170.545 237.007C169.761 239.267 170.47 242.394 172.303 244.789C173.531 246.389 176.302 249.032 181.121 248.682C185.712 248.357 188.118 244.982 188.783 242.19C189.484 239.246 188.529 236.587 186.289 235.25C184.499 234.18 182.671 234.258 181.271 235.459C179.885 236.651 179.283 238.632 179.87 240.07C180.529 241.687 181.756 242.139 182.618 242.044C183.181 241.977 183.601 241.67 183.66 241.282C183.832 240.164 182.331 239.73 182.316 239.726C182.02 239.641 181.848 239.335 181.931 239.04C182.014 238.745 182.322 238.574 182.616 238.655C183.467 238.895 185.013 239.788 184.756 241.451C184.618 242.353 183.829 243.02 182.747 243.147C181.503 243.295 179.736 242.685 178.841 240.488C178.068 238.597 178.786 236.127 180.546 234.616C182.33 233.083 184.631 232.966 186.857 234.294C189.487 235.866 190.668 239.067 189.862 242.446C189.11 245.605 186.39 249.422 181.197 249.79C180.906 249.814 180.616 249.823 180.327 249.823ZM182.282 203.092C181.303 204.771 180.471 206.624 180.161 208.421C179.844 210.268 180.058 211.693 180.8 212.657C181.265 213.261 181.851 213.568 182.282 213.722V203.092ZM187.127 169.834H188.278L187.127 168.605V169.834Z" fill="#E3B261"/>
<path d="M178.109 245.722C177.981 245.722 177.853 245.678 177.749 245.588C177.596 245.458 173.998 242.341 173.924 238.663C173.89 236.99 174.585 235.483 175.99 234.179C179.013 231.379 181.342 230.617 183.209 230.004C184.53 229.572 185.484 229.261 186.284 228.367C186.437 228.195 186.682 228.137 186.896 228.22C187.112 228.301 187.252 228.508 187.252 228.737V234.775C187.252 235.082 187.005 235.331 186.697 235.331C186.39 235.331 186.14 235.082 186.14 234.775V229.952C185.369 230.469 184.507 230.751 183.555 231.062C181.787 231.64 179.59 232.36 176.744 234.997C175.582 236.073 175.006 237.3 175.034 238.641C175.096 241.826 178.437 244.716 178.471 244.745C178.704 244.943 178.733 245.295 178.533 245.528C178.421 245.656 178.266 245.722 178.109 245.722Z" fill="#E3B261"/>
<path d="M182.837 263.394H161.182C160.876 263.394 160.626 263.145 160.626 262.838C160.626 262.53 160.876 262.282 161.182 262.282H182.282V241.181C182.282 240.873 182.532 240.625 182.838 240.625C183.147 240.625 183.395 240.873 183.395 241.181V262.837C183.394 263.145 183.146 263.394 182.837 263.394Z" fill="#E3B261"/>
<path d="M160.369 270.113C157.803 270.113 155.54 268.939 154.297 266.859C152.966 264.633 153.083 262.332 154.617 260.548C156.129 258.79 158.6 258.069 160.491 258.84C162.688 259.736 163.296 261.506 163.15 262.747C163.022 263.83 162.356 264.619 161.454 264.757C159.79 265.014 158.897 263.469 158.656 262.616C158.574 262.321 158.746 262.016 159.041 261.933C159.332 261.848 159.642 262.019 159.727 262.314C159.745 262.376 160.175 263.829 161.285 263.659C161.674 263.599 161.979 263.181 162.047 262.617C162.148 261.762 161.691 260.53 160.072 259.868C158.634 259.282 156.652 259.885 155.462 261.27C154.258 262.67 154.183 264.5 155.251 266.287C156.59 268.529 159.249 269.483 162.192 268.783C164.983 268.118 168.361 265.711 168.685 261.119C169.026 256.305 166.391 253.53 164.792 252.302C162.399 250.468 159.271 249.762 157.009 250.545C151.915 252.309 150.573 255.898 149.154 259.696C148.02 262.722 146.852 265.85 143.703 268.026C137.271 272.469 132.939 267.867 132.895 267.82C132.753 267.665 132.71 267.443 132.786 267.247C132.86 267.052 133.039 266.913 133.247 266.893C133.293 266.887 137.804 266.385 139.586 263.822C140.308 262.784 140.484 261.52 140.111 260.062C139.598 258.064 137.757 256.68 134.924 256.162C129.646 255.198 121.715 257.437 117.632 262.284H120.981C123.107 260.866 125.688 259.505 128.231 259.067C130.398 258.694 132.113 258.983 133.335 259.921C134.809 261.056 134.973 262.72 134.979 262.791C134.994 262.946 134.941 263.101 134.835 263.216C134.731 263.33 134.581 263.396 134.425 263.396H121.34C118.77 265.149 116.925 266.939 116.894 266.972C116.789 267.073 116.651 267.13 116.505 267.13H94.723C94.4164 267.13 94.1664 266.882 94.1664 266.574C94.1664 266.267 94.4164 266.019 94.723 266.019H116.281C116.699 265.623 117.845 264.571 119.415 263.394H116.505C116.296 263.394 116.108 263.279 116.011 263.095C115.914 262.91 115.929 262.689 116.048 262.519C120.247 256.533 129.216 253.989 135.124 255.068C138.408 255.667 140.561 257.342 141.188 259.785C141.645 261.571 141.413 263.143 140.498 264.457C139.041 266.547 136.221 267.435 134.596 267.787C136.001 268.723 139.006 269.92 143.072 267.11C145.933 265.133 146.992 262.301 148.113 259.305C149.561 255.433 151.059 251.429 156.647 249.493C159.287 248.579 162.75 249.336 165.468 251.42C168.493 253.739 170.072 257.302 169.794 261.197C169.426 266.389 165.608 269.11 162.452 269.861C161.742 270.032 161.044 270.113 160.369 270.113ZM123.092 262.283H133.718C133.56 261.845 133.247 261.251 132.642 260.79C131.677 260.057 130.26 259.842 128.419 260.161C126.623 260.471 124.771 261.302 123.092 262.283Z" fill="#E3B261"/>
<path d="M154.773 267.253H148.736C148.507 267.253 148.3 267.11 148.218 266.897C148.136 266.68 148.195 266.437 148.366 266.283C149.261 265.483 149.573 264.529 150.004 263.21C150.616 261.341 151.377 259.013 154.179 255.99C155.481 254.585 157.002 253.922 158.662 253.923C162.341 253.998 165.458 257.596 165.587 257.749C165.786 257.982 165.759 258.332 165.526 258.532C165.294 258.729 164.944 258.704 164.742 258.471C164.714 258.438 161.812 255.096 158.636 255.033C157.292 255.013 156.07 255.584 154.993 256.745C152.357 259.588 151.638 261.788 151.059 263.554C150.749 264.508 150.465 265.369 149.949 266.141H154.772C155.079 266.141 155.329 266.39 155.329 266.697C155.329 267.005 155.08 267.253 154.773 267.253Z" fill="#E3B261"/>
<path d="M186.697 267.253H166.854C166.546 267.253 166.299 267.005 166.299 266.697C166.299 266.39 166.546 266.141 166.854 266.141H186.14V246.855C186.14 246.548 186.39 246.3 186.697 246.3C187.005 246.3 187.252 246.548 187.252 246.855V266.697C187.251 267.005 187.004 267.253 186.697 267.253Z" fill="#E3B261"/>
</svg>
