<svg width="200" height="300" viewBox="0 0 200 300" fill="none" xmlns="http://www.w3.org/2000/svg">
<path d="M21.0932 267.825C20.8045 267.825 20.5147 267.816 20.223 267.796C15.0301 267.428 12.3086 263.61 11.5576 260.452C10.752 257.073 11.9326 253.872 14.5628 252.299C16.7902 250.972 19.09 251.089 20.8739 252.622C22.633 254.133 23.3523 256.603 22.5794 258.493C21.6845 260.691 19.9165 261.307 18.6733 261.152C17.5899 261.025 16.8011 260.358 16.6642 259.457C16.4073 257.793 17.953 256.901 18.8043 256.661C19.0989 256.575 19.4036 256.75 19.4879 257.045C19.5712 257.338 19.4005 257.645 19.1069 257.729C19.0444 257.748 17.5908 258.182 17.7615 259.288C17.82 259.676 18.2388 259.981 18.8033 260.05C19.6556 260.145 20.8908 259.693 21.5515 258.076C22.1379 256.638 21.5357 254.657 20.1497 253.465C18.7517 252.264 16.9242 252.186 15.1323 253.256C12.8921 254.593 11.9366 257.252 12.638 260.196C13.3028 262.987 15.7088 266.363 20.3015 266.687C25.1213 267.034 27.8895 264.395 29.1177 262.794C30.9522 260.4 31.6606 257.274 30.8758 255.013C29.1118 249.918 25.5232 248.578 21.7252 247.156C18.6981 246.024 15.5698 244.854 13.395 241.705C8.95119 235.274 13.5538 230.941 13.6014 230.899C13.7552 230.757 13.9795 230.715 14.1729 230.788C14.3694 230.864 14.5063 231.042 14.5281 231.252C14.5331 231.297 15.0361 235.808 17.5988 237.59C18.6376 238.313 19.9036 238.487 21.3591 238.113C23.3563 237.601 24.7403 235.76 25.2582 232.926C26.2236 227.644 23.9833 219.717 19.1376 215.634V218.985C20.5554 221.11 21.9157 223.692 22.3532 226.235C22.7273 228.401 22.4395 230.117 21.501 231.337C20.3659 232.812 18.7021 232.975 18.6296 232.982C18.4739 232.994 18.3211 232.942 18.206 232.838C18.0909 232.733 18.0255 232.584 18.0255 232.428V219.341C16.2713 216.772 14.4825 214.929 14.4497 214.895C14.3485 214.792 14.292 214.652 14.292 214.506V188.949H11.8632C11.642 188.949 11.4415 188.818 11.3532 188.615C11.2639 188.413 11.3056 188.176 11.4564 188.015L14.4408 184.82C14.5966 184.654 14.8386 184.6 15.05 184.683C15.2633 184.766 15.4012 184.972 15.4012 185.2V187.838H17.0184V179.936L11.0774 170.187C11.0258 170.1 11 170.002 11 169.902L11 142.557C11 142.249 11.247 142 11.5556 142C11.8622 142 12.1112 142.249 12.1112 142.557L12.1112 169.75L18.0513 179.499C18.1028 179.584 18.1306 179.684 18.1306 179.783V188.395C18.1306 188.702 17.8806 188.95 17.574 188.95H15.4022V214.284C15.798 214.702 16.8497 215.847 18.0264 217.417V214.506C18.0264 214.299 18.1415 214.109 18.3261 214.014C18.5086 213.917 18.7299 213.933 18.9015 214.052C24.8862 218.251 27.429 227.222 26.3516 233.127C25.7523 236.412 24.0776 238.564 21.6359 239.19C19.848 239.646 18.2764 239.415 16.9628 238.499C14.8733 237.045 13.9834 234.224 13.6332 232.598C12.6976 234.005 11.5021 237.008 14.3099 241.074C16.2872 243.936 19.1198 244.995 22.1161 246.116C25.9875 247.565 29.9908 249.063 31.9275 254.65C32.8413 257.29 32.0842 260.751 30.0007 263.472C27.8547 266.268 24.6441 267.825 21.0932 267.825ZM19.1376 221.093V231.722C19.5742 231.563 20.1685 231.252 20.6308 230.646C21.364 229.681 21.5744 228.261 21.2589 226.424C20.9493 224.624 20.1169 222.773 19.1376 221.093ZM13.1411 187.837H14.292V186.608L13.1411 187.837Z" fill="#D5D5D5"/>
<path d="M23.3106 263.725C23.1548 263.725 22.9991 263.659 22.887 263.53C22.6885 263.298 22.7153 262.947 22.9485 262.748C22.9832 262.719 26.3248 259.818 26.3873 256.64C26.4121 255.3 25.8367 254.076 24.6759 253C21.8304 250.362 19.6327 249.643 17.8647 249.065C16.9132 248.753 16.051 248.47 15.2801 247.955V252.777C15.2801 253.085 15.0301 253.334 14.7236 253.334C14.415 253.334 14.168 253.085 14.168 252.777V246.74C14.168 246.511 14.3088 246.304 14.5241 246.222C14.7384 246.14 14.9835 246.198 15.1363 246.37C15.9359 247.264 16.8904 247.576 18.2109 248.007C20.0792 248.619 22.4068 249.381 25.4298 252.182C26.8347 253.485 27.5302 254.993 27.4965 256.666C27.4221 260.344 23.8246 263.462 23.6708 263.591C23.5666 263.681 23.4386 263.725 23.3106 263.725Z" fill="#D5D5D5"/>
<path d="M40.2367 281.397H18.582C18.2735 281.397 18.0255 281.148 18.0255 280.84V259.185C18.0255 258.877 18.2735 258.629 18.582 258.629C18.8876 258.629 19.1376 258.877 19.1376 259.185V280.286H40.2378C40.5443 280.286 40.7943 280.534 40.7943 280.841C40.7943 281.149 40.5433 281.397 40.2367 281.397Z" fill="#D5D5D5"/>
<path d="M41.0513 288.116C40.3747 288.116 39.6772 288.035 38.9698 287.866C35.8128 287.114 31.996 284.393 31.6279 279.201C31.3511 275.307 32.9296 271.743 35.9537 269.425C38.6712 267.339 42.1348 266.585 44.7749 267.498C50.3627 269.434 51.8609 273.437 53.3094 277.309C54.4305 280.307 55.4892 283.137 58.3505 285.115C62.4164 287.923 65.4206 286.726 66.8265 285.791C65.2003 285.44 62.3807 284.552 60.9242 282.462C60.0094 281.148 59.7772 279.576 60.2346 277.79C60.8607 275.347 63.0147 273.673 66.2977 273.073C72.205 271.998 81.174 274.537 85.3738 280.524C85.4928 280.694 85.5078 280.916 85.4115 281.099C85.3143 281.284 85.1257 281.399 84.9174 281.399H82.0074C83.577 282.576 84.7229 283.626 85.1406 284.023H106.699C107.006 284.023 107.256 284.271 107.256 284.579C107.256 284.887 107.006 285.135 106.699 285.135H84.9174C84.7725 285.135 84.6337 285.077 84.5285 284.977C84.4967 284.944 82.6513 283.153 80.0817 281.401H66.9971C66.8413 281.401 66.6916 281.336 66.5874 281.22C66.4822 281.105 66.4306 280.952 66.4435 280.796C66.4495 280.725 66.6131 279.061 68.0875 277.926C69.3078 276.988 71.0243 276.7 73.1912 277.071C75.734 277.51 78.3156 278.871 80.4408 280.289H83.7903C79.7086 275.442 71.7783 273.202 66.4981 274.167C63.6665 274.684 61.8241 276.069 61.3111 278.066C60.9381 279.527 61.1146 280.791 61.8369 281.829C63.6258 284.397 68.1292 284.891 68.1748 284.897C68.3832 284.918 68.5618 285.056 68.6362 285.252C68.7116 285.448 68.6689 285.669 68.5271 285.825C68.4854 285.872 64.1507 290.474 57.7195 286.03C54.5704 283.856 53.4007 280.726 52.2686 277.7C50.8489 273.902 49.5074 270.315 44.4127 268.55C42.1506 267.768 39.0234 268.473 36.6303 270.307C35.031 271.534 32.3959 274.31 32.7372 279.124C33.0626 283.716 36.4378 286.123 39.2297 286.787C42.1745 287.488 44.8325 286.533 46.1709 284.292C47.2394 282.504 47.164 280.675 45.9606 279.275C44.77 277.89 42.7866 277.287 41.35 277.873C39.7308 278.534 39.2744 279.766 39.3756 280.622C39.4421 281.185 39.7476 281.603 40.1366 281.664C41.2488 281.846 41.6913 280.336 41.6953 280.32C41.7776 280.026 42.0842 279.855 42.3799 279.936C42.6765 280.019 42.8481 280.326 42.7658 280.621C42.5247 281.473 41.6288 283.021 39.9679 282.761C39.0661 282.622 38.4003 281.834 38.2724 280.752C38.1265 279.51 38.7337 277.741 40.9313 276.845C42.8243 276.074 45.2928 276.793 46.8048 278.553C48.3387 280.337 48.4558 282.637 47.1253 284.864C45.8801 286.942 43.617 288.116 41.0513 288.116ZM67.6986 280.286H78.3275C76.6488 279.305 74.7964 278.474 73.0006 278.164C71.1543 277.844 69.7275 278.06 68.7641 278.804C68.1589 279.268 67.8524 279.853 67.6986 280.286Z" fill="#D5D5D5"/>
<path d="M52.6833 285.255H46.6461C46.3395 285.255 46.0894 285.007 46.0894 284.7C46.0894 284.392 46.3395 284.143 46.6461 284.143H51.4689C50.952 283.371 50.6693 282.51 50.3587 281.557C49.7803 279.791 49.061 277.591 46.4248 274.748C45.3473 273.587 44.0903 273.049 42.7827 273.036C39.6058 273.099 36.7037 276.44 36.6759 276.474C36.4755 276.706 36.1243 276.732 35.8921 276.534C35.66 276.335 35.6322 275.985 35.8316 275.752C35.9616 275.599 39.0769 272 42.7558 271.926C44.4276 271.927 45.9367 272.588 47.2393 273.993C50.0412 277.016 50.8022 279.344 51.4143 281.212C51.8459 282.532 52.1575 283.485 53.0524 284.286C53.224 284.44 53.2826 284.683 53.2003 284.899C53.1199 285.113 52.9135 285.255 52.6833 285.255Z" fill="#D5D5D5"/>
<path d="M34.5656 285.256H14.7236C14.415 285.256 14.168 285.007 14.168 284.7V264.858C14.168 264.55 14.415 264.302 14.7236 264.302C15.0301 264.302 15.2801 264.55 15.2801 264.858V284.143H34.5656C34.8741 284.143 35.1212 284.392 35.1212 284.7C35.1212 285.007 34.8732 285.256 34.5656 285.256Z" fill="#D5D5D5"/>
<path d="M179.66 267.825C179.936 267.825 180.213 267.816 180.491 267.796C185.455 267.428 188.056 263.61 188.774 260.452C189.544 257.073 188.415 253.872 185.901 252.299C183.772 250.972 181.574 251.089 179.869 252.622C178.188 254.133 177.5 256.603 178.239 258.493C179.094 260.691 180.784 261.307 181.973 261.152C183.008 261.025 183.762 260.358 183.893 259.457C184.138 257.793 182.661 256.901 181.847 256.661C181.566 256.575 181.275 256.75 181.194 257.045C181.114 257.338 181.277 257.645 181.558 257.729C181.618 257.748 183.007 258.182 182.844 259.288C182.788 259.676 182.388 259.981 181.848 260.05C181.034 260.145 179.853 259.693 179.222 258.076C178.661 256.638 179.237 254.657 180.561 253.465C181.898 252.264 183.644 252.186 185.357 253.256C187.498 254.593 188.411 257.252 187.741 260.196C187.106 262.987 184.806 266.363 180.416 266.687C175.81 267.034 173.164 264.395 171.99 262.794C170.236 260.4 169.559 257.274 170.31 255.013C171.996 249.918 175.426 248.578 179.056 247.156C181.949 246.024 184.939 244.854 187.017 241.705C191.265 235.274 186.866 230.941 186.82 230.899C186.673 230.757 186.459 230.715 186.274 230.788C186.086 230.864 185.955 231.042 185.934 231.252C185.93 231.297 185.449 235.808 183 237.59C182.007 238.313 180.797 238.487 179.406 238.113C177.497 237.601 176.174 235.76 175.679 232.926C174.756 227.644 176.897 219.717 181.529 215.634V218.985C180.174 221.11 178.873 223.692 178.455 226.235C178.098 228.401 178.373 230.117 179.27 231.337C180.355 232.812 181.945 232.975 182.014 232.982C182.163 232.994 182.309 232.942 182.419 232.838C182.529 232.733 182.592 232.584 182.592 232.428V219.341C184.268 216.772 185.978 214.929 186.009 214.895C186.106 214.792 186.16 214.652 186.16 214.506V188.949H188.482C188.693 188.949 188.885 188.818 188.969 188.615C189.054 188.413 189.015 188.176 188.87 188.015L186.018 184.82C185.869 184.654 185.638 184.6 185.436 184.683C185.232 184.766 185.1 184.972 185.1 185.2V187.838H183.554V179.936L189.233 170.187C189.282 170.1 189.307 170.002 189.307 169.902L189.307 142.557C189.307 142.249 189.07 142 188.776 142C188.483 142 188.245 142.249 188.245 142.557L188.245 169.75L182.567 179.499C182.518 179.584 182.491 179.684 182.491 179.783V188.395C182.491 188.702 182.73 188.95 183.023 188.95H185.099V214.284C184.721 214.702 183.715 215.847 182.591 217.417V214.506C182.591 214.299 182.481 214.109 182.304 214.014C182.13 213.917 181.918 213.933 181.754 214.052C176.034 218.251 173.604 227.222 174.634 233.127C175.207 236.412 176.807 238.564 179.141 239.19C180.85 239.646 182.352 239.415 183.607 238.499C185.604 237.045 186.455 234.224 186.79 232.598C187.684 234.005 188.827 237.008 186.143 241.074C184.253 243.936 181.546 244.995 178.682 246.116C174.982 247.565 171.155 249.063 169.304 254.65C168.431 257.29 169.155 260.751 171.146 263.472C173.197 266.268 176.266 267.825 179.66 267.825ZM181.529 221.093V231.722C181.111 231.563 180.543 231.252 180.102 230.646C179.401 229.681 179.2 228.261 179.501 226.424C179.797 224.624 180.593 222.773 181.529 221.093ZM187.26 187.837H186.16V186.608L187.26 187.837Z" fill="#D5D5D5"/>
<path d="M177.54 263.725C177.689 263.725 177.838 263.659 177.945 263.53C178.135 263.298 178.109 262.947 177.886 262.748C177.853 262.719 174.659 259.818 174.6 256.64C174.576 255.3 175.126 254.076 176.235 253C178.955 250.362 181.056 249.643 182.745 249.065C183.655 248.753 184.479 248.47 185.216 247.955V252.777C185.216 253.085 185.455 253.334 185.748 253.334C186.043 253.334 186.279 253.085 186.279 252.777V246.74C186.279 246.511 186.144 246.304 185.938 246.222C185.733 246.14 185.499 246.198 185.353 246.37C184.589 247.264 183.677 247.576 182.414 248.007C180.629 248.619 178.404 249.381 175.515 252.182C174.172 253.485 173.507 254.993 173.539 256.666C173.611 260.344 177.049 263.462 177.196 263.591C177.296 263.681 177.418 263.725 177.54 263.725Z" fill="#D5D5D5"/>
<path d="M161.362 281.397H182.06C182.355 281.397 182.592 281.148 182.592 280.84V259.185C182.592 258.877 182.355 258.629 182.06 258.629C181.768 258.629 181.529 258.877 181.529 259.185V280.286H161.361C161.068 280.286 160.83 280.534 160.83 280.841C160.83 281.149 161.069 281.397 161.362 281.397Z" fill="#D5D5D5"/>
<path d="M160.584 288.116C161.231 288.116 161.897 288.035 162.573 287.866C165.591 287.114 169.239 284.393 169.591 279.201C169.855 275.307 168.347 271.743 165.456 269.425C162.859 267.339 159.548 266.585 157.025 267.498C151.684 269.434 150.252 273.437 148.868 277.309C147.796 280.307 146.784 283.137 144.05 285.115C140.163 287.923 137.292 286.726 135.948 285.791C137.503 285.44 140.198 284.552 141.59 282.462C142.464 281.148 142.686 279.576 142.249 277.79C141.65 275.347 139.592 273.673 136.454 273.073C130.808 271.998 122.235 274.537 118.221 280.524C118.107 280.694 118.093 280.916 118.185 281.099C118.278 281.284 118.458 281.399 118.657 281.399H121.439C119.938 282.576 118.843 283.626 118.444 284.023H97.8386C97.5455 284.023 97.3066 284.271 97.3066 284.579C97.3066 284.887 97.5455 285.135 97.8386 285.135H118.657C118.796 285.135 118.928 285.077 119.029 284.977C119.059 284.944 120.823 283.153 123.279 281.401H135.785C135.934 281.401 136.077 281.336 136.177 281.22C136.277 281.105 136.327 280.952 136.314 280.796C136.309 280.725 136.152 279.061 134.743 277.926C133.577 276.988 131.936 276.7 129.865 277.071C127.435 277.51 124.967 278.871 122.936 280.289H119.735C123.636 275.442 131.215 273.202 136.262 274.167C138.969 274.684 140.73 276.069 141.22 278.066C141.576 279.527 141.408 280.791 140.717 281.829C139.008 284.397 134.703 284.891 134.66 284.897C134.46 284.918 134.29 285.056 134.219 285.252C134.147 285.448 134.187 285.669 134.323 285.825C134.363 285.872 138.506 290.474 144.653 286.03C147.662 283.856 148.781 280.726 149.863 277.7C151.22 273.902 152.502 270.315 157.371 268.55C159.533 267.768 162.522 268.473 164.809 270.307C166.338 271.534 168.857 274.31 168.53 279.124C168.219 283.716 164.993 286.123 162.325 286.787C159.51 287.488 156.97 286.533 155.691 284.292C154.669 282.504 154.741 280.675 155.892 279.275C157.03 277.89 158.925 277.287 160.298 277.873C161.846 278.534 162.282 279.766 162.186 280.622C162.122 281.185 161.83 281.603 161.458 281.664C160.395 281.846 159.972 280.336 159.968 280.32C159.89 280.026 159.597 279.855 159.314 279.936C159.031 280.019 158.867 280.326 158.945 280.621C159.176 281.473 160.032 283.021 161.619 282.761C162.481 282.622 163.118 281.834 163.24 280.752C163.379 279.51 162.799 277.741 160.699 276.845C158.889 276.074 156.53 276.793 155.085 278.553C153.619 280.337 153.507 282.637 154.778 284.864C155.969 286.942 158.132 288.116 160.584 288.116ZM135.115 280.286H124.956C126.56 279.305 128.331 278.474 130.047 278.164C131.812 277.844 133.176 278.06 134.096 278.804C134.675 279.268 134.968 279.853 135.115 280.286Z" fill="#D5D5D5"/>
<path d="M149.466 285.255H155.237C155.53 285.255 155.769 285.007 155.769 284.7C155.769 284.392 155.53 284.143 155.237 284.143H150.627C151.121 283.371 151.391 282.51 151.688 281.557C152.241 279.791 152.928 277.591 155.448 274.748C156.478 273.587 157.679 273.049 158.929 273.036C161.966 273.099 164.739 276.44 164.766 276.474C164.957 276.706 165.293 276.732 165.515 276.534C165.737 276.335 165.763 275.985 165.573 275.752C165.449 275.599 162.471 272 158.955 271.926C157.357 271.927 155.915 272.588 154.669 273.993C151.992 277.016 151.264 279.344 150.679 281.212C150.267 282.532 149.969 283.485 149.113 284.286C148.949 284.44 148.893 284.683 148.972 284.899C149.049 285.113 149.246 285.255 149.466 285.255Z" fill="#D5D5D5"/>
<path d="M166.783 285.256H185.748C186.043 285.256 186.279 285.007 186.279 284.7V264.858C186.279 264.55 186.043 264.302 185.748 264.302C185.455 264.302 185.216 264.55 185.216 264.858V284.143H166.783C166.488 284.143 166.252 284.392 166.252 284.7C166.252 285.007 166.489 285.256 166.783 285.256Z" fill="#D5D5D5"/>
<path d="M179.213 31.2905C179.502 31.2905 179.792 31.3005 180.084 31.3203C185.276 31.6884 187.998 35.5062 188.749 38.6642C189.555 42.0435 188.374 45.2442 185.744 46.8167C183.516 48.1442 181.217 48.0271 179.433 46.4943C177.674 44.9832 176.954 42.5127 177.727 40.6227C178.622 38.4251 180.39 37.809 181.633 37.9637C182.717 38.0907 183.505 38.7575 183.642 39.6593C183.899 41.3232 182.354 42.2151 181.502 42.4552C181.208 42.5405 180.903 42.3659 180.819 42.0713C180.735 41.7776 180.906 41.471 181.2 41.3867C181.262 41.3678 182.716 40.9342 182.545 39.828C182.487 39.4401 182.068 39.1345 181.503 39.066C180.651 38.9708 179.416 39.4232 178.755 41.0404C178.169 42.478 178.771 44.4594 180.157 45.6509C181.555 46.8524 183.382 46.9298 185.174 45.8603C187.415 44.5229 188.37 41.8639 187.669 38.9202C187.004 36.1293 184.598 32.7529 180.005 32.4285C175.185 32.0823 172.417 34.7214 171.189 36.3217C169.354 38.7158 168.646 41.8421 169.431 44.1032C171.195 49.1979 174.783 50.5383 178.581 51.96C181.608 53.0921 184.737 54.2618 186.912 57.4109C191.355 63.8421 186.753 68.1748 186.705 68.2174C186.551 68.3593 186.327 68.401 186.134 68.3276C185.937 68.2522 185.8 68.0736 185.778 67.8642C185.774 67.8186 185.271 63.3083 182.708 61.5264C181.669 60.8031 180.403 60.6295 178.948 61.0025C176.95 61.5155 175.566 63.3559 175.048 66.1895C174.083 71.4717 176.323 79.399 181.169 83.4817L181.169 80.1312C179.751 78.006 178.391 75.4244 177.953 72.8805C177.579 70.7147 177.867 68.9992 178.806 67.7789C179.941 66.3036 181.605 66.1409 181.677 66.1339C181.833 66.122 181.986 66.1736 182.101 66.2778C182.216 66.3829 182.281 66.5318 182.281 66.6876L182.281 79.775C184.035 82.3437 185.824 84.1871 185.857 84.2209C185.958 84.324 186.015 84.4639 186.015 84.6098L186.015 110.167L188.443 110.167C188.665 110.167 188.865 110.298 188.953 110.501C189.043 110.703 189.001 110.94 188.85 111.101L185.866 114.296C185.71 114.462 185.468 114.516 185.257 114.433C185.043 114.35 184.905 114.144 184.905 113.916L184.905 111.278L183.288 111.278L183.288 119.18L189.229 128.929C189.281 129.016 189.307 129.114 189.307 129.214L189.307 156.559C189.307 156.867 189.06 157.116 188.751 157.116C188.444 157.116 188.195 156.867 188.195 156.559L188.195 129.366L182.255 119.617C182.204 119.532 182.176 119.432 182.176 119.333L182.176 110.721C182.176 110.414 182.426 110.166 182.733 110.166L184.904 110.166L184.904 84.832C184.509 84.4143 183.457 83.2694 182.28 81.6988L182.28 84.6098C182.28 84.8171 182.165 85.0067 181.981 85.1019C181.798 85.1991 181.577 85.1832 181.405 85.0642C175.42 80.8654 172.878 71.8944 173.955 65.9891C174.554 62.7041 176.229 60.5521 178.671 59.926C180.459 59.4696 182.03 59.7008 183.344 60.6166C185.433 62.071 186.323 64.8917 186.673 66.5179C187.609 65.111 188.805 62.1078 185.997 58.0419C184.019 55.1796 181.187 54.1209 178.191 52.9998C174.319 51.5513 170.316 50.0531 168.379 44.4663C167.465 41.8262 168.222 38.3646 170.306 35.6441C172.452 32.8482 175.663 31.2905 179.213 31.2905ZM181.169 78.0229L181.169 67.3939C180.732 67.5527 180.138 67.8642 179.676 68.4705C178.943 69.4348 178.732 70.8546 179.048 72.692C179.357 74.4918 180.19 76.3432 181.169 78.0229ZM187.166 111.279L186.015 111.279L186.015 112.508L187.166 111.279Z" fill="#D5D5D5"/>
<path d="M176.996 35.3911C177.152 35.3911 177.307 35.4566 177.42 35.5856C177.618 35.8177 177.591 36.1689 177.358 36.3684C177.323 36.3971 173.982 39.2982 173.919 42.4761C173.894 43.8155 174.47 45.0398 175.631 46.1163C178.476 48.7534 180.674 49.4727 182.442 50.0511C183.393 50.3627 184.256 50.6454 185.026 51.1614L185.026 46.3385C185.026 46.0309 185.276 45.7819 185.583 45.7819C185.892 45.7819 186.139 46.0309 186.139 46.3385L186.139 52.3757C186.139 52.6049 185.998 52.8123 185.782 52.8937C185.568 52.976 185.323 52.9175 185.17 52.7458C184.371 51.8519 183.416 51.5403 182.096 51.1088C180.227 50.4966 177.9 49.7347 174.877 46.9338C173.472 45.6311 172.776 44.123 172.81 42.4503C172.884 38.7723 176.482 35.654 176.636 35.525C176.74 35.4347 176.868 35.3911 176.996 35.3911Z" fill="#D5D5D5"/>
<path d="M160.07 17.7189L181.725 17.7189C182.033 17.7189 182.281 17.9679 182.281 18.2755L182.281 39.9312C182.281 40.2388 182.033 40.4868 181.725 40.4868C181.419 40.4868 181.169 40.2388 181.169 39.9312L181.169 18.8301L160.069 18.8301C159.762 18.8301 159.512 18.5821 159.512 18.2745C159.512 17.9669 159.763 17.7189 160.07 17.7189Z" fill="#D5D5D5"/>
<path d="M159.255 11.0001C159.932 11.0001 160.629 11.0814 161.337 11.2501C164.494 12.0021 168.311 14.7226 168.679 19.9146C168.956 23.8088 167.377 27.3726 164.353 29.6912C161.635 31.7767 158.172 32.5308 155.532 31.618C149.944 29.6823 148.446 25.679 146.997 21.8066C145.876 18.8093 144.817 15.9787 141.956 14.0013C137.89 11.1925 134.886 12.3901 133.48 13.3247C135.106 13.6759 137.926 14.5639 139.382 16.6543C140.297 17.968 140.529 19.5405 140.072 21.3264C139.446 23.7691 137.292 25.4428 134.009 26.0431C128.102 27.1176 119.133 24.5787 114.933 18.592C114.814 18.4224 114.799 18.2001 114.895 18.0166C114.992 17.832 115.181 17.717 115.389 17.717L118.299 17.717C116.73 16.5403 115.584 15.4896 115.166 15.0927L93.6075 15.0927C93.3009 15.0927 93.0509 14.8447 93.0509 14.5371C93.0509 14.2295 93.3009 13.9815 93.6075 13.9815L115.389 13.9815C115.534 13.9815 115.673 14.039 115.778 14.1392C115.81 14.172 117.655 15.9628 120.225 17.715L133.309 17.715C133.465 17.715 133.615 17.7804 133.719 17.8955C133.824 18.0106 133.876 18.1644 133.863 18.3202C133.857 18.3906 133.693 20.0554 132.219 21.1905C130.999 22.128 129.282 22.4158 127.115 22.0447C124.573 21.6062 121.991 20.2449 119.866 18.8272L116.516 18.8272C120.598 23.6738 128.528 25.9141 133.809 24.9488C136.64 24.4318 138.483 23.0468 138.995 21.0496C139.369 19.5891 139.192 18.3251 138.47 17.2873C136.681 14.7187 132.177 14.2246 132.132 14.2186C131.923 14.1978 131.745 14.0599 131.67 13.8644C131.595 13.668 131.638 13.4467 131.78 13.291C131.821 13.2443 136.156 8.64174 142.587 13.0856C145.736 15.2604 146.906 18.3896 148.038 21.4157C149.458 25.2137 150.799 28.8013 155.894 30.5663C158.156 31.3481 161.283 30.6427 163.676 28.8092C165.276 27.5819 167.911 24.8059 167.569 19.992C167.244 15.4003 163.869 12.9933 161.077 12.3286C158.132 11.6281 155.474 12.5825 154.136 14.8238C153.067 16.6117 153.143 18.4412 154.346 19.8411C155.537 21.2262 157.52 21.8294 158.957 21.243C160.576 20.5823 161.032 19.35 160.931 18.4938C160.865 17.9312 160.559 17.5126 160.17 17.452C159.058 17.2705 158.615 18.7805 158.611 18.7964C158.529 19.0901 158.222 19.2607 157.927 19.1804C157.63 19.097 157.458 18.7905 157.541 18.4948C157.782 17.6435 158.678 16.0948 160.339 16.3547C161.241 16.4936 161.906 17.2824 162.034 18.3638C162.18 19.606 161.573 21.375 159.375 22.2709C157.482 23.0418 155.014 22.3235 153.502 20.5634C151.968 18.7785 151.851 16.4787 153.181 14.2524C154.426 12.1738 156.69 11.0001 159.255 11.0001ZM132.608 18.8301L121.979 18.8301C123.658 19.8114 125.51 20.6418 127.306 20.9523C129.152 21.2718 130.579 21.0555 131.542 20.3124C132.148 19.8481 132.454 19.2627 132.608 18.8301Z" fill="#D5D5D5"/>
<path d="M147.623 13.8604L153.661 13.8604C153.967 13.8604 154.217 14.1085 154.217 14.416C154.217 14.7236 153.967 14.9726 153.661 14.9726L148.838 14.9726C149.355 15.7445 149.637 16.6057 149.948 17.5592C150.526 19.3252 151.246 21.5248 153.882 24.3683C154.959 25.5291 156.216 26.0669 157.524 26.0798C160.701 26.0173 163.603 22.6757 163.631 22.642C163.831 22.4098 164.182 22.384 164.414 22.5815C164.647 22.7809 164.674 23.1311 164.475 23.3643C164.345 23.5171 161.23 27.1156 157.551 27.19C155.879 27.189 154.37 26.5283 153.067 25.1234C150.265 22.1003 149.504 19.7717 148.892 17.9035C148.461 16.5839 148.149 15.6305 147.254 14.8298C147.083 14.676 147.024 14.4329 147.106 14.2166C147.187 14.0033 147.393 13.8604 147.623 13.8604Z" fill="#D5D5D5"/>
<path d="M165.741 13.8604L185.583 13.8604C185.892 13.8604 186.139 14.1085 186.139 14.416L186.139 34.2581C186.139 34.5657 185.892 34.8137 185.583 34.8137C185.276 34.8137 185.026 34.5657 185.026 34.2581L185.026 14.9726L165.741 14.9726C165.432 14.9726 165.185 14.7236 165.185 14.416C165.185 14.1085 165.433 13.8604 165.741 13.8604Z" fill="#D5D5D5"/>
<path d="M20.647 31.2905C20.371 31.2905 20.0941 31.3005 19.8153 31.3203C14.852 31.6884 12.2508 35.5062 11.533 38.6642C10.7629 42.0435 11.8914 45.2442 14.4053 46.8167C16.5342 48.1442 18.7324 48.0271 20.4374 46.4943C22.1187 44.9832 22.8062 42.5127 22.0675 40.6227C21.2121 38.4251 19.5223 37.809 18.3341 37.9637C17.2985 38.0907 16.5447 38.7575 16.4138 39.6593C16.1682 41.3232 17.6456 42.2151 18.4592 42.4552C18.7409 42.5405 19.032 42.3659 19.1126 42.0713C19.1923 41.7776 19.0292 41.471 18.7485 41.3867C18.6887 41.3678 17.2995 40.9342 17.4626 39.828C17.5185 39.4401 17.9187 39.1345 18.4583 39.066C19.2729 38.9708 20.4535 39.4232 21.085 41.0404C21.6455 42.478 21.0699 44.4594 19.7451 45.6509C18.409 46.8524 16.6623 46.9298 14.9497 45.8603C12.8084 44.5229 11.8952 41.8639 12.5656 38.9202C13.201 36.1293 15.5006 32.7529 19.8902 32.4285C24.497 32.0823 27.1428 34.7214 28.3167 36.3217C30.0701 38.7158 30.7472 41.8421 29.9971 44.1032C28.311 49.1979 24.8811 50.5383 21.251 51.96C18.3578 53.0921 15.3678 54.2618 13.2892 57.4109C9.0418 63.8421 13.4409 68.1748 13.4864 68.2174C13.6334 68.3593 13.8478 68.401 14.0327 68.3276C14.2204 68.2522 14.3513 68.0736 14.3721 67.8642C14.3769 67.8186 14.8576 63.3083 17.3071 61.5264C18.2999 60.8031 19.51 60.6295 20.9011 61.0025C22.81 61.5155 24.1329 63.3559 24.6279 66.1895C25.5505 71.4717 23.4093 79.399 18.7779 83.4817L18.7779 80.1312C20.133 78.006 21.4331 75.4244 21.8513 72.8805C22.2088 70.7147 21.9338 68.9992 21.0367 67.7789C19.9519 66.3036 18.3616 66.1409 18.2923 66.1339C18.1434 66.122 17.9974 66.1736 17.8874 66.2778C17.7774 66.3829 17.7149 66.5318 17.7149 66.6876L17.7149 79.775C16.0383 82.3437 14.3285 84.1871 14.2972 84.2209C14.2005 84.324 14.1465 84.4639 14.1465 84.6098L14.1465 110.167L11.8251 110.167C11.6136 110.167 11.422 110.298 11.3376 110.501C11.2523 110.703 11.2921 110.94 11.4362 111.101L14.2887 114.296C14.4376 114.462 14.669 114.516 14.8709 114.433C15.0748 114.35 15.2066 114.144 15.2066 113.916L15.2066 111.278L16.7523 111.278L16.7524 119.18L11.074 128.929C11.0247 129.016 11 129.114 11 129.214L11 156.559C11 156.867 11.2362 157.116 11.5311 157.116C11.8241 157.116 12.0621 156.867 12.0621 156.559L12.0621 129.366L17.7395 119.617C17.7888 119.532 17.8154 119.432 17.8154 119.333L17.8154 110.721C17.8154 110.414 17.5764 110.166 17.2834 110.166L15.2076 110.166L15.2076 84.832C15.5859 84.4143 16.5911 83.2694 17.7158 81.6988L17.7158 84.6098C17.7158 84.8171 17.8258 85.0067 18.0022 85.1019C18.1767 85.1991 18.3882 85.1832 18.5522 85.0642C24.2723 80.8654 26.7027 71.8944 25.6729 65.9891C25.1001 62.704 23.4994 60.5521 21.1657 59.926C19.4569 59.4696 17.9547 59.7008 16.6992 60.6166C14.7021 62.071 13.8516 64.8917 13.5168 66.5179C12.6226 65.111 11.4799 62.1078 14.1635 58.0419C16.0535 55.1796 18.7608 54.1209 21.6246 52.9998C25.3249 51.5513 29.1512 50.0531 31.0023 44.4663C31.8756 41.8262 31.1521 38.3646 29.1607 35.6441C27.1095 32.8482 24.0409 31.2905 20.647 31.2905ZM18.7779 78.0229L18.7779 67.3939C19.1951 67.5527 19.7631 67.8642 20.2051 68.4705C20.9058 69.4348 21.1069 70.8546 20.8053 72.692C20.5094 74.4918 19.7138 76.3432 18.7779 78.0229ZM13.0464 111.279L14.1465 111.279L14.1465 112.508L13.0464 111.279Z" fill="#D5D5D5"/>
<path d="M22.7664 35.3912C22.6175 35.3912 22.4686 35.4566 22.3614 35.5856C22.1718 35.8178 22.1974 36.169 22.4202 36.3684C22.4534 36.3972 25.6473 39.2982 25.707 42.4761C25.7307 43.8155 25.1807 45.0398 24.0712 46.1163C21.3515 48.7535 19.251 49.4728 17.5612 50.0512C16.6518 50.3627 15.8277 50.6455 15.0909 51.1614L15.0909 46.3386C15.0909 46.031 14.852 45.782 14.559 45.782C14.264 45.782 14.0279 46.031 14.0279 46.3386L14.0279 52.3758C14.0279 52.605 14.1625 52.8124 14.3683 52.8937C14.5731 52.9761 14.8074 52.9175 14.9534 52.7459C15.7177 51.852 16.63 51.5404 17.8921 51.1088C19.6778 50.4967 21.9025 49.7347 24.7919 46.9339C26.1347 45.6312 26.7994 44.1231 26.7672 42.4503C26.696 38.7724 23.2576 35.6541 23.1106 35.5251C23.011 35.4348 22.8887 35.3912 22.7664 35.3912Z" fill="#D5D5D5"/>
<path d="M38.9441 17.7189L18.2468 17.7189C17.9519 17.7189 17.7149 17.9679 17.7149 18.2755L17.7149 39.9312C17.7149 40.2388 17.9519 40.4868 18.2468 40.4868C18.5389 40.4868 18.7779 40.2388 18.7779 39.9312L18.7779 18.8301L38.9451 18.8301C39.2381 18.8301 39.4771 18.5821 39.4771 18.2745C39.4771 17.9669 39.2372 17.7189 38.9441 17.7189Z" fill="#D5D5D5"/>
<path d="M39.7227 11C39.076 11 38.4094 11.0814 37.7332 11.25C34.7158 12.0021 31.0677 14.7226 30.7159 19.9145C30.4513 23.8087 31.96 27.3725 34.8504 29.6912C37.4478 31.7767 40.7583 32.5307 43.2817 31.6179C48.6224 29.6822 50.0543 25.6789 51.4388 21.8065C52.5104 18.8092 53.5222 15.9786 56.2571 14.0013C60.1432 11.1925 63.0145 12.39 64.3583 13.3246C62.804 13.6758 60.109 14.5638 58.7169 16.6543C57.8426 17.9679 57.6207 19.5405 58.0579 21.3263C58.6562 23.769 60.715 25.4428 63.8529 26.043C69.499 27.1175 78.0715 24.5786 82.0856 18.592C82.1994 18.4223 82.2136 18.2001 82.1216 18.0165C82.0287 17.832 81.8485 17.7169 81.6493 17.7169L78.868 17.7169C80.3682 16.5402 81.4635 15.4895 81.8627 15.0926L102.468 15.0926C102.761 15.0926 103 14.8446 103 14.537C103 14.2295 102.761 13.9814 102.468 13.9814L81.6493 13.9814C81.5109 13.9814 81.3781 14.039 81.2776 14.1392C81.2473 14.1719 79.4835 15.9627 77.0274 17.7149L64.5214 17.7149C64.3725 17.7149 64.2293 17.7804 64.1298 17.8955C64.0292 18.0106 63.9799 18.1643 63.9922 18.3201C63.9979 18.3906 64.1544 20.0554 65.5635 21.1904C66.7299 22.128 68.3705 22.4157 70.4416 22.0447C72.872 21.6061 75.3395 20.2449 77.3707 18.8271L80.5721 18.8271C76.6708 23.6738 69.0912 25.914 64.0444 24.9487C61.338 24.4318 59.577 23.0467 59.0868 21.0495C58.7302 19.5891 58.899 18.3251 59.5893 17.2873C61.2991 14.7186 65.6034 14.2245 65.647 14.2186C65.8461 14.1977 66.0168 14.0598 66.088 13.8643C66.16 13.6679 66.1193 13.4467 65.9837 13.2909C65.9438 13.2443 61.8008 8.64167 55.654 13.0855C52.6441 15.2603 51.5261 18.3896 50.4441 21.4156C49.0871 25.2136 47.805 28.8012 42.9355 30.5662C40.7734 31.3481 37.7844 30.6426 35.4972 28.8091C33.9685 27.5819 31.4499 24.8058 31.7761 19.9919C32.0872 15.4002 35.3132 12.9933 37.9817 12.3285C40.7962 11.6281 43.3367 12.5825 44.6159 14.8238C45.6372 16.6116 45.5652 18.4411 44.4149 19.8411C43.2769 21.2261 41.3813 21.8293 40.0082 21.243C38.4606 20.5822 38.0244 19.35 38.1211 18.4937C38.1846 17.9312 38.4767 17.5125 38.8484 17.452C39.9114 17.2704 40.3344 18.7805 40.3382 18.7963C40.4169 19.09 40.7099 19.2607 40.9925 19.1803C41.2761 19.0969 41.4401 18.7904 41.3614 18.4947C41.1309 17.6435 40.2746 16.0947 38.6872 16.3546C37.8252 16.4935 37.1889 17.2823 37.0666 18.3637C36.9272 19.6059 37.5075 21.3749 39.608 22.2709C41.4173 23.0418 43.7766 22.3234 45.2218 20.5634C46.6879 18.7785 46.7998 16.4787 45.5281 14.2523C44.338 12.1737 42.175 11 39.7227 11ZM65.1918 18.8301L75.3508 18.8301C73.7463 19.8113 71.9759 20.6417 70.2595 20.9523C68.4947 21.2718 67.1311 21.0555 66.2103 20.3124C65.6318 19.848 65.3388 19.2626 65.1918 18.8301Z" fill="#D5D5D5"/>
<path d="M50.8404 13.8605L45.0701 13.8605C44.7771 13.8605 44.5381 14.1085 44.5381 14.4161C44.5381 14.7237 44.7771 14.9727 45.0701 14.9727L49.6797 14.9727C49.1856 15.7446 48.9154 16.6058 48.6186 17.5592C48.0657 19.3253 47.3782 21.5249 44.8586 24.3684C43.8288 25.5292 42.6273 26.067 41.3775 26.0799C38.3411 26.0174 35.5673 22.6758 35.5408 22.6421C35.3492 22.4099 35.0135 22.3841 34.7916 22.5815C34.5697 22.7809 34.5431 23.1312 34.7338 23.3643C34.858 23.5171 37.8356 27.1157 41.3519 27.1901C42.9497 27.1891 44.392 26.5283 45.6371 25.1234C48.3151 22.1003 49.0424 19.7718 49.6275 17.9035C50.04 16.584 50.3378 15.6305 51.1932 14.8299C51.3572 14.6761 51.4132 14.433 51.3345 14.2167C51.2577 14.0034 51.0604 13.8605 50.8404 13.8605Z" fill="#D5D5D5"/>
<path d="M33.5237 13.8604L14.559 13.8604C14.264 13.8604 14.0279 14.1085 14.0279 14.416L14.0279 34.2581C14.0279 34.5657 14.264 34.8137 14.559 34.8137C14.852 34.8137 15.0909 34.5657 15.0909 34.2581L15.0909 14.9726L33.5237 14.9726C33.8186 14.9726 34.0548 14.7236 34.0548 14.416C34.0548 14.1085 33.8177 13.8604 33.5237 13.8604Z" fill="#D5D5D5"/>
<path d="M119.742 132.176C119.441 132.176 119.141 132.165 118.836 132.144C113.432 131.762 110.597 127.787 109.815 124.5C108.973 120.971 110.207 117.629 112.958 115.986C115.258 114.613 117.733 114.741 119.58 116.327C121.426 117.913 122.177 120.508 121.367 122.496C120.421 124.813 118.548 125.45 117.234 125.298C116.071 125.161 115.223 124.442 115.074 123.465C114.798 121.68 116.446 120.725 117.354 120.47C117.715 120.371 118.085 120.578 118.185 120.937C118.286 121.296 118.076 121.667 117.72 121.768C117.644 121.791 116.244 122.215 116.405 123.261C116.461 123.616 116.856 123.895 117.39 123.959C118.243 124.064 119.459 123.602 120.117 121.986C120.706 120.543 120.096 118.55 118.699 117.349C117.873 116.639 116.118 115.67 113.648 117.143C110.936 118.764 110.566 121.842 111.125 124.187C111.803 127.029 114.253 130.468 118.929 130.799C123.851 131.143 126.675 128.458 127.926 126.826C129.8 124.385 130.52 121.201 129.724 118.901C127.92 113.696 124.245 112.321 120.353 110.866C117.22 109.694 113.981 108.483 111.721 105.212C107.093 98.5115 111.899 93.987 111.948 93.9424C112.137 93.7702 112.406 93.7185 112.642 93.8088C112.88 93.8991 113.046 94.1158 113.073 94.3686C113.078 94.4156 113.592 99.0196 116.196 100.829C117.253 101.565 118.493 101.738 119.986 101.354C122.708 100.658 123.626 97.759 123.929 96.0915C124.907 90.7374 122.673 82.732 117.822 78.5084V81.7074C119.283 83.9023 120.686 86.5679 121.136 89.1951C121.525 91.4549 121.223 93.2501 120.238 94.5312C119.04 96.0867 117.282 96.2601 117.207 96.2661C117.016 96.289 116.832 96.2191 116.692 96.0903C116.553 95.9639 116.473 95.7821 116.473 95.5943V82.1337C114.678 79.5102 112.851 77.6295 112.819 77.5946C112.693 77.4694 112.626 77.2996 112.626 77.1226V54.6754C112.626 54.3022 112.926 54 113.3 54C113.672 54 113.976 54.3022 113.976 54.6754V76.8517C114.381 77.2828 115.36 78.3543 116.474 79.8172V77.1226C116.474 76.871 116.614 76.641 116.838 76.5243C117.06 76.4087 117.33 76.4267 117.536 76.57C123.738 80.9212 126.373 90.216 125.256 96.3311C124.63 99.7565 122.877 102.003 120.321 102.658C118.449 103.135 116.8 102.892 115.421 101.931C113.34 100.482 112.403 97.7434 112.002 96.0277C111.084 97.5279 110.099 100.492 112.829 104.444C114.849 107.367 117.753 108.453 120.825 109.602C124.838 111.103 128.987 112.655 130.998 118.458C131.949 121.209 131.165 124.815 128.998 127.645C126.771 130.557 123.433 132.176 119.742 132.176ZM117.826 84.2912V94.7178C118.245 94.5468 118.769 94.241 119.185 93.692C119.92 92.7228 120.131 91.2864 119.811 89.4226C119.514 87.6973 118.748 85.9226 117.826 84.2912Z" fill="#D5D5D5"/>
<path d="M122.027 127.949C121.835 127.949 121.648 127.87 121.513 127.714C121.271 127.431 121.304 127.005 121.587 126.763C121.621 126.734 125.031 123.774 125.095 120.545C125.12 119.194 124.537 117.957 123.362 116.868C120.448 114.167 118.195 113.429 116.383 112.835C115.455 112.533 114.614 112.257 113.849 111.782V116.567C113.849 116.94 113.548 117.241 113.175 117.241C112.802 117.241 112.5 116.94 112.5 116.567V110.344C112.5 110.065 112.673 109.815 112.934 109.715C113.196 109.617 113.489 109.688 113.676 109.895C114.483 110.797 115.454 111.115 116.8 111.554C118.735 112.188 121.147 112.977 124.277 115.879C125.75 117.242 126.476 118.823 126.441 120.576C126.364 124.412 122.62 127.652 122.461 127.788C122.336 127.896 122.181 127.949 122.027 127.949Z" fill="#D5D5D5"/>
<path d="M117.153 146.163C117.031 146.163 116.911 146.131 116.803 146.066C116.6 145.943 116.478 145.725 116.478 145.489V123.17C116.478 122.797 116.779 122.496 117.153 122.496C117.525 122.496 117.827 122.797 117.827 123.17V144.346C119.915 143.157 125.031 140.069 130.397 135.525C130.095 134.82 129.86 134.098 129.703 133.373C128.98 130.014 129.971 127 132.496 124.887C132.78 124.647 133.207 124.688 133.444 124.972C133.683 125.257 133.647 125.682 133.361 125.92C130.641 128.197 130.586 131.075 131.021 133.088C131.131 133.596 131.282 134.1 131.472 134.598C134.571 131.872 137.692 128.674 140.306 125.088C136.927 116.904 131.791 107.697 128.882 102.924C128.707 102.638 128.77 102.264 129.03 102.05C129.292 101.838 129.671 101.85 129.917 102.08L145.874 116.958C146.08 117.149 146.145 117.447 146.038 117.707C144.953 120.362 143.512 122.878 141.853 125.233C144.629 132.19 146.138 138.656 143.681 141.259C142.18 142.847 140.134 143.382 137.925 142.765C135.242 142.015 132.6 139.634 131.007 136.765C124.044 142.616 117.584 146.025 117.465 146.086C117.365 146.138 117.257 146.163 117.153 146.163ZM132.046 135.876C133.442 138.549 135.845 140.785 138.287 141.468C139.493 141.805 141.239 141.882 142.701 140.335C144.604 138.319 143.362 132.849 140.895 126.55C138.23 130.068 135.118 133.203 132.046 135.876ZM132.4 106.239C134.828 110.473 138.502 117.219 141.244 123.748C142.55 121.809 143.699 119.762 144.61 117.625L132.4 106.239Z" fill="#D5D5D5"/>
<path d="M113.176 150.139C112.803 150.139 112.501 149.837 112.501 149.463V129.015C112.501 128.641 112.803 128.34 113.176 128.34C113.55 128.34 113.851 128.641 113.851 129.015V149.463C113.849 149.837 113.548 150.139 113.176 150.139Z" fill="#D5D5D5"/>
<path d="M113.176 150.706C112.864 150.706 112.588 150.491 112.518 150.177C112.437 149.814 112.667 149.454 113.031 149.373C113.292 149.315 139.288 143.401 149.111 126.929C149.226 126.736 149.431 126.612 149.655 126.602C149.885 126.598 150.098 126.692 150.232 126.875L156.461 135.302C158.426 132.721 159.759 129.963 159.618 127.311C159.441 123.925 158.072 121.75 155.658 121.015C152.872 120.171 149.319 121.492 148.005 123.245C147.781 123.544 147.359 123.603 147.063 123.38C146.765 123.156 146.704 122.735 146.929 122.437C148.511 120.323 152.65 118.693 156.052 119.726C157.767 120.248 160.687 121.918 160.968 127.24C161.131 130.362 159.556 133.534 157.297 136.431L166.751 149.222C166.91 149.436 166.927 149.723 166.797 149.955C166.667 150.184 166.41 150.329 166.147 150.293L143.299 148.138C143.01 148.111 142.77 147.901 142.705 147.616C142.64 147.332 142.766 147.04 143.012 146.889C143.129 146.819 150.708 142.178 155.588 136.387L149.74 128.477C139.281 144.795 114.395 150.453 113.323 150.689C113.271 150.7 113.223 150.706 113.176 150.706ZM145.366 146.977L164.769 148.808L156.414 137.506C152.78 141.755 147.898 145.284 145.366 146.977Z" fill="#D5D5D5"/>
<path d="M113.304 245.332C112.93 245.332 112.63 245.03 112.63 244.657V222.208C112.63 222.033 112.698 221.863 112.822 221.736C112.855 221.703 114.681 219.82 116.476 217.196V203.742C116.476 203.551 116.556 203.371 116.696 203.243C116.835 203.118 117.024 203.059 117.21 203.069C117.286 203.076 119.042 203.248 120.241 204.802C121.226 206.083 121.528 207.878 121.14 210.14C120.689 212.765 119.287 215.43 117.826 217.625V220.824C122.677 216.603 124.91 208.598 123.933 203.243C123.629 201.577 122.712 198.675 119.99 197.978C118.497 197.595 117.257 197.767 116.2 198.504C113.595 200.313 113.081 204.917 113.076 204.962C113.05 205.215 112.884 205.433 112.645 205.523C112.409 205.613 112.141 205.563 111.952 205.391C111.902 205.346 107.096 200.821 111.724 194.123C113.985 190.85 117.224 189.637 120.359 188.467C124.249 187.011 127.924 185.636 129.728 180.431C130.523 178.133 129.803 174.947 127.93 172.506C126.679 170.874 123.841 168.177 118.933 168.536C114.256 168.866 111.805 172.303 111.128 175.146C110.57 177.489 110.939 180.571 113.652 182.19C116.123 183.67 117.876 182.695 118.703 181.983C120.099 180.784 120.71 178.791 120.121 177.346C119.462 175.732 118.241 175.277 117.394 175.374C116.859 175.437 116.464 175.717 116.409 176.071C116.245 177.137 117.707 177.561 117.72 177.564C118.079 177.666 118.29 178.038 118.189 178.395C118.089 178.755 117.718 178.965 117.358 178.862C116.45 178.607 114.802 177.652 115.077 175.866C115.227 174.89 116.074 174.172 117.237 174.035C118.542 173.883 120.426 174.519 121.371 176.837C122.181 178.824 121.43 181.418 119.584 183.005C117.737 184.595 115.259 184.721 112.962 183.347C110.211 181.703 108.976 178.36 109.82 174.831C110.601 171.544 113.435 167.57 118.84 167.187C122.883 166.911 126.591 168.539 129.003 171.684C131.171 174.512 131.955 178.119 131.004 180.871C128.993 186.674 124.845 188.226 120.831 189.726C117.759 190.875 114.855 191.961 112.836 194.886C110.105 198.835 111.091 201.8 112.008 203.301C112.409 201.583 113.346 198.846 115.427 197.397C116.806 196.437 118.456 196.189 120.327 196.669C122.885 197.326 124.637 199.572 125.263 202.999C126.378 209.115 123.744 218.407 117.542 222.756C117.334 222.903 117.065 222.919 116.842 222.803C116.62 222.686 116.48 222.456 116.48 222.205V219.51C115.366 220.973 114.388 222.045 113.982 222.477V244.653C113.979 245.03 113.676 245.332 113.304 245.332ZM117.826 204.617V215.04C118.748 213.41 119.514 211.635 119.81 209.911C120.131 208.048 119.92 206.612 119.184 205.643C118.769 205.097 118.245 204.789 117.826 204.617Z" fill="#D5D5D5"/>
<path d="M113.176 189.664C113.094 189.664 113.014 189.649 112.937 189.62C112.674 189.521 112.502 189.27 112.502 188.99V182.77C112.502 182.397 112.804 182.096 113.177 182.096C113.551 182.096 113.852 182.397 113.852 182.77V187.553C114.616 187.077 115.458 186.803 116.384 186.5C118.195 185.908 120.451 185.17 123.364 182.467C124.542 181.377 125.123 180.139 125.097 178.786C125.031 175.549 121.623 172.602 121.59 172.571C121.308 172.331 121.273 171.904 121.515 171.621C121.757 171.34 122.182 171.305 122.465 171.547C122.624 171.682 126.366 174.923 126.444 178.759C126.479 180.512 125.752 182.093 124.281 183.454C121.149 186.357 118.739 187.146 116.803 187.779C115.458 188.22 114.486 188.538 113.68 189.438C113.547 189.586 113.364 189.664 113.176 189.664Z" fill="#D5D5D5"/>
<path d="M129.455 197.435C129.305 197.435 129.154 197.386 129.029 197.283C128.769 197.07 128.705 196.698 128.881 196.409C131.79 191.637 136.927 182.43 140.305 174.246C137.691 170.658 134.57 167.46 131.472 164.736C131.282 165.233 131.131 165.739 131.019 166.247C130.586 168.261 130.641 171.139 133.36 173.414C133.645 173.654 133.683 174.08 133.443 174.365C133.206 174.648 132.781 174.688 132.494 174.448C129.968 172.335 128.979 169.322 129.702 165.964C129.859 165.237 130.095 164.514 130.397 163.808C125.03 159.263 119.914 156.177 117.826 154.988V176.164C117.826 176.537 117.524 176.84 117.152 176.84C116.777 176.84 116.476 176.537 116.476 176.164V153.846C116.476 153.611 116.599 153.392 116.802 153.269C117.003 153.145 117.252 153.138 117.463 153.247C117.582 153.309 124.04 156.717 131.005 162.57C132.599 159.7 135.239 157.32 137.923 156.569C140.131 155.952 142.178 156.488 143.678 158.075C146.136 160.677 144.627 167.144 141.851 174.099C143.51 176.457 144.95 178.972 146.036 181.627C146.143 181.885 146.078 182.183 145.872 182.374L129.914 197.253C129.787 197.375 129.622 197.435 129.455 197.435ZM141.243 175.585C138.502 182.114 134.828 188.859 132.399 193.093L144.609 181.708C143.697 179.571 142.549 177.523 141.243 175.585ZM132.048 163.46C135.119 166.132 138.231 169.266 140.895 172.786C143.362 166.488 144.603 161.018 142.701 159.004C141.238 157.455 139.493 157.53 138.287 157.871C135.845 158.551 133.442 160.787 132.048 163.46Z" fill="#D5D5D5"/>
<path d="M113.176 170.994C112.803 170.994 112.501 170.692 112.501 170.319V149.87C112.501 149.497 112.803 149.195 113.176 149.195C113.55 149.195 113.851 149.497 113.851 149.87V170.319C113.849 170.692 113.548 170.994 113.176 170.994Z" fill="#D5D5D5"/>
<path d="M153.812 179.93C151.003 179.93 148.173 178.565 146.927 176.9C146.701 176.602 146.763 176.18 147.06 175.956C147.356 175.732 147.78 175.794 148.003 176.092C149.319 177.842 152.869 179.172 155.656 178.32C158.07 177.587 159.438 175.409 159.615 172.025C159.756 169.366 158.417 166.602 156.445 164.017L150.23 172.462C150.097 172.642 149.902 172.762 149.654 172.735C149.43 172.724 149.225 172.603 149.109 172.408C139.282 155.927 113.291 150.022 113.029 149.964C112.666 149.885 112.436 149.523 112.517 149.16C112.596 148.796 112.95 148.567 113.32 148.647C114.391 148.884 139.275 154.542 149.736 170.858L155.572 162.931C150.69 157.148 143.126 152.517 143.009 152.448C142.762 152.296 142.637 152.005 142.701 151.721C142.767 151.438 143.004 151.228 143.293 151.199L166.141 148.951C166.402 148.924 166.661 149.059 166.792 149.289C166.924 149.52 166.907 149.807 166.75 150.021L157.279 162.886C159.546 165.789 161.128 168.969 160.965 172.096C160.685 177.419 157.765 179.09 156.049 179.61C155.327 179.83 154.57 179.93 153.812 179.93ZM145.355 152.35C147.88 154.037 152.76 157.564 156.396 161.809L164.766 150.44L145.355 152.35Z" fill="#D5D5D5"/>
<path d="M81.1393 132.176C77.4466 132.176 74.1092 130.556 71.8806 127.647C69.7122 124.818 68.9284 121.212 69.8807 118.461C71.8902 112.657 76.0403 111.105 80.052 109.604C83.1258 108.455 86.0299 107.369 88.0502 104.446C90.7784 100.495 89.7947 97.5315 88.8749 96.0302C88.4764 97.7482 87.5385 100.485 85.4568 101.933C84.077 102.895 82.4287 103.137 80.559 102.661C78.0017 102.006 76.2475 99.7589 75.6226 96.3336C74.5053 90.2185 77.1396 80.9237 83.3426 76.5725C83.5485 76.4292 83.8182 76.4111 84.0409 76.5267C84.2637 76.6435 84.4045 76.8735 84.4045 77.1251V79.8196C85.5169 78.3568 86.4958 77.2864 86.9028 76.8542V54.6779C86.9028 54.3046 87.205 54.0024 87.5782 54.0024C87.9515 54.0024 88.2525 54.3046 88.2525 54.6779V77.1251C88.2525 77.3009 88.1826 77.4706 88.061 77.5971C88.0285 77.6308 86.1997 79.5138 84.4057 82.1385V95.5955C84.4057 95.7833 84.3251 95.9651 84.1854 96.0916C84.0469 96.2192 83.8663 96.289 83.6713 96.2673C83.5966 96.2601 81.8388 96.0879 80.6408 94.5324C79.6547 93.2525 79.3537 91.4562 79.7414 89.1951C80.1941 86.5692 81.5956 83.9036 83.056 81.7099V78.5097C78.2039 82.7333 75.9706 90.7374 76.9494 96.0928C77.254 97.7603 78.1702 100.658 80.8924 101.355C82.3854 101.737 83.6255 101.567 84.6826 100.83C87.2856 99.0209 87.7998 94.4168 87.8046 94.3699C87.8311 94.117 87.9984 93.9003 88.2368 93.81C88.4752 93.7209 88.7425 93.7727 88.9291 93.9436C88.9785 93.9882 93.786 98.5128 89.1579 105.213C86.898 108.484 83.658 109.697 80.5252 110.867C76.6327 112.323 72.957 113.698 71.1546 118.902C70.3576 121.202 71.08 124.387 72.951 126.827C74.2019 128.46 77.0217 131.135 81.9496 130.8C86.6271 130.469 89.0772 127.03 89.755 124.187C90.3137 121.845 89.9416 118.765 87.229 117.145C84.7609 115.671 83.0054 116.64 82.1783 117.35C80.7829 118.55 80.1713 120.543 80.7613 121.987C81.4198 123.603 82.6395 124.057 83.4871 123.96C84.0216 123.897 84.4177 123.617 84.4719 123.262C84.6369 122.197 83.1752 121.774 83.1608 121.769C82.802 121.669 82.5925 121.296 82.6936 120.938C82.7936 120.58 83.168 120.372 83.5244 120.471C84.4334 120.726 86.0805 121.681 85.8036 123.467C85.6543 124.444 84.8066 125.162 83.6448 125.299C82.3252 125.451 80.4578 124.814 79.5127 122.497C78.7012 120.51 79.4513 117.914 81.2982 116.328C83.1463 114.743 85.6217 114.614 87.9202 115.987C90.6701 117.63 91.9054 120.972 91.065 124.5C90.28 127.787 87.447 131.762 82.0423 132.145C81.7401 132.167 81.4391 132.176 81.1393 132.176ZM83.0548 84.2936C82.1326 85.9251 81.3668 87.6997 81.0706 89.4239C80.7468 91.2985 80.9623 92.7396 81.7075 93.7101C82.1229 94.247 82.6394 94.5505 83.0548 94.7202V84.2936Z" fill="#D5D5D5"/>
<path d="M78.8554 127.949C78.7001 127.949 78.5447 127.896 78.4183 127.788C78.2582 127.652 74.5162 124.411 74.4391 120.576C74.403 118.823 75.1302 117.241 76.6015 115.879C79.7331 112.977 82.1435 112.189 84.0795 111.554C85.4244 111.115 86.3959 110.797 87.2038 109.895C87.3892 109.687 87.6867 109.617 87.9455 109.715C88.208 109.815 88.3789 110.065 88.3789 110.344V116.567C88.3789 116.94 88.078 117.241 87.7035 117.241C87.3327 117.241 87.0293 116.94 87.0293 116.567V111.782C86.2648 112.257 85.4231 112.533 84.4973 112.835C82.6865 113.428 80.4314 114.166 77.5166 116.868C76.3415 117.956 75.7599 119.194 75.7852 120.545C75.8478 123.774 79.2575 126.734 79.2912 126.763C79.5742 127.005 79.6078 127.431 79.3658 127.714C79.2334 127.868 79.0456 127.949 78.8554 127.949Z" fill="#D5D5D5"/>
<path d="M83.7291 146.163C83.6231 146.163 83.516 146.138 83.4173 146.087C83.2993 146.026 76.8398 142.617 69.876 136.766C68.2831 139.636 65.6415 142.017 62.9578 142.767C60.7461 143.384 58.7017 142.847 57.2028 141.26C54.7442 138.659 56.2528 132.192 59.0292 125.234C57.3713 122.879 55.9314 120.363 54.8442 117.708C54.7394 117.448 54.8032 117.151 55.0091 116.959L70.9668 102.081C71.2136 101.851 71.5916 101.839 71.8517 102.051C72.1118 102.266 72.1768 102.638 72.001 102.925C69.091 107.698 63.9535 116.905 60.5775 125.09C63.1902 128.676 66.3109 131.874 69.41 134.599C69.6002 134.102 69.7531 133.597 69.8615 133.089C70.2949 131.076 70.2407 128.197 67.5233 125.922C67.2356 125.683 67.1983 125.258 67.4391 124.973C67.6751 124.689 68.1013 124.647 68.3866 124.889C70.9126 127.002 71.9035 130.015 71.1811 133.374C71.0221 134.1 70.7886 134.822 70.4852 135.526C75.8526 140.07 80.9683 143.158 83.056 144.348V123.17C83.056 122.797 83.357 122.496 83.7302 122.496C84.1035 122.496 84.4057 122.797 84.4057 123.17V145.489C84.4057 145.724 84.2829 145.943 84.0794 146.066C83.9711 146.129 83.8495 146.163 83.7291 146.163ZM59.99 126.55C57.5194 132.848 56.2793 138.318 58.1816 140.333C59.642 141.881 61.3878 141.805 62.5942 141.466C65.0347 140.785 67.4391 138.548 68.8357 135.875C65.7619 133.203 62.6496 130.068 59.99 126.55ZM56.2709 117.625C57.1823 119.762 58.3309 121.809 59.6384 123.748C62.3775 117.219 66.0545 110.473 68.4817 106.239L56.2709 117.625Z" fill="#D5D5D5"/>
<path d="M87.7047 150.139C87.3338 150.139 87.0304 149.837 87.0304 149.463V129.015C87.0304 128.641 87.3338 128.34 87.7047 128.34C88.0791 128.34 88.3801 128.641 88.3801 129.015V149.463C88.3789 149.837 88.0779 150.139 87.7047 150.139Z" fill="#D5D5D5"/>
<path d="M87.7059 150.706C87.6577 150.706 87.6108 150.7 87.5602 150.689C86.4887 150.453 61.6033 144.794 51.1443 128.476L45.2953 136.389C50.1763 142.179 57.7566 146.819 57.871 146.889C58.1178 147.04 58.2442 147.332 58.1792 147.616C58.113 147.899 57.8734 148.11 57.5845 148.138L34.7375 150.293C34.469 150.328 34.2174 150.184 34.0873 149.954C33.9561 149.723 33.9742 149.434 34.1319 149.222L43.5868 136.431C41.3282 133.534 39.7522 130.362 39.9171 127.24C40.1964 121.918 43.1173 120.247 44.8318 119.726C48.2342 118.69 52.3724 120.323 53.9556 122.437C54.1808 122.735 54.1194 123.157 53.8208 123.38C53.5234 123.603 53.0983 123.544 52.878 123.245C51.5633 121.493 48.0127 120.17 45.2255 121.015C42.8127 121.75 41.4438 123.927 41.2656 127.311C41.1259 129.965 42.4575 132.722 44.4224 135.303L50.6531 126.875C50.7867 126.693 50.9998 126.599 51.2286 126.602C51.4549 126.613 51.6584 126.736 51.774 126.929C61.6009 143.41 87.5915 149.315 87.854 149.373C88.2176 149.454 88.4476 149.814 88.3657 150.177C88.2947 150.491 88.0153 150.706 87.7059 150.706ZM44.467 137.506L36.1113 148.808L55.5148 146.977C52.984 145.284 48.1006 141.755 44.467 137.506Z" fill="#D5D5D5"/>
<path d="M87.577 245.332C87.2038 245.332 86.9016 245.03 86.9016 244.657V222.481C86.4947 222.05 85.5158 220.977 84.4033 219.514V222.208C84.4033 222.46 84.2625 222.69 84.0409 222.807C83.8158 222.922 83.5484 222.907 83.3414 222.76C77.1408 218.411 74.5041 209.119 75.6202 203.004C76.2463 199.576 77.9993 197.329 80.5578 196.673C82.43 196.194 84.0782 196.441 85.4568 197.4C87.5373 198.85 88.4752 201.588 88.8737 203.305C89.7948 201.803 90.7773 198.839 88.049 194.89C86.0287 191.964 83.1235 190.878 80.0509 189.73C76.038 188.229 71.889 186.677 69.8796 180.874C68.9272 178.123 69.711 174.516 71.8818 171.688C74.291 168.542 77.9932 166.903 82.0435 167.191C87.447 167.573 90.2812 171.548 91.0662 174.835C91.9054 178.365 90.6725 181.706 87.9214 183.351C85.6229 184.725 83.1475 184.597 81.2994 183.009C79.4525 181.422 78.7024 178.827 79.5139 176.841C80.4579 174.523 82.3337 173.886 83.646 174.039C84.8079 174.174 85.6555 174.894 85.8048 175.869C86.0817 177.656 84.4346 178.611 83.5256 178.866C83.168 178.968 82.7948 178.759 82.6948 178.399C82.5937 178.041 82.802 177.67 83.1584 177.569C83.2306 177.548 84.6357 177.124 84.4731 176.075C84.4189 175.721 84.0228 175.441 83.4883 175.378C82.6407 175.28 81.421 175.736 80.7625 177.35C80.1725 178.794 80.7841 180.786 82.1796 181.987C83.0079 182.698 84.7609 183.672 87.2303 182.194C89.9429 180.574 90.3149 177.493 89.7562 175.15C89.0772 172.307 86.6259 168.869 81.9508 168.539C77.0313 168.189 74.2043 170.877 72.9522 172.51C71.0812 174.951 70.3588 178.136 71.1558 180.435C72.9582 185.64 76.6339 187.015 80.5228 188.47C83.658 189.642 86.898 190.854 89.1591 194.127C93.7872 200.824 88.9797 205.35 88.9303 205.395C88.7437 205.568 88.4764 205.617 88.238 205.527C87.9996 205.437 87.8323 205.219 87.8058 204.966C87.801 204.92 87.2869 200.316 84.6851 198.508C83.6267 197.772 82.3866 197.599 80.8937 197.982C78.1703 198.679 77.2552 201.58 76.9494 203.247C75.973 208.602 78.2064 216.606 83.0573 220.827V217.628C81.5968 215.434 80.1954 212.769 79.7427 210.143C79.355 207.882 79.6559 206.088 80.642 204.806C81.8388 203.252 83.5978 203.078 83.6725 203.072C83.8591 203.061 84.0481 203.12 84.1866 203.247C84.3251 203.374 84.4069 203.555 84.4069 203.745V217.199C86.2009 219.825 88.0297 221.706 88.0622 221.74C88.185 221.865 88.2537 222.035 88.2537 222.212V244.66C88.2513 245.03 87.9502 245.332 87.577 245.332ZM83.0548 204.617C82.6346 204.789 82.1109 205.095 81.6955 205.644C80.9599 206.613 80.7492 208.05 81.0695 209.912C81.3645 211.636 82.1326 213.408 83.0537 215.041L83.0548 204.617Z" fill="#D5D5D5"/>
<path d="M87.7047 189.665C87.518 189.665 87.3338 189.586 87.2038 189.438C86.3971 188.538 85.4255 188.22 84.0806 187.779C82.1434 187.147 79.7331 186.357 76.6015 183.453C75.1326 182.091 74.403 180.512 74.4391 178.759C74.5149 174.922 78.2581 171.682 78.4183 171.547C78.7 171.304 79.125 171.339 79.367 171.622C79.609 171.904 79.5765 172.329 79.2924 172.571C79.2587 172.6 75.849 175.563 75.7864 178.791C75.7611 180.142 76.3438 181.377 77.5177 182.466C80.4326 185.169 82.6876 185.907 84.4984 186.5C85.4243 186.803 86.2659 187.077 87.0304 187.553V182.77C87.0304 182.397 87.3338 182.096 87.7047 182.096C88.0791 182.096 88.3801 182.397 88.3801 182.77V188.99C88.3801 189.27 88.2079 189.521 87.9467 189.62C87.8672 189.65 87.7865 189.665 87.7047 189.665Z" fill="#D5D5D5"/>
<path d="M71.4243 197.435C71.2594 197.435 71.0956 197.375 70.9656 197.255L55.0079 182.376C54.802 182.184 54.7382 181.887 54.8429 181.628C55.9289 178.973 57.3701 176.458 59.028 174.101C56.2516 167.146 54.7442 160.68 57.2015 158.077C58.7005 156.49 60.7473 155.953 62.9567 156.571C65.6404 157.322 68.2807 159.702 69.8748 162.571C76.8398 156.719 83.2981 153.31 83.4161 153.249C83.6267 153.138 83.8748 153.146 84.0771 153.27C84.2805 153.393 84.4033 153.611 84.4033 153.847V176.166C84.4033 176.539 84.1012 176.841 83.7279 176.841C83.3547 176.841 83.0537 176.539 83.0537 176.166V154.99C80.966 156.179 75.849 159.269 70.4828 163.813C70.7862 164.516 71.0198 165.238 71.1787 165.965C71.9011 169.323 70.909 172.337 68.3842 174.45C68.1001 174.688 67.6727 174.65 67.4367 174.367C67.1971 174.081 67.2333 173.655 67.521 173.416C70.2396 171.14 70.2937 168.263 69.8591 166.248C69.7483 165.741 69.5978 165.236 69.4076 164.74C66.3085 167.464 63.1878 170.662 60.5751 174.249C63.9523 182.432 69.0886 191.638 71.9986 196.411C72.1744 196.698 72.1094 197.072 71.8493 197.285C71.7277 197.386 71.5761 197.435 71.4243 197.435ZM56.2709 181.709L68.4806 193.094C66.0533 188.862 62.3787 182.114 59.6372 175.586C58.3309 177.525 57.1823 179.572 56.2709 181.709ZM61.2024 157.669C60.2296 157.669 59.1448 157.984 58.1816 159.003C56.2793 161.017 57.5194 166.487 59.9888 172.785C62.6496 169.265 65.762 166.131 68.8346 163.459C67.4403 160.786 65.0359 158.55 62.5942 157.868C62.1825 157.754 61.7069 157.669 61.2024 157.669Z" fill="#D5D5D5"/>
<path d="M87.7047 170.994C87.3338 170.994 87.0304 170.692 87.0304 170.319V149.87C87.0304 149.497 87.3338 149.195 87.7047 149.195C88.0791 149.195 88.3801 149.497 88.3801 149.87V170.319C88.3789 170.692 88.0779 170.994 87.7047 170.994Z" fill="#D5D5D5"/>
<path d="M47.0699 179.93C46.3114 179.93 45.5553 179.83 44.8317 179.61C43.1172 179.089 40.1964 177.419 39.9171 172.096C39.7521 168.968 41.3353 165.789 43.6024 162.887L34.1319 150.021C33.9754 149.806 33.9561 149.52 34.0885 149.289C34.2198 149.059 34.4786 148.923 34.7423 148.952L57.588 151.199C57.877 151.227 58.1154 151.437 58.1804 151.721C58.2442 152.004 58.1189 152.296 57.8721 152.448C57.7565 152.517 50.1919 157.15 45.3097 162.932L51.1455 170.858C61.6069 154.542 86.4898 148.884 87.5613 148.647C87.9274 148.568 88.2849 148.796 88.3644 149.16C88.4463 149.523 88.2163 149.885 87.8527 149.964C87.5902 150.022 61.5949 155.936 51.7727 172.408C51.6572 172.603 51.4513 172.726 51.2273 172.735C50.9962 172.762 50.7843 172.644 50.6506 172.462L44.4356 164.018C42.4647 166.603 41.1259 169.369 41.2655 172.025C41.4437 175.41 42.8127 177.587 45.2254 178.321C48.0139 179.169 51.5644 177.844 52.878 176.092C53.1019 175.795 53.5257 175.733 53.8207 175.956C54.1193 176.181 54.1807 176.602 53.9556 176.9C52.7082 178.564 49.8776 179.93 47.0699 179.93ZM36.1148 150.44L44.4838 161.809C48.121 157.564 52.9996 154.037 55.5256 152.35L36.1148 150.44Z" fill="#D5D5D5"/>
<path d="M100.272 162.534C100.099 162.534 99.9264 162.468 99.7951 162.336L87.3989 149.941C87.2737 149.815 87.2026 149.644 87.2026 149.465C87.2026 149.286 87.2737 149.114 87.3989 148.988L99.7951 136.593C100.059 136.329 100.485 136.329 100.749 136.593L113.145 148.988C113.27 149.113 113.342 149.285 113.342 149.465C113.342 149.644 113.27 149.815 113.145 149.941L100.749 162.336C100.616 162.469 100.444 162.534 100.272 162.534ZM88.8292 149.465L100.272 160.907L111.715 149.465L100.272 138.023L88.8292 149.465Z" fill="#D5D5D5"/>
</svg>
