<svg width="54" height="72" viewBox="0 0 54 72" fill="none" xmlns="http://www.w3.org/2000/svg">
<path d="M16.1748 42.3286L21.5944 39.6713M16.1748 42.3286L11.9729 58.1328M16.1748 42.3286L12.9837 36.3147M21.5944 39.6713L26.944 36.944L32.4743 39.6713M21.5944 39.6713L16.9852 64.0769M16.9852 64.0769L16.7343 65.4055L27.014 70.93L37.3083 65.4055L37.0588 64.0769M16.9852 64.0769L11.4895 59.951L11.9729 58.1328M11.9729 58.1328L6.73426 47.1538L10.7203 32.0489M10.7203 32.0489V25.7552M10.7203 32.0489L12.9837 36.3147M10.7203 25.7552L5.82517 20.9301L1 1L10.7203 6.03496V15.1958M10.7203 25.7552V15.1958M12.9837 36.3147C15.8574 25.9091 23.4647 28.9487 26.944 31.6993C30.4047 28.9487 38.1805 25.9091 41.0387 36.3147M37.8648 42.3286L32.4743 39.6713M37.8648 42.3286L42.0441 58.1328M37.8648 42.3286L41.0387 36.3147M32.4743 39.6713L37.0588 64.0769M37.0588 64.0769L42.5249 59.951L42.0441 58.1328M42.0441 58.1328L47.2546 47.1538L43.29 32.0489M43.29 32.0489V25.7552M43.29 32.0489L41.0387 36.3147M43.29 25.7552L48.1588 20.9301L52.958 1L43.29 6.03496V15.1958M43.29 25.7552V15.1958M10.7203 15.1958C17.3636 11.5594 29.3916 7.36363 43.29 15.1958" stroke="#111827" stroke-width="2" stroke-linejoin="round"/>
<circle cx="33.7273" cy="33.028" r="1" stroke="#111827" stroke-width="1.21678"/>
<path d="M19.7412 32.4196H23.0559C23.1061 32.4196 23.1468 32.4603 23.1468 32.5105C23.1468 34.3682 21.6408 35.8741 19.7831 35.8741H18.4405C18.2049 35.8741 18.0139 35.6831 18.0139 35.4475V34.1468C18.0139 33.1929 18.7872 32.4196 19.7412 32.4196Z" stroke="#111827" stroke-width="2"/>
<path d="M25.986 41.2307H27.902V42.0489C27.902 42.578 27.4731 43.007 26.944 43.007C26.4149 43.007 25.986 42.578 25.986 42.0489V41.2307Z" stroke="#111827" stroke-width="1.88811"/>
</svg>
