<svg width="40" height="56" viewBox="0 0 40 56" fill="none" xmlns="http://www.w3.org/2000/svg">
<path d="M17.7085 16C21.4085 13.3 25.0085 10.6 28.5085 8C29.0085 8.9 28.7085 11.2 27.7085 12C25.2085 14.1 22.7085 16.1 20.2085 18.1C20.1085 18.2 19.9084 18.3 19.8084 18.4C16.6084 19.8 17.1085 22.5 17.4085 25.4C18.1085 25 18.8085 24.7 19.4085 24.3C21.9085 22.6 24.4085 20.8 26.9085 19C27.5085 18.5 27.9085 18.8 28.2085 19.4C28.7085 20.7 28.5084 21.5 27.3084 22.3C24.4084 24.4 21.5085 26.4 18.5085 28.5C17.5085 29.2 17.2085 29.9 17.2085 31.1C17.3085 35.8 17.3085 40.4 17.4085 45.1C17.4085 46.4 16.7085 46.6 15.7085 46.6C14.7085 46.6 13.9085 46.6 14.0085 45.2C14.1085 37 14.1084 28.8 14.1084 20.5C14.1084 17.7 14.1084 14.8 14.1084 12C14.1084 11.7 14.1084 11.4 14.1084 11C14.1084 10.3 14.0085 9.09999 14.2085 9.09999C15.1085 8.79999 16.2085 8.8 17.2085 8.8C17.4085 8.8 17.6084 9.49999 17.6084 9.89999C17.7084 11.7 17.7085 13.7 17.7085 16Z" fill="#111827"/>
</svg>
