<svg width="40" height="56" viewBox="0 0 40 56" fill="none" xmlns="http://www.w3.org/2000/svg">
<path d="M16.5 14.9637C16.5 16.3637 16.5 17.2637 16.5 18.2637C16.5 19.3637 16.8 20.3637 16.7 21.4637C16.6 22.6637 17.1 23.4637 17.9 24.1637C20.2 26.1637 22.4 28.1637 24.7 30.1637C25.2 30.5637 25.6 30.9637 25 31.5637C24.5 32.0637 24 32.2637 23.4 31.7637C21.7 30.2637 20 28.8637 18.4 27.3637C18.1 27.0637 17.7 26.8637 17.4 26.6637C17.3 26.6637 17.1 26.7637 17 26.7637C17.4 32.9637 17.8 39.1637 18.2 45.3637C17 45.2637 16 45.2637 15 45.1637C15 44.1637 15 42.9637 15 41.8637C14.9 36.5637 14.9 31.2637 14.7 25.9637C14.6 21.4637 14.2 16.9637 14 12.4637C14 11.9637 14.3 11.1637 14.7 11.0637C15.2 10.8637 15.9 11.1637 16.4 11.5637C19.4 14.0637 22.3 16.7637 25.3 19.2637C26.3 20.0637 25.8 20.8637 25.5 21.6637C25.4 21.7637 24.7 21.8637 24.5 21.6637C22.5 19.9637 20.5 18.2637 18.6 16.5637C17.8 15.9637 17.3 15.5637 16.5 14.9637Z" fill="#111827"/>
</svg>
