<svg width="40" height="56" viewBox="0 0 40 56" fill="none" xmlns="http://www.w3.org/2000/svg">
<path d="M30 24.5364C30 22.2364 30 19.7364 30 17.3364C29.9 17.2364 29.7 17.1364 29.6 17.0364C26.3 19.5364 22.9 21.8364 20.1 25.1364C16.5 22.5364 12.8 19.8364 8.89999 16.9364C8.89999 17.9364 8.89999 18.6364 8.89999 19.2364C9.09999 23.1364 9.39999 26.9364 9.59999 30.8364C9.69999 34.1364 9.79999 37.3364 9.89999 40.6364C9.89999 41.5364 9.79999 42.0364 8.89999 42.1364C7.29999 42.3364 6.6 41.9364 6.5 40.8364C6.4 38.8364 6.29999 36.7364 6.29999 34.7364C6.29999 29.7364 6.3 24.7364 6.2 19.7364C6.2 18.2364 6.1 16.6364 6 15.1364C6 14.8364 6 14.5364 6 14.3364C6.3 12.9364 6.89999 12.6364 8.09999 13.4364C10.4 15.0364 12.7 16.7364 15 18.4364C16.3 19.3364 17.5 20.2364 18.8 21.0364C19.2 21.2364 20 21.2364 20.4 20.9364C23.8 18.5364 27.2 16.0364 30.6 13.6364C30.9 13.4364 31.3 13.3364 31.6 13.1364C31.8 13.5364 32.1 13.8364 32.1 14.2364C32.3 17.0364 32.3 19.8364 32.7 22.5364C33.3 26.5364 33.2 30.6364 33.8 34.6364C34.1 36.7364 34.2 38.9364 34.4 41.0364C34.5 41.6364 33.5 42.6364 32.6 42.7364C31.7 42.8364 31.1 42.4364 31 41.5364C30.9 40.5364 30.9 39.5364 30.8 38.5364C30.7 36.0364 30.7 33.5364 30.5 31.0364C30.3 29.3364 30.8 27.7364 30.5 26.0364C30.3 25.6364 30.1 25.1364 30 24.5364Z" fill="#111827"/>
</svg>
