<svg width="40" height="56" viewBox="0 0 40 56" fill="none" xmlns="http://www.w3.org/2000/svg">
<path d="M10 12.7216C10.9 12.7216 11.6 12.6216 12.3 12.7216C12.6 12.7216 13 13.1216 13.1 13.4216C14.3 15.8216 15.5 18.3216 16.7 20.8216C17.5 22.3216 18.3 23.9216 19.2 25.7216C19.8 24.4216 20.4 23.5216 20.8 22.4216C22.2 19.2216 23.7 15.9216 25.1 12.6216C25.7 11.1216 26.1 10.9216 28 11.0216C27.9 11.6216 27.8 12.2216 27.6 12.8216C26.7 15.2216 25.7 17.5216 24.7 19.8216C23.5 22.5216 22.2 25.2216 21 27.9216C20.8 28.3216 20.8 28.8216 21 29.2216C22.6 32.3216 24.2 35.4216 25.9 38.5216C26.9 40.3216 27.9 42.0216 28.9 43.8216C29.4 44.7216 29.1 45.0216 28.2 45.3216C26.9 45.6216 26.3 45.2216 25.7 44.0216C23.9 40.5216 22 37.0216 20.2 33.6216C20 33.2216 19.7 32.9216 19.3 32.3216C18.3 34.4216 17.3 36.3216 16.5 38.2216C15.7 40.0216 15.1 41.9216 14.4 43.8216C13.9 45.0216 12.9 45.3216 11.9 44.5216C11.7 44.4216 11.7 43.8216 11.8 43.5216C12.9 40.9216 14 38.3216 15.2 35.6216C16.1 33.6216 17 31.6216 17.7 29.5216C17.9 28.9216 17.8 28.1216 17.5 27.5216C16 24.6216 14.4 21.7216 12.9 18.8216C12 17.1216 11.2 15.3216 10.4 13.5216C10.1 13.5216 10.1 13.1216 10 12.7216Z" fill="#111827"/>
</svg>
