<svg width="40" height="56" viewBox="0 0 40 56" fill="none" xmlns="http://www.w3.org/2000/svg">
<path d="M18.3168 20.4225C18.4168 20.0225 18.6168 19.5224 18.6168 19.1224C18.7168 16.2224 18.8168 13.3225 18.8168 10.4225C18.8168 9.12245 19.6168 9.02245 20.5168 9.02245C21.4168 8.92245 22.0168 9.12245 22.0168 10.3225C22.1168 13.3225 22.3168 16.3225 22.4168 19.3225C22.4168 19.7225 22.4168 20.2224 22.4168 20.6224C22.5168 20.7224 22.6168 20.8225 22.7168 20.8225C23.1168 20.4225 23.6168 20.1224 24.0168 19.7224C25.9168 17.3224 27.8168 14.9224 29.7168 12.5224C30.6168 11.4224 31.7168 11.0225 33.4168 11.3225C32.7168 12.5225 32.2168 13.7224 31.4168 14.7224C29.1168 17.8224 26.7168 20.8225 24.3168 23.9225C23.1168 25.4225 22.3168 26.9224 22.3168 29.0224C22.4168 34.1224 22.1168 39.3225 22.0168 44.4225C22.0168 44.8225 21.9168 45.2224 21.9168 45.2224C20.7168 45.7224 19.7168 46.1224 18.6168 46.7224C18.7168 45.9224 18.8168 45.1225 18.8168 44.4225C18.7168 38.3225 18.7168 32.2224 18.6168 26.1224C18.6168 25.8224 18.4168 25.3224 18.2168 25.1224C14.9168 22.1224 11.6168 19.2224 8.31676 16.2224C7.81676 15.8224 7.31676 15.4224 6.81676 15.0224C6.01676 14.4224 5.71676 13.6224 6.31676 12.7224C6.61676 12.2224 6.81676 11.6224 7.11676 11.0224C10.8168 14.3224 14.4168 17.5224 17.9168 20.7224C18.0168 20.6224 18.1168 20.5225 18.3168 20.4225Z" fill="#111827"/>
</svg>
