<svg width="60" height="84" viewBox="0 0 60 84" fill="none" xmlns="http://www.w3.org/2000/svg">
<path d="M50.55 23.4C50.55 24 50.55 24.75 50.55 25.35C50.85 33.3 51 41.25 51.3 49.2C51.45 52.2 51.75 55.2 51.9 58.2C51.9 59.1 51.3 60.15 51 61.2C47.4 58.35 44.1 55.95 40.95 53.4C37.8 50.7 34.65 47.85 31.5 45.15C30.6 44.4 29.85 44.55 28.95 45.3C24.45 49.05 19.95 52.8 15.45 56.55C13.65 58.05 12.3 59.85 10.35 61.95C9.89999 60.6 9.3 59.7 9.3 58.65C9.15 47.1 9 35.7 9 24.15C9 23.55 9.29999 22.5 9.59999 22.5C10.35 22.5 11.1 22.65 11.7 23.1C17.4 28.05 23.1 33 28.65 38.1C29.85 39.15 30.6 39 31.65 38.1C36.45 34.05 41.4 30 46.2 25.95C47.4 24.9 48.75 24 50.1 22.95C50.25 23.1 50.4 23.25 50.55 23.4ZM47.4 29.55C46.5 30 46.05 30.3 45.6 30.6C42 33.75 38.4 37.05 34.8 40.2C33.15 41.7 33.15 42 34.8 43.35C38.25 46.05 41.7 48.9 45.15 51.6C45.75 52.05 46.5 52.5 47.4 52.95C47.4 45.15 47.4 37.65 47.4 29.55ZM13.65 30C13.65 37.65 13.65 44.7 13.65 52.05C14.4 51.75 14.85 51.6 15.15 51.45C18.75 48.6 22.2 45.6 25.65 42.6C26.85 41.55 26.55 40.8 25.5 40.05C23.1 37.95 20.7 35.7 18.15 33.45C16.95 32.25 15.45 31.35 13.65 30Z" fill="#111827"/>
</svg>
