<svg width="60" height="84" viewBox="0 0 60 84" fill="none" xmlns="http://www.w3.org/2000/svg">
<path d="M27.4751 30.6337C27.6251 30.0337 27.9251 29.2837 27.9251 28.6837C28.0751 24.3337 28.2251 19.9837 28.2251 15.6337C28.2251 13.6837 29.4251 13.5337 30.7751 13.5337C32.1251 13.3837 33.0251 13.6837 33.0251 15.4837C33.1751 19.9837 33.4751 24.4837 33.6251 28.9837C33.6251 29.5837 33.6251 30.3337 33.6251 30.9337C33.7751 31.0837 33.9251 31.2337 34.0751 31.2337C34.6751 30.6337 35.4251 30.1837 36.0251 29.5837C38.8751 25.9837 41.7251 22.3837 44.5751 18.7837C45.9251 17.1337 47.5751 16.5337 50.1251 16.9837C49.0751 18.7837 48.3251 20.5837 47.1251 22.0837C43.6751 26.7337 40.0751 31.2337 36.4751 35.8837C34.6751 38.1337 33.4751 40.3837 33.4751 43.5337C33.6251 51.1837 33.1751 58.9837 33.0251 66.6337C33.0251 67.2337 32.8751 67.8337 32.8751 67.8337C31.0751 68.5837 29.5751 69.1837 27.9251 70.0837C28.0751 68.8837 28.2251 67.6837 28.2251 66.6337C28.0751 57.4837 28.0751 48.3337 27.9251 39.1837C27.9251 38.7337 27.6251 37.9837 27.3251 37.6837C22.3751 33.1837 17.4251 28.8337 12.4751 24.3337C11.7251 23.7337 10.9751 23.1337 10.2251 22.5337C9.02514 21.6337 8.57514 20.4337 9.47514 19.0837C9.92514 18.3337 10.2251 17.4337 10.6751 16.5337C16.2251 21.4837 21.6251 26.2837 26.8751 31.0837C27.0251 30.9337 27.1751 30.7837 27.4751 30.6337Z" fill="#111827"/>
</svg>
