<svg width="40" height="56" viewBox="0 0 40 56" fill="none" xmlns="http://www.w3.org/2000/svg">
<path d="M30.6418 26.9168C26.8418 29.4168 25.0418 33.3168 22.6418 36.7168C21.5418 38.3168 21.6418 39.7168 23.2418 41.3168C25.2418 43.3168 27.2418 45.3168 29.2418 47.3168C30.0418 48.0168 30.0418 48.8168 29.8418 49.7168C29.7418 50.0168 29.4418 50.5168 29.1418 50.6168C28.8418 50.7168 28.3418 50.4168 28.1418 50.2168C27.1418 49.1168 26.2418 48.0168 25.2418 46.9168C23.4418 45.0168 21.7418 43.2168 19.7418 41.0168C18.6418 42.8168 17.5418 44.4168 16.6418 46.0168C15.8418 47.4168 15.3418 48.9168 14.5418 50.2168C14.2418 50.7168 13.5418 51.3168 13.0418 51.3168C11.6418 51.3168 11.2418 50.6168 11.8418 49.3168C12.7418 47.5168 13.8418 45.7168 14.8418 43.9168C15.6418 42.5168 16.6418 41.2168 17.4418 39.7168C17.6418 39.4168 17.6418 38.7168 17.3418 38.4168C14.8418 35.2168 12.3418 32.1168 9.74182 29.0168C9.04182 28.2168 8.64183 27.5168 9.44183 26.5168C11.8418 23.3168 14.1418 20.1168 16.5418 16.9168C18.4418 14.4168 18.4418 14.5168 16.8418 11.9168C15.9418 10.5168 15.0418 9.21676 14.2418 7.81676C13.7418 7.01676 13.5418 6.11676 13.3418 5.21676C13.2418 4.91676 13.6418 4.21676 13.9418 4.11676C14.2418 4.01676 14.8418 4.31676 15.1418 4.61676C16.6418 6.71676 18.0418 8.81676 19.4418 11.0168C20.2418 12.2168 20.4418 12.3168 21.2418 11.1168C22.6418 9.01676 24.1418 6.91676 25.4418 4.81676C25.9418 4.01676 26.3418 3.71676 27.2418 4.31676C28.3418 5.01676 28.5418 5.51676 27.9418 6.41676C26.2418 8.81676 24.5418 11.2168 22.8418 13.6168C22.1418 14.5168 22.3418 15.3168 22.9418 16.1168C24.7418 18.6168 26.5418 21.1168 28.3418 23.6168C28.9418 24.5168 29.7418 25.7168 30.6418 26.9168ZM19.4418 36.7168C19.7418 36.4168 19.9418 36.2168 20.1418 36.0168C22.3418 33.0168 24.6418 30.0168 26.8418 27.0168C27.4418 26.2168 27.3418 25.5168 26.7418 24.7168C24.6418 22.3168 22.6418 19.8168 20.7418 17.3168C20.1418 16.6168 19.7418 16.7168 19.2418 17.3168C17.0418 20.3168 14.7418 23.2168 12.4418 26.2168C11.9418 26.8168 11.9418 27.4168 12.4418 28.0168C13.2418 29.0168 13.8418 30.0168 14.6418 30.9168C16.1418 32.9168 17.7418 34.7168 19.4418 36.7168Z" fill="#111827"/>
</svg>
