<svg width="60" height="84" viewBox="0 0 60 84" fill="none" xmlns="http://www.w3.org/2000/svg">
<path d="M34.1833 21.9844C34.1833 24.8344 34.1833 27.2344 34.1833 29.6344C34.1833 30.5344 34.4833 31.4344 34.4833 32.3344C34.7833 38.4844 34.9333 44.6344 35.2333 50.7844C35.5333 55.7344 35.9833 60.5344 36.4333 65.4844C36.7333 69.0844 36.2833 69.5344 32.0833 69.9844C31.7833 68.3344 31.3333 66.8344 31.1833 65.1844C30.4333 57.6844 29.8333 50.1844 29.0833 42.6844C28.7833 38.9344 28.6333 35.0344 28.1833 31.2844C27.8833 28.8844 27.1333 26.3344 26.3833 23.3344C23.8333 25.7344 21.7333 27.6844 19.4833 29.6344C17.6833 31.2844 15.8833 32.7844 13.9333 34.1344C13.1833 34.5844 11.8333 34.2844 10.6333 34.1344C10.6333 34.1344 10.3333 32.9344 10.6333 32.7844C14.8333 28.7344 19.1833 24.6844 23.5333 20.6344C25.6333 18.6844 27.7333 16.5844 29.9833 14.6344C31.7833 12.9844 32.5333 13.1344 34.1833 15.0844C38.2333 20.3344 42.2833 25.4344 46.4833 30.5344C47.5333 31.8844 48.7333 33.2344 49.7833 34.7344C49.9333 35.0344 50.0833 35.6344 49.9333 35.7844C49.4833 36.2344 48.8833 36.9844 48.4333 36.8344C47.5333 36.6844 46.3333 36.2344 45.7333 35.6344C42.2833 31.5844 38.8333 27.5344 35.3833 23.4844C35.2333 23.0344 34.9333 22.7344 34.1833 21.9844Z" fill="#111827"/>
</svg>
