<svg width="40" height="56" viewBox="0 0 40 56" fill="none" xmlns="http://www.w3.org/2000/svg">
<path d="M12.9047 15.4985C12.8047 23.5985 13.2047 31.4985 13.7047 39.5985C15.5047 38.7985 17.0047 38.0985 18.5047 37.2985C19.4047 36.8985 20.1047 36.2985 21.0047 35.8985C21.9047 35.3985 22.6047 35.3985 23.5047 36.1985C25.7047 38.1985 28.0047 40.0985 30.3047 41.8985C30.9047 42.3985 31.2047 42.8985 30.6047 43.4985C30.1047 43.9985 29.6047 44.5985 28.7047 43.7985C26.8047 41.9985 24.8047 40.3985 22.9047 38.6985C22.4047 38.2985 22.0047 38.0985 21.5047 38.4985C18.9047 40.2985 16.2047 42.0985 13.6047 43.7985C13.5047 43.7985 13.5047 43.8985 13.4047 43.9985C12.8047 44.2985 12.2047 44.4985 11.7047 44.7985C11.5047 44.1985 11.2047 43.5985 11.2047 42.9985C11.1047 40.8985 11.3047 38.7985 11.1047 36.5985C10.9047 32.0985 10.6047 27.5985 10.2047 23.0985C9.90473 19.5985 9.90474 15.9985 10.4047 12.4985C10.6047 11.3985 12.0047 10.7985 12.9047 11.3985C15.0047 12.7985 17.1047 14.0985 19.1047 15.5985C20.4047 16.4985 21.6047 16.4985 22.8047 15.6985C24.9047 14.3985 26.9047 12.9985 28.9047 11.5985C30.2047 10.6985 30.3047 10.6985 30.9047 12.3985C28.6047 14.1985 26.2047 15.8985 24.0047 17.9985C22.1047 19.8985 20.5047 19.7985 18.4047 18.3985C16.9047 17.3985 15.1047 16.5985 12.9047 15.4985Z" fill="#111827"/>
</svg>
