<svg width="40" height="56" viewBox="0 0 40 56" fill="none" xmlns="http://www.w3.org/2000/svg">
<path d="M23.7677 30.4C23.5677 32.1 23.2677 33.5 23.2677 34.9C23.1677 38.4 23.0677 41.8 23.0677 45.3C23.0677 46.3 22.1677 47.3 21.1677 47.3C20.6677 47.3 20.1677 47.2 19.3677 47C19.5677 44 19.7677 41 19.9677 38.1C20.0677 36.3 20.2677 34.5 20.4677 32.7C20.5677 31.2 20.8677 29.8 20.8677 28.3C20.8677 27.9 20.6677 27.3 20.3677 26.9C17.6677 23.9 14.7677 20.9 12.0677 17.8C10.6677 16.1 9.5677 14.1 8.2677 12.2C7.6677 11.3 8.16771 10.5 8.86771 10.1C9.16771 9.9 10.0677 10.2 10.4677 10.6C13.0677 13.6 15.4677 16.6 17.9677 19.7C19.0677 21 20.1677 22.2 21.3677 23.7C21.5677 23 21.7677 22.6 21.8677 22.2C22.0677 19.1 22.2677 16 22.3677 12.9C22.3677 12.1 22.4677 11.2 22.5677 10.4C22.6677 9.3 23.5677 9 24.4677 9C25.4677 9.1 25.8677 10 25.8677 10.9C25.7677 13 25.3677 15.1 25.1677 17.1C24.7677 19.9 24.3677 22.7 24.1677 25.5C24.0677 26.2 24.5677 27.1 25.0677 27.6C26.5677 29.3 28.1677 30.8 29.7677 32.4C30.2677 33 30.7677 33.6 31.1677 34.3C31.5677 35 31.2677 35.7 30.4677 35.6C29.7677 35.5 29.0677 35.2 28.5677 34.8C27.2677 33.7 26.1677 32.5 24.9677 31.3C24.5677 31 24.3677 30.8 23.7677 30.4Z" fill="#111827"/>
</svg>
