<svg width="40" height="56" viewBox="0 0 40 56" fill="none" xmlns="http://www.w3.org/2000/svg">
<path d="M26.0241 22.3C24.9241 24.5 23.0241 26.1 21.1241 27.8C19.8241 29.1 18.4241 30.3 17.2241 31.6C17.0241 31.8 17.0241 32.5 17.2241 32.7C18.8241 34.4 20.4241 36.1 22.0241 37.8C24.5241 40.4 27.0241 43 29.4241 45.7C30.1241 46.5 29.7241 47.4 28.7241 47.6C27.3241 47.9 26.0241 47.3 25.2241 46.1C23.5241 43.2 20.8241 41.1 18.6241 38.8C17.5241 37.6 16.1241 36.7 14.9241 35.7C14.6241 35.5 14.3241 35.4 13.8241 35.1C13.7241 35.6 13.5241 36 13.5241 36.3C13.4241 39.7 13.3241 43.2 13.1241 46.6C13.1241 47.1 12.7241 47.6 12.3241 48C11.6241 48.6 10.9241 49 10.0241 49.6C9.82413 35.3 10.9241 21.3 11.2241 7.2C11.4241 7.1 11.5241 7.1 11.7241 7C12.5241 7.6 13.5241 8.2 14.1241 9C18.2241 13.4 22.1241 17.8 26.0241 22.3ZM13.7241 30.3C13.8241 30.4 14.0241 30.4 14.1241 30.5C16.6241 27.8 19.2241 25.1 21.7241 22.4C21.9241 22.2 21.8241 21.6 21.6241 21.4C19.5241 19 17.3241 16.6 15.1241 14.3C14.9241 14.1 14.7241 14.1 14.2241 13.8C14.0241 19.4 13.8241 24.9 13.7241 30.3Z" fill="#111827"/>
</svg>
