<svg width="40" height="56" viewBox="0 0 40 56" fill="none" xmlns="http://www.w3.org/2000/svg">
<path d="M15.9 15.5C15.6 17.6 15.4 19.7 15.2 21.7C15.1 22.8 14.9 24 14.9 25.1C14.9 28.4 15 31.8 15.2 35.1C15.4 38.8 15.9 42.5 16.2 46.2C16.2 46.5 15.7 47.1 15.4 47.2C14.2 47.5 13.4 47 13.3 46.1C13.2 44.7 13.1 43.3 13.1 41.9C13.1 34 13.1 26.1 13.1 18.2C13.1 16.2 13 14.2 13 12.1C13 10.6 14 9.4 14.8 8C15.9 9.4 16.7 10.7 17.7 11.9C20.3 15 22.9 18 25.6 21C26 21.5 26.4 22 26.8 22.5C27.4 23.2 27.4 23.8 26.7 24.6C22.8 22.1 19.5 18.9 16.5 15.3C16.2 15.4 16 15.5 15.9 15.5Z" fill="#111827"/>
</svg>
