<svg width="40" height="56" viewBox="0 0 40 56" fill="none" xmlns="http://www.w3.org/2000/svg">
<path d="M31.4873 23.9026C30.2873 22.8026 29.2873 21.9026 28.1873 20.9026C26.8873 19.7026 25.6873 18.5026 24.3873 17.4026C23.9873 17.1026 23.4873 17.0026 22.9873 16.8026C22.7873 17.2026 22.5873 17.6026 22.5873 18.1026C22.2873 22.5026 22.0873 26.9026 21.7873 31.2026C21.4873 35.1026 21.1872 39.0026 20.8872 42.9026C20.7872 44.5026 19.0873 45.2026 17.8873 44.1026C14.8873 41.6026 11.9873 39.0026 9.08726 36.4026C7.78726 35.2026 7.78725 34.7026 8.38725 33.3026C8.78725 32.4026 9.38726 32.3026 10.0873 33.0026C10.5873 33.5026 11.0873 34.2026 11.5873 34.7026C13.1873 36.2026 14.8873 37.7026 16.5873 39.1026C16.7873 39.3026 17.0873 39.4026 17.4873 39.6026C17.6873 38.3026 18.0873 37.1026 18.1873 35.9026C18.3873 34.2026 18.3873 32.4026 18.4873 30.6026C18.5873 29.2026 18.7872 27.8026 18.8872 26.4026C19.1872 21.6026 19.4872 16.9026 19.8872 12.1026C19.9872 10.9026 20.7873 10.7026 22.2873 11.4026C22.4873 11.5026 22.7873 11.7026 22.9873 11.9026C25.7873 14.7026 28.6873 17.6026 31.4873 20.4026C31.9873 20.9026 32.1873 21.4026 31.7873 22.1026C31.7873 22.6026 31.7873 23.1026 31.4873 23.9026Z" fill="#111827"/>
</svg>
