<svg width="40" height="56" viewBox="0 0 40 56" fill="none" xmlns="http://www.w3.org/2000/svg">
<path d="M26.2 26.7C24.4 26.7 22.9 26.7 21.5 26.7C17.4 26.8 13.2 26.9 9.1 26.9C8.8 26.9 8.4 26.6 8 26.4C13.8 20 20.1 14.1 26.3 8C26.7 8.9 27 9.50001 27.2 10.1C27.3 10.5 27.2 11 26.9 11.3C23.5 14.6 20.1 17.9 16.8 21.3C16 22.1 15.3 23 14.3 24C15 24.1 15.5 24.3 15.9 24.3C20.1 24.3 24.2 24.2 28.4 24.1C29 24.1 29.7 23.9 30.3 23.9C31.4 23.9 31.7 24.7 31.2 25.6C27.6 31.7 23.8 37.6 19.7 43.3C19 44.3 18.5 45.4 18 46.6C17.6 47.6 15.2 48.2 14.4 47.5C14.2 47.3 14.2 46.8 14.3 46.6C15.1 45.1 15.9 43.6 16.8 42.2C19.7 37.7 22.6 33.2 25.4 28.7C25.6 28.1 25.8 27.5 26.2 26.7Z" fill="#111827"/>
</svg>
