<svg width="40" height="56" viewBox="0 0 40 56" fill="none" xmlns="http://www.w3.org/2000/svg">
<path d="M8 34.4709C8.8 33.5709 9.5 32.8709 10 32.0709C11.3 29.9709 12.6 27.8709 13.8 25.7709C15.8 22.1709 17.8 18.5709 19.8 14.9709C20.7 13.3709 21.6 11.8709 22.4 10.2709C22.8 9.47089 23.4 8.77089 24.4 9.07089C25.1 9.27089 25.3 10.7709 24.8 11.5709C21.7 17.2709 18.7 22.9709 15.6 28.6709C15.1 29.4709 14.6 30.2709 14.1 31.0709C13.5 31.8709 13.7 32.5709 14.5 33.1709C17.2 35.2709 19.9 37.3709 22.5 39.4709C24.8 41.3709 27.1 43.2709 29.4 45.1709C29.9 45.6709 30.5 46.0709 31 46.5709C31.2 46.7709 31.2 47.1709 31.2 47.4709C30.9 47.4709 30.7 47.5709 30.4 47.5709C29.7 47.5709 28.9 47.4709 28.2 47.4709C28 47.4709 27.7 47.2709 27.5 47.0709C22.9 43.2709 18.1 39.6709 12.9 36.6709C12 36.1709 11.1 35.8709 10.2 35.4709C9.6 35.2709 8.9 34.8709 8 34.4709Z" fill="#111827"/>
</svg>
