<svg width="40" height="56" viewBox="0 0 40 56" fill="none" xmlns="http://www.w3.org/2000/svg">
<path d="M11.1 26.8162C11.1 21.7162 11.1 16.6162 11.1 11.5162C11.1 10.4162 11.2 9.3162 11.3 8.2162C11.4 7.0162 12.3 6.61621 13.2 7.41621C15.5 9.31621 17.7 11.3162 20 13.3162C22.5 15.4162 24.9 17.6162 27.4 19.7162C28.5 20.6162 28.6 21.7162 27.6 22.7162C26.1 24.2162 24.6 25.7162 23 27.0162C21.4 28.4162 19.7 29.6162 18.1 30.9162C16.9 31.9162 15.7 33.0162 14.7 34.2162C14.4 34.6162 14.4 35.4162 14.5 36.0162C14.5 36.8162 14.7 37.6162 14.7 38.4162C14.9 41.5162 15 44.6162 15.2 47.7162C15.2 48.8162 14.5 49.6162 13.3 49.5162C12.9 49.5162 12.2 48.6162 12.1 48.1162C11.7 44.9162 11.4 41.7162 11.2 38.5162C10.9 34.6162 11 30.7162 11.1 26.8162ZM14.2 30.6162C14.6 30.4162 14.8 30.3162 15.1 30.1162C15.9 29.5162 16.6 28.8162 17.4 28.2162C19.8 26.2162 22.2 24.2162 24.6 22.1162C25.3 21.5162 25.4 21.0162 24.6 20.4162C21.8 18.1162 19 15.8162 16.2 13.5162C15.6 13.0162 15 13.0162 14.8 13.9162C14.7 14.3162 14.6 14.7162 14.6 15.2162C14.5 17.7162 14.3 20.2162 14.3 22.7162C14.2 25.2162 14.2 27.8162 14.2 30.6162Z" fill="#111827"/>
</svg>
