<svg width="40" height="56" viewBox="0 0 40 56" fill="none" xmlns="http://www.w3.org/2000/svg">
<path d="M13.8377 23.5392C13.8377 25.7392 13.7377 27.8392 13.8377 30.0392C14.0377 33.4392 14.2377 36.8392 14.5377 40.2392C14.6377 41.2392 13.9377 41.8392 13.1377 42.2392C12.2377 42.6392 11.7377 42.0392 11.5377 41.1392C11.3377 40.2392 11.1377 39.2392 11.0377 38.3392C10.9377 35.8392 11.0377 33.3392 10.9377 30.9392C10.7377 26.3392 10.3377 21.6392 10.0377 17.0392C9.93773 15.5392 9.93773 14.1392 11.3377 13.2392C11.6377 13.0392 12.2377 12.9392 12.5377 13.0392C16.9377 15.0392 21.2377 17.1392 25.5377 19.1392C26.1377 19.4392 26.8377 19.5392 27.5377 19.8392C28.7377 20.3392 29.1377 21.4392 29.2377 22.6392C29.3377 24.6392 29.5377 26.7392 29.6377 28.7392C29.7377 31.6392 29.8377 34.5392 29.9377 37.4392C29.9377 38.6392 30.1377 39.8392 30.1377 41.0392C30.1377 41.9392 29.7377 42.5392 28.8377 42.5392C28.0377 42.4392 27.0377 42.3392 27.0377 41.0392C27.0377 38.2392 26.9377 35.3392 26.8377 32.5392C26.7377 29.4392 26.5377 26.4392 26.2377 23.3392C26.2377 22.8392 25.7377 22.1392 25.2377 21.9392C21.9377 20.3392 18.6377 18.8392 15.2377 17.3392C13.9377 16.8392 13.8377 16.9392 13.8377 18.3392C13.8377 20.0392 13.8377 21.8392 13.8377 23.5392Z" fill="#111827"/>
</svg>
