<svg width="40" height="56" viewBox="0 0 40 56" fill="none" xmlns="http://www.w3.org/2000/svg">
<path d="M30.6 44.9C30.1 45 29.7 45 29.4 45.2C27.8 45.9 27.8 46 26.8 44.5C25 42 23.3 39.4 21.5 37C19.6 34.5 20 34.5 18 36.9C16.2 39 14.5 41.2 12.8 43.4C12.6 43.6 12.2 43.8 11.9 43.8C11.2 43.9 10.5 44 9.8 44.1C9.5 44.1 9.2 44.1 9 44.1C9.1 43.8 9 43.4 9.2 43.2C10.1 42.1 11.1 41.1 12 40.1C13.9 37.8 15.8 35.6 17.7 33.2C17.9 33 17.8 32.2 17.6 32C15.2 29.3 12.8 26.6 10.4 24.1C9 22.6 8.9 22.6 10.1 21C12.7 17.6 15.4 14.2 18 10.8C18.3 10.5 18.7 10.2 19 10C21.6 13.7 24.7 16.8 27.8 19.8C28.5 20.5 29.1 21.2 29.7 22C29.9 22.2 29.7 22.9 29.5 23.2C27.3 26 25.1 28.8 22.7 31.6C21.9 32.5 21.9 33.3 22.6 34.1C24.5 36.6 26.5 39.1 28.4 41.6C29 42.5 29.8 43.7 30.6 44.9ZM18.9 13.9C18.6 14.1 18.4 14.2 18.2 14.4C16.4 16.6 14.6 18.8 12.8 21C12.6 21.3 12.5 21.9 12.7 22.2C14.9 24.9 17.1 27.7 19.3 30.3C19.5 30.5 20.2 30.5 20.4 30.3C22.4 28 24.3 25.7 26.2 23.3C26.5 23 26.4 22 26.1 21.6C24 19.2 21.9 16.8 19.8 14.5C19.5 14.4 19.2 14.2 18.9 13.9Z" fill="#111827"/>
</svg>
