<svg width="40" height="56" viewBox="0 0 40 56" fill="none" xmlns="http://www.w3.org/2000/svg">
<path d="M15.34 21.65C17.74 23.75 17.74 23.85 16.34 26.65C14.84 29.45 13.44 32.35 11.94 35.15C11.44 36.15 11.54 36.65 12.54 37.35C14.04 38.35 15.24 39.75 16.64 41.05C18.14 42.35 19.54 43.85 21.04 45.05C23.04 46.65 22.94 47.65 20.94 49.65C19.34 48.25 17.64 46.95 16.04 45.45C13.94 43.55 11.84 41.65 9.74 39.85C9.04 39.25 8.34 38.55 7.54 37.95C6.94 37.45 6.84 36.85 7.24 36.15C9.74 31.65 12.14 27.15 14.64 22.65C14.94 22.35 15.14 22.05 15.34 21.65Z" fill="#111827"/>
<path d="M22.24 31.85C22.74 30.85 23.04 30.05 23.44 29.35C25.14 26.35 26.74 23.35 28.44 20.45C29.24 18.95 29.24 18.55 27.84 17.55C23.94 14.65 19.94 11.85 16.04 8.94999C15.24 8.34999 15.14 6.65 16.04 6.15C16.34 5.95 17.14 5.95 17.44 6.15C19.74 7.85 21.94 9.64999 24.24 11.45C26.14 12.95 28.04 14.25 30.04 15.75C30.54 16.15 31.04 16.65 31.54 17.05C32.34 17.65 32.04 18.35 31.74 19.05C30.74 21.35 29.84 23.65 28.84 25.95C27.84 28.15 26.84 30.25 25.64 32.35C25.34 32.85 24.44 33.55 24.14 33.45C23.24 33.15 22.84 32.35 22.24 31.85Z" fill="#111827"/>
</svg>
