<svg width="60" height="84" viewBox="0 0 60 84" fill="none" xmlns="http://www.w3.org/2000/svg">
<path d="M47.2309 35.854C45.4309 34.204 43.9309 32.854 42.2809 31.354C40.3309 29.554 38.5309 27.754 36.5809 26.104C35.9809 25.654 35.2309 25.504 34.4809 25.204C34.1809 25.804 33.8809 26.4039 33.8809 27.1539C33.4309 33.7539 33.1309 40.3539 32.6809 46.8039C32.2309 52.6539 31.7809 58.504 31.3309 64.354C31.1809 66.754 28.6309 67.804 26.8309 66.154C22.3309 62.404 17.9809 58.504 13.6309 54.604C11.6809 52.804 11.6809 52.054 12.5809 49.954C13.1809 48.604 14.0809 48.454 15.1309 49.504C15.8809 50.254 16.6309 51.3039 17.3809 52.0539C19.7809 54.3039 22.3309 56.5539 24.8809 58.6539C25.1809 58.9539 25.6309 59.1039 26.2309 59.4039C26.5309 57.4539 27.1309 55.654 27.2809 53.854C27.5809 51.304 27.5809 48.6039 27.7309 45.9039C27.8809 43.8039 28.1809 41.704 28.3309 39.604C28.7809 32.404 29.2309 25.3539 29.8309 18.1539C29.9809 16.3539 31.1809 16.054 33.4309 17.104C33.7309 17.254 34.1809 17.554 34.4809 17.854C38.6809 22.054 43.0309 26.404 47.2309 30.604C47.9809 31.354 48.2809 32.1039 47.6809 33.1539C47.6809 33.9039 47.6809 34.654 47.2309 35.854Z" fill="#111827"/>
</svg>
