<svg width="40" height="56" viewBox="0 0 40 56" fill="none" xmlns="http://www.w3.org/2000/svg">
<path d="M17.6632 29.1C22.5632 30.8 27.1632 32.3 30.9632 35.9C29.9632 36.6 28.9632 37.2 28.0632 37.8C23.4632 40.7 18.8632 43.6 14.1632 46.4C13.3632 46.9 12.3632 47.1 11.4632 47.2C11.1632 47.2 10.5632 46.7 10.3632 46.3C10.1632 45.6 10.0632 44.9 10.0632 44.2C9.86325 41.7 9.76324 39.3 9.66324 36.8C9.46324 31.5 9.46324 26.2 9.16324 20.9C8.96324 17.7 8.46325 14.6 8.06325 11.4C7.96325 10.5 7.86324 9.6 8.76324 9C10.6632 10 12.4632 11 14.3632 12C17.8632 13.9 21.4632 15.8 24.9632 17.7C27.5632 19.1 27.6632 19.3 25.7632 21.3C23.5632 23.6 21.0632 25.7 18.7632 27.8C18.3632 28.2 18.1632 28.6 17.6632 29.1ZM12.2632 30.2C13.2632 29.5 14.2632 29.1 15.0632 28.4C15.9632 27.7 16.6632 26.7 17.4632 26C19.3632 24.2 21.4632 22.5 23.3632 20.8C23.9632 20.3 24.2632 19.9 23.2632 19.4C19.7632 17.8 16.1632 16.1 12.6632 14.5C11.6632 14 11.3632 14.2 11.3632 15.3C11.4632 17.1 11.6632 18.9 11.7632 20.7C11.8632 23.3 11.9632 25.9 12.0632 28.6C12.0632 29 12.1632 29.5 12.2632 30.2ZM13.2632 43.4C14.0632 43 14.6632 42.8 15.1632 42.5C16.6632 41.6 18.0632 40.6 19.5632 39.7C21.2632 38.7 22.9632 37.7 24.6632 36.8C25.5632 36.3 25.3632 35.9 24.5632 35.5C23.5632 35.1 22.5632 34.7 21.5632 34.3C19.5632 33.5 17.6632 32.6 15.6632 31.8C14.6632 31.4 12.4632 32.8 12.4632 33.8C12.7632 36.8 13.0632 39.9 13.2632 43.4Z" fill="#111827"/>
</svg>
