<svg width="60" height="84" viewBox="0 0 60 84" fill="none" xmlns="http://www.w3.org/2000/svg">
<path d="M39.0362 33.45C37.3862 36.75 34.5362 39.15 31.6862 41.7C29.7362 43.65 27.6362 45.45 25.8362 47.4C25.5362 47.7 25.5362 48.75 25.8362 49.05C28.2362 51.6 30.6362 54.15 33.0362 56.7C36.7862 60.6 40.5362 64.5 44.1362 68.55C45.1862 69.75 44.5862 71.1 43.0862 71.4C40.9862 71.85 39.0362 70.95 37.8362 69.15C35.2862 64.8 31.2362 61.65 27.9362 58.2C26.2862 56.4 24.1862 55.05 22.3862 53.55C21.9362 53.25 21.4862 53.1 20.7362 52.65C20.5862 53.4 20.2862 54 20.2862 54.45C20.1362 59.55 19.9862 64.8 19.6862 69.9C19.6862 70.65 19.0862 71.4 18.4862 72C17.4362 72.9 16.3862 73.5 15.0362 74.4C14.7362 52.95 16.3862 31.95 16.8362 10.8C17.1362 10.65 17.2862 10.65 17.5862 10.5C18.7862 11.4 20.2862 12.3 21.1862 13.5C27.3362 20.1 33.1862 26.7 39.0362 33.45ZM20.5862 45.45C20.7362 45.6 21.0362 45.6 21.1862 45.75C24.9362 41.7 28.8362 37.65 32.5862 33.6C32.8862 33.3 32.7362 32.4 32.4362 32.1C29.2862 28.5 25.9862 24.9 22.6862 21.45C22.3862 21.15 22.0862 21.15 21.3362 20.7C21.0362 29.1 20.7362 37.35 20.5862 45.45Z" fill="#111827"/>
</svg>
