<svg width="60" height="84" viewBox="0 0 60 84" fill="none" xmlns="http://www.w3.org/2000/svg">
<path d="M49.05 23.4C49.05 24 49.05 24.75 49.05 25.35C49.35 33.3 49.5 41.25 49.8 49.2C49.95 52.2 50.25 55.2 50.4 58.2C50.4 59.1 49.8 60.15 49.5 61.2C45.9 58.35 42.6 55.95 39.45 53.4C36.3 50.7 33.15 47.85 30 45.15C29.1 44.4 28.35 44.55 27.45 45.3C22.95 49.05 18.45 52.8 13.95 56.55C12.15 58.05 10.8 59.85 8.84999 61.95C8.39999 60.6 7.8 59.7 7.8 58.65C7.65 47.1 7.5 35.7 7.5 24.15C7.5 23.55 7.79999 22.5 8.09999 22.5C8.84999 22.5 9.6 22.65 10.2 23.1C15.9 28.05 21.6 33 27.15 38.1C28.35 39.15 29.1 39 30.15 38.1C34.95 34.05 39.9 30 44.7 25.95C45.9 24.9 47.25 24 48.6 22.95C48.75 23.1 48.9 23.25 49.05 23.4ZM45.9 29.55C45 30 44.55 30.3 44.1 30.6C40.5 33.75 36.9 37.05 33.3 40.2C31.65 41.7 31.65 42 33.3 43.35C36.75 46.05 40.2 48.9 43.65 51.6C44.25 52.05 45 52.5 45.9 52.95C45.9 45.15 45.9 37.65 45.9 29.55ZM12.15 30C12.15 37.65 12.15 44.7 12.15 52.05C12.9 51.75 13.35 51.6 13.65 51.45C17.25 48.6 20.7 45.6 24.15 42.6C25.35 41.55 25.05 40.8 24 40.05C21.6 37.95 19.2 35.7 16.65 33.45C15.45 32.25 13.95 31.35 12.15 30Z" fill="#111827"/>
</svg>
