<svg width="60" height="84" viewBox="0 0 60 84" fill="none" xmlns="http://www.w3.org/2000/svg">
<path d="M26.4949 43.65C33.8449 46.2 40.7449 48.45 46.4449 53.85C44.9449 54.9 43.4449 55.8 42.0949 56.7C35.1949 61.05 28.2949 65.4 21.2449 69.6C20.0449 70.35 18.5449 70.65 17.1949 70.8C16.7449 70.8 15.8449 70.05 15.5449 69.45C15.2449 68.4 15.0949 67.35 15.0949 66.3C14.7949 62.55 14.6449 58.95 14.4949 55.2C14.1949 47.25 14.1949 39.3 13.7449 31.35C13.4449 26.55 12.6949 21.9 12.0949 17.1C11.9449 15.75 11.7949 14.4 13.1449 13.5C15.9949 15 18.6949 16.5 21.5449 18C26.7949 20.85 32.1949 23.7 37.4449 26.55C41.3449 28.65 41.4949 28.95 38.6449 31.95C35.3449 35.4 31.5949 38.55 28.1449 41.7C27.5449 42.3 27.2449 42.9 26.4949 43.65ZM18.3949 45.3C19.8949 44.25 21.3949 43.65 22.5949 42.6C23.9449 41.55 24.9949 40.05 26.1949 39C29.0449 36.3 32.1949 33.75 35.0449 31.2C35.9449 30.45 36.3949 29.85 34.8949 29.1C29.6449 26.7 24.2449 24.15 18.9949 21.75C17.4949 21 17.0449 21.3 17.0449 22.95C17.1949 25.65 17.4949 28.35 17.6449 31.05C17.7949 34.95 17.9449 38.85 18.0949 42.9C18.0949 43.5 18.2449 44.25 18.3949 45.3ZM19.8949 65.1C21.0949 64.5 21.9949 64.2 22.7449 63.75C24.9949 62.4 27.0949 60.9 29.3449 59.55C31.8949 58.05 34.4449 56.55 36.9949 55.2C38.3449 54.45 38.0449 53.85 36.8449 53.25C35.3449 52.65 33.8449 52.05 32.3449 51.45C29.3449 50.25 26.4949 48.9 23.4949 47.7C21.9949 47.1 18.6949 49.2 18.6949 50.7C19.1449 55.2 19.5949 59.85 19.8949 65.1Z" fill="#111827"/>
</svg>
