<svg width="40" height="56" viewBox="0 0 40 56" fill="none" xmlns="http://www.w3.org/2000/svg">
<path d="M27.8617 46.1624C25.6617 46.2624 25.5617 46.1624 25.3617 44.2624C25.0617 40.7624 24.7617 37.2624 24.4617 33.7624C24.4617 33.3624 24.0617 32.9624 23.7617 32.7624C21.1617 30.8624 18.4617 28.8624 15.8617 27.0624C15.4617 26.7624 14.9617 26.7624 14.4617 26.6624C14.3617 27.0624 14.1617 27.5624 14.1617 27.9624C14.3617 33.1624 14.5617 38.4624 14.8617 43.6624C14.8617 44.6624 14.4617 45.0624 13.5617 45.1624C12.2617 45.2624 11.8617 44.8624 11.7617 43.8624C11.1617 33.4624 10.8617 23.1624 11.0617 12.7624C11.0617 12.5624 11.0617 12.2624 11.0617 12.0624C11.0617 11.3624 11.1617 10.6624 12.0617 10.6624C13.0617 10.6624 13.9617 11.4624 13.9617 12.2624C14.0617 15.0624 14.0617 17.8624 14.2617 20.5624C14.3617 21.4624 14.7617 22.5624 15.4617 23.0624C18.1617 25.0624 21.0617 26.8624 24.0617 28.8624C24.1617 28.2624 24.1617 27.9624 24.1617 27.5624C24.2617 22.2624 24.3617 17.0624 24.3617 11.7624C24.3617 10.0624 25.1617 9.6624 26.6617 10.2624C28.5617 11.1624 28.5617 11.1624 28.0617 13.0624C27.2617 15.9624 26.8617 18.9624 27.0617 22.0624C27.2617 24.2624 27.1617 26.4624 27.1617 28.6624C27.2617 33.3624 27.3617 38.1624 27.4617 42.8624C27.5617 43.9624 27.7617 45.0624 27.8617 46.1624Z" fill="#111827"/>
</svg>
