<svg width="60" height="84" viewBox="0 0 60 84" fill="none" xmlns="http://www.w3.org/2000/svg">
<path d="M24.75 22.4455C24.75 24.5455 24.75 25.8955 24.75 27.3955C24.75 29.0455 25.2 30.5455 25.05 32.1955C24.9 33.9955 25.65 35.1955 26.85 36.2455C30.3 39.2455 33.6 42.2455 37.05 45.2455C37.8 45.8455 38.4 46.4455 37.5 47.3455C36.75 48.0955 36 48.3955 35.1 47.6455C32.55 45.3955 30 43.2955 27.6 41.0455C27.15 40.5955 26.55 40.2955 26.1 39.9955C25.95 39.9955 25.65 40.1455 25.5 40.1455C26.1 49.4455 26.7 58.7455 27.3 68.0455C25.5 67.8955 24 67.8955 22.5 67.7455C22.5 66.2455 22.5 64.4455 22.5 62.7955C22.35 54.8455 22.35 46.8955 22.05 38.9455C21.9 32.1955 21.3 25.4455 21 18.6955C21 17.9455 21.45 16.7455 22.05 16.5955C22.8 16.2955 23.85 16.7455 24.6 17.3455C29.1 21.0955 33.45 25.1455 37.95 28.8955C39.45 30.0955 38.7 31.2955 38.25 32.4955C38.1 32.6455 37.05 32.7955 36.75 32.4955C33.75 29.9455 30.75 27.3955 27.9 24.8455C26.7 23.9455 25.95 23.3455 24.75 22.4455Z" fill="#111827"/>
</svg>
