<svg width="40" height="56" viewBox="0 0 40 56" fill="none" xmlns="http://www.w3.org/2000/svg">
<path d="M32.7 15.6C32.7 16 32.7 16.5 32.7 16.9C32.9 22.2 33 27.5 33.2 32.8C33.3 34.8 33.5 36.8 33.6 38.8C33.6 39.4 33.2 40.1 33 40.8C30.6 38.9 28.4 37.3 26.3 35.6C24.2 33.8 22.1 31.9 20 30.1C19.4 29.6 18.9 29.7 18.3 30.2C15.3 32.7 12.3 35.2 9.3 37.7C8.1 38.7 7.19999 39.9 5.89999 41.3C5.59999 40.4 5.2 39.8 5.2 39.1C5.1 31.4 5 23.8 5 16.1C5 15.7 5.19999 15 5.39999 15C5.89999 15 6.4 15.1 6.8 15.4C10.6 18.7 14.4 22 18.1 25.4C18.9 26.1 19.4 26 20.1 25.4C23.3 22.7 26.6 20 29.8 17.3C30.6 16.6 31.5 16 32.4 15.3C32.5 15.4 32.6 15.5 32.7 15.6ZM30.6 19.7C30 20 29.7 20.2 29.4 20.4C27 22.5 24.6 24.7 22.2 26.8C21.1 27.8 21.1 28 22.2 28.9C24.5 30.7 26.8 32.6 29.1 34.4C29.5 34.7 30 35 30.6 35.3C30.6 30.1 30.6 25.1 30.6 19.7ZM8.09999 20C8.09999 25.1 8.09999 29.8 8.09999 34.7C8.59999 34.5 8.89999 34.4 9.09999 34.3C11.5 32.4 13.8 30.4 16.1 28.4C16.9 27.7 16.7 27.2 16 26.7C14.4 25.3 12.8 23.8 11.1 22.3C10.3 21.5 9.29999 20.9 8.09999 20Z" fill="#111827"/>
</svg>
