<svg width="40" height="56" viewBox="0 0 40 56" fill="none" xmlns="http://www.w3.org/2000/svg">
<path d="M33.5 40.1344C33.6 41.2344 33.8 42.4344 32.5 43.0344C31.4 43.5344 31 43.3344 30.9 42.1344C30.7 38.7344 30.5 35.3344 30.5 31.9344C30.5 30.8344 30 30.2344 29.2 29.7344C26.9 28.3344 24.5 26.8344 22.2 25.4344C19 23.4344 20 23.6344 17.2 25.6344C15.3 27.0344 13.5 28.6344 11.5 29.9344C10 30.9344 9.80001 32.2344 9.90001 33.8344C10.1 36.1344 10.2 38.3344 10.3 40.6344C10.3 41.6344 9.8 42.2344 8.8 42.2344C7.7 42.2344 7.7 41.4344 7.7 40.6344C7.6 35.6344 7.6 30.5344 7.5 25.5344C7.4 22.0344 7.2 18.5344 7 15.0344C7 14.5344 7.3 13.9344 7.5 13.4344C8 13.6344 8.60001 13.7344 9.10001 14.0344C10.3 14.7344 11.3 15.5344 12.5 16.3344C14.5 17.6344 16.4 18.9344 18.4 20.2344C19.2 20.8344 19.8 20.8344 20.7 20.1344C23.8 17.7344 27.1 15.5344 30.3 13.2344C31 12.7344 31.8 13.0344 32 14.1344C32.2 14.9344 32.3 15.7344 32.4 16.5344C32.5 19.1344 32.6 21.7344 32.7 24.2344C33 29.0344 33.3 33.7344 33.6 38.5344C33.5 38.9344 33.5 39.5344 33.5 40.1344ZM29.7 16.9344C29.5 16.9344 29.4 16.9344 29.2 16.9344C27.1 18.4344 24.9 20.0344 22.8 21.5344C22.1 22.0344 22.5 22.6344 23 23.0344C24.8 24.2344 26.7 25.4344 28.6 26.6344C29 26.9344 29.6 26.9344 30.3 27.2344C30 23.6344 29.8 20.3344 29.7 16.9344ZM9.8 22.5344C9.8 23.9344 9.8 25.2344 9.8 26.6344C9.8 27.4344 10.2 27.7344 10.8 27.2344C12.8 25.8344 14.7 24.3344 16.6 22.8344C17.1 22.4344 17.2 21.9344 16.5 21.5344C14.7 20.3344 12.8 19.2344 11 18.0344C10.1 17.4344 9.8 17.6344 9.7 18.8344C9.8 20.0344 9.8 21.3344 9.8 22.5344Z" fill="#111827"/>
</svg>
