<svg width="40" height="56" viewBox="0 0 40 56" fill="none" xmlns="http://www.w3.org/2000/svg">
<path d="M12.8 35.1C12.6 30.4 12.5 25.7 12.3 21C12.2 17.2 12.1 13.4 12 9.5C12 8.7 12.1 8 13.1 8C14.3 8 15.3 8.99999 15 9.79999C14.1 12.5 15.2 15.1 14.9 17.7C14.9 18.1 15.2 18.6 15.6 18.8C19.3 20.9 23 22.9 26.7 25C27 25.2 27.3 25.4 27.6 25.6C28.3 26.1 28.4 26.5 27.8 27.3C25.5 30.2 22.5 32.3 19.6 34.6C18.6 35.4 17.4 36.1 16.5 37C16.1 37.4 15.8 38 15.8 38.6C15.8 41.1 16 43.5 16.1 46C16.1 46.5 16 47.1 15.8 47.5C15.3 48.4 14.4 48.5 13.6 48.2C13.3 48.1 13.1 47.3 13.1 46.9C13.1 43 13.1 39.1 13.1 35.2C12.9 35.1 12.8 35.1 12.8 35.1ZM15.3 32.9C15.4 33 15.6 33.1 15.7 33.2C18.8 31.3 21.9 29.4 25 27C21.5 25.2 18.5 23.6 15.2 21.9C15.3 25.7 15.3 29.3 15.3 32.9Z" fill="#111827"/>
</svg>
