<svg width="60" height="84" viewBox="0 0 60 84" fill="none" xmlns="http://www.w3.org/2000/svg">
<path d="M20.7566 35.3088C20.7566 38.6088 20.6066 41.7588 20.7566 45.0588C21.0566 50.1588 21.3566 55.2588 21.8066 60.3588C21.9566 61.8588 20.9066 62.7588 19.7066 63.3588C18.3566 63.9588 17.6066 63.0588 17.3066 61.7088C17.0066 60.3588 16.7066 58.8588 16.5566 57.5088C16.4066 53.7588 16.5566 50.0088 16.4066 46.4088C16.1066 39.5088 15.5066 32.4588 15.0566 25.5588C14.9066 23.3088 14.9066 21.2088 17.0066 19.8588C17.4566 19.5588 18.3566 19.4088 18.8066 19.5588C25.4066 22.5588 31.8566 25.7088 38.3066 28.7088C39.2066 29.1588 40.2566 29.3088 41.3066 29.7588C43.1066 30.5088 43.7066 32.1588 43.8566 33.9588C44.0066 36.9588 44.3066 40.1088 44.4566 43.1088C44.6066 47.4588 44.7566 51.8088 44.9066 56.1588C44.9066 57.9588 45.2066 59.7588 45.2066 61.5588C45.2066 62.9088 44.6066 63.8088 43.2566 63.8088C42.0566 63.6588 40.5566 63.5088 40.5566 61.5588C40.5566 57.3588 40.4066 53.0088 40.2566 48.8088C40.1066 44.1588 39.8066 39.6588 39.3566 35.0088C39.3566 34.2588 38.6066 33.2088 37.8566 32.9088C32.9066 30.5088 27.9566 28.2588 22.8566 26.0088C20.9066 25.2588 20.7566 25.4088 20.7566 27.5088C20.7566 30.0588 20.7566 32.7588 20.7566 35.3088Z" fill="#111827"/>
</svg>
