<svg width="60" height="84" viewBox="0 0 60 84" fill="none" xmlns="http://www.w3.org/2000/svg">
<path d="M45.9 67.35C45.15 67.5 44.55 67.5 44.1 67.8C41.7 68.85 41.7 69 40.2 66.75C37.5 63 34.95 59.1 32.25 55.5C29.4 51.75 30 51.75 27 55.35C24.3 58.5 21.75 61.8 19.2 65.1C18.9 65.4 18.3 65.7 17.85 65.7C16.8 65.85 15.75 66 14.7 66.15C14.25 66.15 13.8 66.15 13.5 66.15C13.65 65.7 13.5 65.1 13.8 64.8C15.15 63.15 16.65 61.65 18 60.15C20.85 56.7 23.7 53.4 26.55 49.8C26.85 49.5 26.7 48.3 26.4 48C22.8 43.95 19.2 39.9 15.6 36.15C13.5 33.9 13.35 33.9 15.15 31.5C19.05 26.4 23.1 21.3 27 16.2C27.45 15.75 28.05 15.3 28.5 15C32.4 20.55 37.05 25.2 41.7 29.7C42.75 30.75 43.65 31.8 44.55 33C44.85 33.3 44.55 34.35 44.25 34.8C40.95 39 37.65 43.2 34.05 47.4C32.85 48.75 32.85 49.95 33.9 51.15C36.75 54.9 39.75 58.65 42.6 62.4C43.5 63.75 44.7 65.55 45.9 67.35ZM28.35 20.85C27.9 21.15 27.6 21.3 27.3 21.6C24.6 24.9 21.9 28.2 19.2 31.5C18.9 31.95 18.75 32.85 19.05 33.3C22.35 37.35 25.65 41.55 28.95 45.45C29.25 45.75 30.3 45.75 30.6 45.45C33.6 42 36.45 38.55 39.3 34.95C39.75 34.5 39.6 33 39.15 32.4C36 28.8 32.85 25.2 29.7 21.75C29.25 21.6 28.8 21.3 28.35 20.85Z" fill="#111827"/>
</svg>
