<svg width="40" height="56" viewBox="0 0 40 56" fill="none" xmlns="http://www.w3.org/2000/svg">
<path d="M22.7889 14.6562C22.7889 16.5562 22.7889 18.1562 22.7889 19.7562C22.7889 20.3562 22.9889 20.9563 22.9889 21.5563C23.1889 25.6563 23.2889 29.7562 23.4889 33.8562C23.6889 37.1562 23.9889 40.3562 24.2889 43.6562C24.4889 46.0562 24.1889 46.3562 21.3889 46.6562C21.1889 45.5562 20.8889 44.5562 20.7889 43.4562C20.2889 38.4562 19.8889 33.4562 19.3889 28.4562C19.1889 25.9562 19.0889 23.3562 18.7889 20.8562C18.5889 19.2562 18.0889 17.5563 17.5889 15.5563C15.8889 17.1563 14.4889 18.4562 12.9889 19.7562C11.7889 20.8562 10.5889 21.8562 9.28889 22.7562C8.78889 23.0562 7.88889 22.8562 7.08889 22.7562C7.08889 22.7562 6.88889 21.9562 7.08889 21.8562C9.88889 19.1562 12.7889 16.4562 15.6889 13.7562C17.0889 12.4562 18.4889 11.0562 19.9889 9.75625C21.1889 8.65625 21.6889 8.75625 22.7889 10.0563C25.4889 13.5563 28.1889 16.9562 30.9889 20.3562C31.6889 21.2562 32.4889 22.1562 33.1889 23.1562C33.2889 23.3562 33.3889 23.7562 33.2889 23.8562C32.9889 24.1562 32.5889 24.6563 32.2889 24.5563C31.6889 24.4563 30.8889 24.1562 30.4889 23.7562C28.1889 21.0562 25.8889 18.3562 23.5889 15.6562C23.4889 15.3562 23.2889 15.1562 22.7889 14.6562Z" fill="#111827"/>
</svg>
