<svg width="40" height="56" viewBox="0 0 40 56" fill="none" xmlns="http://www.w3.org/2000/svg">
<path d="M21.4305 10C21.4305 10.5 21.4305 10.9 21.4305 11.3C21.4305 14.8 21.4305 18.3 21.5305 21.9C21.6305 26.2 21.7305 30.5 21.9305 34.8C22.1305 38.1 22.4305 41.4 22.6305 44.8C22.6305 44.9 22.6305 45 22.6305 45C22.8305 45.7 23.3305 46.6 22.0305 46.9C20.7305 47.2 19.8305 46.5 19.6305 45.3C19.4305 43.4 19.3305 41.5 19.2305 39.6C18.9305 33.8 18.6305 27.9 18.2305 22.1C17.9305 18.6 17.5305 15.1 17.0305 11.7C16.9305 10.8 17.0305 10.5 18.0305 10.5C19.1305 10.4 20.2305 10.2 21.4305 10Z" fill="#111827"/>
</svg>
