<svg width="60" height="84" viewBox="0 0 60 84" fill="none" xmlns="http://www.w3.org/2000/svg">
<path d="M15 19.0825C16.35 19.0825 17.4 18.9325 18.45 19.0825C18.9 19.0825 19.5 19.6825 19.65 20.1325C21.45 23.7325 23.25 27.4825 25.05 31.2325C26.25 33.4825 27.45 35.8825 28.8 38.5825C29.7 36.6325 30.6 35.2825 31.2 33.6325C33.3 28.8325 35.55 23.8825 37.65 18.9325C38.55 16.6825 39.15 16.3825 42 16.5325C41.85 17.4325 41.7 18.3325 41.4 19.2325C40.05 22.8325 38.55 26.2825 37.05 29.7325C35.25 33.7825 33.3 37.8325 31.5 41.8825C31.2 42.4825 31.2 43.2325 31.5 43.8325C33.9 48.4825 36.3 53.1325 38.85 57.7825C40.35 60.4825 41.85 63.0325 43.35 65.7325C44.1 67.0825 43.65 67.5325 42.3 67.9825C40.35 68.4325 39.45 67.8325 38.55 66.0325C35.85 60.7825 33 55.5325 30.3 50.4325C30 49.8325 29.55 49.3825 28.95 48.4825C27.45 51.6325 25.95 54.4825 24.75 57.3325C23.55 60.0325 22.65 62.8825 21.6 65.7325C20.85 67.5325 19.35 67.9825 17.85 66.7825C17.55 66.6325 17.55 65.7325 17.7 65.2825C19.35 61.3825 21 57.4825 22.8 53.4325C24.15 50.4325 25.5 47.4325 26.55 44.2825C26.85 43.3825 26.7 42.1825 26.25 41.2825C24 36.9325 21.6 32.5825 19.35 28.2325C18 25.6825 16.8 22.9825 15.6 20.2825C15.15 20.2825 15.15 19.6825 15 19.0825Z" fill="#111827"/>
</svg>
