<svg width="38" height="51" viewBox="0 0 38 51" fill="none" xmlns="http://www.w3.org/2000/svg">
<path d="M11.4721 29.6353L15.2272 27.7941M11.4721 29.6353L8.56078 40.5855M11.4721 29.6353L9.26114 25.4684M15.2272 27.7941L18.9338 25.9044L22.7655 27.7941M15.2272 27.7941L12.0336 44.7039M12.0336 44.7039L11.8598 45.6245L18.9822 49.4522L26.1149 45.6245L25.9419 44.7039M12.0336 44.7039L8.22584 41.8452L8.56078 40.5855M8.56078 40.5855L4.93109 32.9785L7.69287 22.5128M7.69287 22.5128V18.1521M7.69287 22.5128L9.26114 25.4684M7.69287 18.1521L4.30121 14.8089L0.958008 1L7.69287 4.48856V10.8358M7.69287 18.1521V10.8358M9.26114 25.4684C11.2522 18.2587 16.523 20.3647 18.9338 22.2705C21.3316 20.3647 26.7191 18.2587 28.6995 25.4684M26.5004 29.6353L22.7655 27.7941M26.5004 29.6353L29.3961 40.5855M26.5004 29.6353L28.6995 25.4684M22.7655 27.7941L25.9419 44.7039M25.9419 44.7039L29.7292 41.8452L29.3961 40.5855M29.3961 40.5855L33.0063 32.9785L30.2594 22.5128M30.2594 22.5128V18.1521M30.2594 22.5128L28.6995 25.4684M30.2594 18.1521L33.6328 14.8089L36.958 1L30.2594 4.48856V10.8358M30.2594 18.1521V10.8358M7.69287 10.8358C12.2958 8.31628 20.6296 5.40915 30.2594 10.8358" stroke="#111827" stroke-width="1.5" stroke-linejoin="round"/>
<circle cx="23.6337" cy="23.1911" r="0.75" stroke="#111827" stroke-width="0.728802"/>
<path d="M13.9431 22.8267H16.2397L16.2417 22.8269L16.2418 22.8269C16.2419 22.8269 16.2428 22.8274 16.2439 22.8284C16.245 22.8295 16.2454 22.8304 16.2454 22.8305L16.2455 22.8306L16.2456 22.8326C16.2456 24.0882 15.2277 25.106 13.9722 25.106H13.0419C12.9102 25.106 12.8035 24.9992 12.8035 24.8676V23.9664C12.8035 23.337 13.3137 22.8267 13.9431 22.8267Z" stroke="#111827" stroke-width="1.5"/>
<path d="M18.327 28.9317H19.5404V29.4415C19.5404 29.7765 19.2687 30.0481 18.9337 30.0481C18.5986 30.0481 18.327 29.7765 18.327 29.4415V28.9317Z" stroke="#111827" stroke-width="1.30821"/>
</svg>
