<svg width="28" height="38" viewBox="0 0 28 38" fill="none" xmlns="http://www.w3.org/2000/svg">
<path d="M0 0L5.23822 2.71332V7.65007C8.8183 5.69044 15.3001 3.42934 22.7899 7.65007V2.71332L28 0L25.4137 10.7402L22.7899 13.3405V16.7322L24.9264 24.8721L22.1185 30.7887L22.3776 31.7685L19.4319 33.9919L19.5664 34.7079L14.0188 37.6851L8.47914 34.7079L8.61436 33.9919L5.65276 31.7685L5.91326 30.7887L3.09017 24.8721L5.23822 16.7322V13.3405L2.60027 10.7402L0 0Z" fill="#EED9C3"/>
<path d="M5.23822 2.71332L0 0L2.60027 10.7402L5.23822 13.3405V15.0363V16.7322L5.84811 17.8816L6.45799 19.031C8.00661 13.4234 12.1061 15.0615 13.9812 16.5437C15.8461 15.0615 20.0364 13.4234 21.5767 19.031L22.7899 16.7322V13.3405L25.4137 10.7402L28 0L22.7899 2.71332V7.65007C15.3001 3.42934 8.8183 5.69044 5.23822 7.65007V5.1817V2.71332Z" fill="#E3B261"/>
<path d="M8.47917 34.708L14.0189 37.6851L19.5665 34.708L19.432 33.9919L16.9615 20.8398L13.9812 19.3701L11.0983 20.8398L8.6144 33.9919L8.47917 34.708Z" fill="#E6E6E6"/>
<path d="M8.17769 22.2719L5.9133 30.7887L3.09021 24.8722L5.23826 16.7322L6.45802 19.031L8.17769 22.2719Z" fill="#E6E6E6"/>
<path d="M19.8663 22.2719L22.1186 30.7887L24.9265 24.8722L22.79 16.7322L21.5768 19.031L19.8663 22.2719Z" fill="#E6E6E6"/>
<circle cx="17.6367" cy="17.2598" r="0.866756" fill="#353535"/>
<path d="M8.62988 17.8628C8.62988 17.0511 9.2879 16.3931 10.0996 16.3931H11.8859C12.2106 16.3931 12.4738 16.6563 12.4738 16.981V16.981C12.4738 18.2797 11.4209 19.3325 10.1222 19.3325H9.39866C8.97407 19.3325 8.62988 18.9883 8.62988 18.5637V17.8628Z" fill="#A78347"/>
<path d="M12.926 21.1414H15.0364V22.1212C15.0364 22.7039 14.564 23.1764 13.9812 23.1764V23.1764C13.3984 23.1764 12.926 22.7039 12.926 22.1212V21.1414Z" fill="#353535"/>
<path d="M11.0983 20.8776L8.17773 22.3096L5.91334 30.8264L5.65283 31.8062L8.61444 34.0297L11.0983 20.8776Z" fill="#D5D5D5"/>
<path d="M16.9615 20.8776L19.8664 22.3096L22.1186 30.8264L22.3777 31.8062L19.432 34.0297L16.9615 20.8776Z" fill="#D5D5D5"/>
</svg>
