<svg width="60" height="84" viewBox="0 0 60 84" fill="none" xmlns="http://www.w3.org/2000/svg">
<path d="M32.1458 15C32.1458 15.75 32.1458 16.35 32.1458 16.95C32.1458 22.2 32.1458 27.45 32.2958 32.85C32.4458 39.3 32.5958 45.75 32.8958 52.2C33.1958 57.15 33.6458 62.1 33.9458 67.2C33.9458 67.35 33.9458 67.5 33.9458 67.5C34.2458 68.55 34.9958 69.9 33.0458 70.35C31.0958 70.8 29.7458 69.75 29.4458 67.95C29.1458 65.1 28.9958 62.25 28.8458 59.4C28.3958 50.7 27.9458 41.85 27.3458 33.15C26.8958 27.9 26.2958 22.65 25.5458 17.55C25.3958 16.2 25.5458 15.75 27.0458 15.75C28.6958 15.6 30.3458 15.3 32.1458 15Z" fill="#111827"/>
</svg>
