<svg width="60" height="84" viewBox="0 0 60 84" fill="none" xmlns="http://www.w3.org/2000/svg">
<path d="M41.7925 69.2436C38.4925 69.3936 38.3425 69.2436 38.0425 66.3936C37.5925 61.1436 37.1426 55.8936 36.6926 50.6436C36.6926 50.0436 36.0926 49.4436 35.6426 49.1436C31.7426 46.2936 27.6926 43.2936 23.7926 40.5936C23.1926 40.1436 22.4426 40.1436 21.6926 39.9936C21.5426 40.5936 21.2426 41.3436 21.2426 41.9436C21.5426 49.7436 21.8426 57.6936 22.2926 65.4936C22.2926 66.9936 21.6926 67.5936 20.3426 67.7436C18.3926 67.8936 17.7926 67.2936 17.6426 65.7936C16.7426 50.1936 16.2926 34.7436 16.5926 19.1436C16.5926 18.8436 16.5926 18.3936 16.5926 18.0936C16.5926 17.0436 16.7426 15.9936 18.0926 15.9936C19.5926 15.9936 20.9426 17.1936 20.9426 18.3936C21.0926 22.5936 21.0926 26.7936 21.3926 30.8436C21.5426 32.1936 22.1426 33.8436 23.1926 34.5936C27.2426 37.5936 31.5926 40.2936 36.0926 43.2936C36.2426 42.3936 36.2426 41.9436 36.2426 41.3436C36.3926 33.3936 36.5425 25.5936 36.5425 17.6436C36.5425 15.0936 37.7426 14.4936 39.9926 15.3936C42.8426 16.7436 42.8426 16.7436 42.0926 19.5936C40.8926 23.9436 40.2926 28.4436 40.5926 33.0936C40.8926 36.3936 40.7426 39.6936 40.7426 42.9936C40.8926 50.0436 41.0426 57.2436 41.1926 64.2936C41.3426 65.9436 41.6425 67.5936 41.7925 69.2436Z" fill="#111827"/>
</svg>
