<svg width="60" height="84" viewBox="0 0 60 84" fill="none" xmlns="http://www.w3.org/2000/svg">
<path d="M26.5627 24C32.1127 19.95 37.5127 15.9 42.7627 12C43.5127 13.35 43.0627 16.8 41.5627 18C37.8127 21.15 34.0627 24.15 30.3127 27.15C30.1627 27.3 29.8627 27.45 29.7127 27.6C24.9127 29.7 25.6627 33.75 26.1127 38.1C27.1627 37.5 28.2127 37.05 29.1127 36.45C32.8627 33.9 36.6127 31.2 40.3627 28.5C41.2627 27.75 41.8627 28.2 42.3127 29.1C43.0627 31.05 42.7627 32.25 40.9627 33.45C36.6127 36.6 32.2627 39.6 27.7627 42.75C26.2627 43.8 25.8127 44.85 25.8127 46.65C25.9627 53.7 25.9627 60.6 26.1127 67.65C26.1127 69.6 25.0627 69.9 23.5627 69.9C22.0627 69.9 20.8627 69.9 21.0127 67.8C21.1627 55.5 21.1627 43.2 21.1627 30.75C21.1627 26.55 21.1627 22.2 21.1627 18C21.1627 17.55 21.1627 17.1 21.1627 16.5C21.1627 15.45 21.0127 13.65 21.3127 13.65C22.6627 13.2 24.3127 13.2 25.8127 13.2C26.1127 13.2 26.4127 14.25 26.4127 14.85C26.5627 17.55 26.5627 20.55 26.5627 24Z" fill="#111827"/>
</svg>
