<svg width="60" height="84" viewBox="0 0 60 84" fill="none" xmlns="http://www.w3.org/2000/svg">
<path d="M19.3571 23.2477C19.2071 35.3977 19.8071 47.2477 20.5571 59.3977C23.2571 58.1977 25.5071 57.1477 27.7571 55.9477C29.1071 55.3477 30.1571 54.4477 31.5071 53.8477C32.8571 53.0977 33.9071 53.0977 35.2571 54.2977C38.5571 57.2977 42.0071 60.1477 45.4571 62.8477C46.3571 63.5977 46.8071 64.3477 45.9071 65.2477C45.1571 65.9977 44.4071 66.8977 43.0571 65.6977C40.2071 62.9977 37.2071 60.5977 34.3571 58.0477C33.6071 57.4477 33.0071 57.1477 32.2571 57.7477C28.3571 60.4477 24.3071 63.1477 20.4071 65.6977C20.2571 65.6977 20.2571 65.8477 20.1071 65.9977C19.2071 66.4477 18.3071 66.7477 17.5571 67.1977C17.2571 66.2977 16.8071 65.3977 16.8071 64.4977C16.6571 61.3477 16.9571 58.1977 16.6571 54.8977C16.3571 48.1477 15.9071 41.3977 15.3071 34.6477C14.8571 29.3977 14.8571 23.9977 15.6071 18.7477C15.9071 17.0977 18.0071 16.1977 19.3571 17.0977C22.5071 19.1977 25.6571 21.1477 28.6571 23.3977C30.6071 24.7477 32.4071 24.7477 34.2071 23.5477C37.3571 21.5977 40.3571 19.4977 43.3571 17.3977C45.3071 16.0477 45.4571 16.0477 46.3571 18.5977C42.9071 21.2977 39.3071 23.8477 36.0071 26.9977C33.1571 29.8477 30.7571 29.6977 27.6071 27.5977C25.3571 26.0977 22.6571 24.8977 19.3571 23.2477Z" fill="#111827"/>
</svg>
