<svg width="60" height="84" viewBox="0 0 60 84" fill="none" xmlns="http://www.w3.org/2000/svg">
<path d="M19.2 52.65C18.9 45.6 18.75 38.55 18.45 31.5C18.3 25.8 18.15 20.1 18 14.25C18 13.05 18.15 12 19.65 12C21.45 12 22.95 13.5 22.5 14.7C21.15 18.75 22.8 22.65 22.35 26.55C22.35 27.15 22.8 27.9 23.4 28.2C28.95 31.35 34.5 34.35 40.05 37.5C40.5 37.8 40.95 38.1 41.4 38.4C42.45 39.15 42.6 39.75 41.7 40.95C38.25 45.3 33.75 48.45 29.4 51.9C27.9 53.1 26.1 54.15 24.75 55.5C24.15 56.1 23.7 57 23.7 57.9C23.7 61.65 24 65.25 24.15 69C24.15 69.75 24 70.65 23.7 71.25C22.95 72.6 21.6 72.75 20.4 72.3C19.95 72.15 19.65 70.95 19.65 70.35C19.65 64.5 19.65 58.65 19.65 52.8C19.35 52.65 19.2 52.65 19.2 52.65ZM22.95 49.35C23.1 49.5 23.4 49.65 23.55 49.8C28.2 46.95 32.85 44.1 37.5 40.5C32.25 37.8 27.75 35.4 22.8 32.85C22.95 38.55 22.95 43.95 22.95 49.35Z" fill="#111827"/>
</svg>
