<svg width="60" height="84" viewBox="0 0 60 84" fill="none" xmlns="http://www.w3.org/2000/svg">
<path d="M16.65 40.2243C16.65 32.5743 16.65 24.9243 16.65 17.2743C16.65 15.6243 16.8 13.9743 16.95 12.3243C17.1 10.5243 18.45 9.92431 19.8 11.1243C23.25 13.9743 26.55 16.9743 30 19.9743C33.75 23.1243 37.35 26.4243 41.1 29.5743C42.75 30.9243 42.9 32.5743 41.4 34.0743C39.15 36.3243 36.9 38.5743 34.5 40.5243C32.1 42.6243 29.55 44.4243 27.15 46.3743C25.35 47.8743 23.55 49.5243 22.05 51.3243C21.6 51.9243 21.6 53.1243 21.75 54.0243C21.75 55.2243 22.05 56.4243 22.05 57.6243C22.35 62.2743 22.5 66.9243 22.8 71.5743C22.8 73.2243 21.75 74.4243 19.95 74.2743C19.35 74.2743 18.3 72.9243 18.15 72.1743C17.55 67.3743 17.1 62.5743 16.8 57.7743C16.35 51.9243 16.5 46.0743 16.65 40.2243ZM21.3 45.9243C21.9 45.6243 22.2 45.4743 22.65 45.1743C23.85 44.2743 24.9 43.2243 26.1 42.3243C29.7 39.3243 33.3 36.3243 36.9 33.1743C37.95 32.2743 38.1 31.5243 36.9 30.6243C32.7 27.1743 28.5 23.7243 24.3 20.2743C23.4 19.5243 22.5 19.5243 22.2 20.8743C22.05 21.4743 21.9 22.0743 21.9 22.8243C21.75 26.5743 21.45 30.3243 21.45 34.0743C21.3 37.8243 21.3 41.7243 21.3 45.9243Z" fill="#111827"/>
</svg>
