<svg width="60" height="84" viewBox="0 0 60 84" fill="none" xmlns="http://www.w3.org/2000/svg">
<path d="M50.25 60.2016C50.4 61.8516 50.7 63.6516 48.75 64.5516C47.1 65.3016 46.5 65.0016 46.35 63.2016C46.05 58.1016 45.75 53.0016 45.75 47.9016C45.75 46.2516 45 45.3516 43.8 44.6016C40.35 42.5016 36.75 40.2516 33.3 38.1516C28.5 35.1516 30 35.4516 25.8 38.4516C22.95 40.5516 20.25 42.9516 17.25 44.9016C15 46.4016 14.7 48.3516 14.85 50.7516C15.15 54.2016 15.3 57.5016 15.45 60.9516C15.45 62.4516 14.7 63.3516 13.2 63.3516C11.55 63.3516 11.55 62.1516 11.55 60.9516C11.4 53.4516 11.4 45.8016 11.25 38.3016C11.1 33.0516 10.8 27.8016 10.5 22.5516C10.5 21.8016 10.95 20.9016 11.25 20.1516C12 20.4516 12.9 20.6016 13.65 21.0516C15.45 22.1016 16.95 23.3016 18.75 24.5016C21.75 26.4516 24.6 28.4016 27.6 30.3516C28.8 31.2516 29.7 31.2516 31.05 30.2016C35.7 26.6016 40.65 23.3016 45.45 19.8516C46.5 19.1016 47.7 19.5516 48 21.2016C48.3 22.4016 48.45 23.6016 48.6 24.8016C48.75 28.7016 48.9 32.6016 49.05 36.3516C49.5 43.5516 49.95 50.6016 50.4 57.8016C50.25 58.4016 50.25 59.3016 50.25 60.2016ZM44.55 25.4016C44.25 25.4016 44.1 25.4016 43.8 25.4016C40.65 27.6516 37.35 30.0516 34.2 32.3016C33.15 33.0516 33.75 33.9516 34.5 34.5516C37.2 36.3516 40.05 38.1516 42.9 39.9516C43.5 40.4016 44.4 40.4016 45.45 40.8516C45 35.4516 44.7 30.5016 44.55 25.4016ZM14.7 33.8016C14.7 35.9016 14.7 37.8516 14.7 39.9516C14.7 41.1516 15.3 41.6016 16.2 40.8516C19.2 38.7516 22.05 36.5016 24.9 34.2516C25.65 33.6516 25.8 32.9016 24.75 32.3016C22.05 30.5016 19.2 28.8516 16.5 27.0516C15.15 26.1516 14.7 26.4516 14.55 28.2516C14.7 30.0516 14.7 32.0016 14.7 33.8016Z" fill="#111827"/>
</svg>
