<svg width="60" height="84" viewBox="0 0 60 84" fill="none" xmlns="http://www.w3.org/2000/svg">
<path d="M39.3 40.05C36.6 40.05 34.35 40.05 32.25 40.05C26.1 40.2 19.8 40.35 13.65 40.35C13.2 40.35 12.6 39.9 12 39.6C20.7 30 30.15 21.15 39.45 12C40.05 13.35 40.5 14.25 40.8 15.15C40.95 15.75 40.8 16.5 40.35 16.95C35.25 21.9 30.15 26.85 25.2 31.95C24 33.15 22.95 34.5 21.45 36C22.5 36.15 23.25 36.45 23.85 36.45C30.15 36.45 36.3 36.3 42.6 36.15C43.5 36.15 44.55 35.85 45.45 35.85C47.1 35.85 47.55 37.05 46.8 38.4C41.4 47.55 35.7 56.4 29.55 64.95C28.5 66.45 27.75 68.1 27 69.9C26.4 71.4 22.8 72.3 21.6 71.25C21.3 70.95 21.3 70.2 21.45 69.9C22.65 67.65 23.85 65.4 25.2 63.3C29.55 56.55 33.9 49.8 38.1 43.05C38.4 42.15 38.7 41.25 39.3 40.05Z" fill="#111827"/>
</svg>
