<svg width="60" height="84" viewBox="0 0 60 84" fill="none" xmlns="http://www.w3.org/2000/svg">
<path d="M23.01 32.475C26.61 35.625 26.61 35.775 24.51 39.975C22.26 44.175 20.16 48.525 17.91 52.725C17.16 54.225 17.31 54.975 18.81 56.025C21.06 57.525 22.86 59.625 24.96 61.575C27.21 63.525 29.31 65.775 31.56 67.575C34.56 69.975 34.41 71.475 31.41 74.475C29.01 72.375 26.46 70.425 24.06 68.175C20.91 65.325 17.76 62.475 14.61 59.775C13.56 58.875 12.51 57.825 11.31 56.925C10.41 56.175 10.26 55.275 10.86 54.225C14.61 47.475 18.21 40.725 21.96 33.975C22.41 33.525 22.71 33.075 23.01 32.475Z" fill="#111827"/>
<path d="M33.36 47.775C34.11 46.275 34.56 45.075 35.16 44.025C37.71 39.525 40.11 35.025 42.66 30.675C43.86 28.425 43.86 27.825 41.76 26.325C35.91 21.975 29.91 17.775 24.06 13.425C22.86 12.525 22.71 9.975 24.06 9.225C24.51 8.925 25.71 8.925 26.16 9.225C29.61 11.775 32.91 14.475 36.36 17.175C39.21 19.425 42.06 21.375 45.06 23.625C45.81 24.225 46.56 24.975 47.31 25.575C48.51 26.475 48.06 27.525 47.61 28.575C46.11 32.025 44.76 35.475 43.26 38.925C41.76 42.225 40.26 45.375 38.46 48.525C38.01 49.275 36.66 50.325 36.21 50.175C34.86 49.725 34.26 48.525 33.36 47.775Z" fill="#111827"/>
</svg>
