<svg width="60" height="84" viewBox="0 0 60 84" fill="none" xmlns="http://www.w3.org/2000/svg">
<path d="M23.85 23.25C23.4 26.4 23.1 29.55 22.8 32.55C22.65 34.2 22.35 36 22.35 37.65C22.35 42.6 22.5 47.7 22.8 52.65C23.1 58.2 23.85 63.75 24.3 69.3C24.3 69.75 23.55 70.65 23.1 70.8C21.3 71.25 20.1 70.5 19.95 69.15C19.8 67.05 19.65 64.95 19.65 62.85C19.65 51 19.65 39.15 19.65 27.3C19.65 24.3 19.5 21.3 19.5 18.15C19.5 15.9 21 14.1 22.2 12C23.85 14.1 25.05 16.05 26.55 17.85C30.45 22.5 34.35 27 38.4 31.5C39 32.25 39.6 33 40.2 33.75C41.1 34.8 41.1 35.7 40.05 36.9C34.2 33.15 29.25 28.35 24.75 22.95C24.3 23.1 24 23.25 23.85 23.25Z" fill="#111827"/>
</svg>
