<svg width="60" height="84" viewBox="0 0 60 84" fill="none" xmlns="http://www.w3.org/2000/svg">
<path d="M35.6515 45.6C35.3515 48.15 34.9015 50.25 34.9015 52.35C34.7515 57.6 34.6016 62.7 34.6016 67.95C34.6016 69.45 33.2515 70.95 31.7515 70.95C31.0015 70.95 30.2516 70.8 29.0516 70.5C29.3516 66 29.6515 61.5 29.9515 57.15C30.1015 54.45 30.4015 51.75 30.7015 49.05C30.8515 46.8 31.3016 44.7 31.3016 42.45C31.3016 41.85 31.0016 40.95 30.5516 40.35C26.5016 35.85 22.1516 31.35 18.1016 26.7C16.0016 24.15 14.3515 21.15 12.4015 18.3C11.5015 16.95 12.2516 15.75 13.3016 15.15C13.7516 14.85 15.1015 15.3 15.7015 15.9C19.6015 20.4 23.2015 24.9 26.9515 29.55C28.6015 31.5 30.2516 33.3 32.0516 35.55C32.3516 34.5 32.6516 33.9 32.8016 33.3C33.1016 28.65 33.4016 24 33.5516 19.35C33.5516 18.15 33.7016 16.8 33.8516 15.6C34.0016 13.95 35.3515 13.5 36.7015 13.5C38.2015 13.65 38.8016 15 38.8016 16.35C38.6516 19.5 38.0515 22.65 37.7515 25.65C37.1515 29.85 36.5515 34.05 36.2515 38.25C36.1015 39.3 36.8516 40.65 37.6016 41.4C39.8516 43.95 42.2515 46.2 44.6515 48.6C45.4015 49.5 46.1515 50.4 46.7515 51.45C47.3515 52.5 46.9015 53.55 45.7015 53.4C44.6515 53.25 43.6016 52.8 42.8516 52.2C40.9016 50.55 39.2515 48.75 37.4515 46.95C36.8515 46.5 36.5515 46.2 35.6515 45.6Z" fill="#111827"/>
</svg>
