<svg width="60" height="84" viewBox="0 0 60 84" fill="none" xmlns="http://www.w3.org/2000/svg">
<path d="M45.9627 40.3751C40.2627 44.1251 37.5627 49.9751 33.9627 55.0751C32.3127 57.4751 32.4627 59.5751 34.8627 61.9751C37.8627 64.9751 40.8627 67.9751 43.8627 70.9751C45.0627 72.0251 45.0627 73.2251 44.7627 74.5751C44.6127 75.0251 44.1627 75.7751 43.7127 75.9251C43.2627 76.0751 42.5127 75.6251 42.2127 75.3251C40.7127 73.6751 39.3627 72.0251 37.8627 70.3751C35.1627 67.5251 32.6127 64.8251 29.6127 61.5251C27.9627 64.2251 26.3127 66.6251 24.9627 69.0251C23.7627 71.1251 23.0127 73.3751 21.8127 75.3251C21.3627 76.0751 20.3127 76.9751 19.5627 76.9751C17.4627 76.9751 16.8627 75.9251 17.7627 73.9751C19.1127 71.2751 20.7627 68.5751 22.2627 65.8751C23.4627 63.7751 24.9627 61.8251 26.1627 59.5751C26.4627 59.1251 26.4627 58.0751 26.0127 57.6251C22.2627 52.8251 18.5127 48.1751 14.6127 43.5251C13.5627 42.3251 12.9627 41.2751 14.1627 39.7751C17.7627 34.9751 21.2127 30.1751 24.8127 25.3751C27.6627 21.6251 27.6627 21.7751 25.2627 17.8751C23.9127 15.7751 22.5627 13.8251 21.3627 11.7251C20.6127 10.5251 20.3127 9.17514 20.0127 7.82514C19.8627 7.37514 20.4627 6.32513 20.9127 6.17513C21.3627 6.02513 22.2627 6.47513 22.7127 6.92513C24.9627 10.0751 27.0627 13.2251 29.1627 16.5251C30.3627 18.3251 30.6627 18.4751 31.8627 16.6751C33.9627 13.5251 36.2127 10.3751 38.1627 7.22514C38.9127 6.02514 39.5127 5.57514 40.8627 6.47514C42.5127 7.52514 42.8127 8.27514 41.9127 9.62514C39.3627 13.2251 36.8127 16.8251 34.2627 20.4251C33.2127 21.7751 33.5127 22.9751 34.4127 24.1751C37.1127 27.9251 39.8127 31.6751 42.5127 35.4251C43.4127 36.7751 44.6127 38.5751 45.9627 40.3751ZM29.1627 55.0751C29.6127 54.6251 29.9127 54.3251 30.2127 54.0251C33.5127 49.5251 36.9627 45.0251 40.2627 40.5251C41.1627 39.3251 41.0127 38.2751 40.1127 37.0751C36.9627 33.4751 33.9627 29.7251 31.1127 25.9751C30.2127 24.9251 29.6127 25.0751 28.8627 25.9751C25.5627 30.4751 22.1127 34.8251 18.6627 39.3251C17.9127 40.2251 17.9127 41.1251 18.6627 42.0251C19.8627 43.5251 20.7627 45.0251 21.9627 46.3751C24.2127 49.3751 26.6127 52.0751 29.1627 55.0751Z" fill="#111827"/>
</svg>
