<svg width="60" height="84" viewBox="0 0 60 84" fill="none" xmlns="http://www.w3.org/2000/svg">
<path d="M12 51.7063C13.2 50.3563 14.25 49.3063 15 48.1063C16.95 44.9563 18.9 41.8063 20.7 38.6563C23.7 33.2563 26.7 27.8563 29.7 22.4563C31.05 20.0563 32.4 17.8063 33.6 15.4063C34.2 14.2063 35.1 13.1563 36.6 13.6063C37.65 13.9063 37.95 16.1563 37.2 17.3563C32.55 25.9063 28.05 34.4564 23.4 43.0064C22.65 44.2064 21.9 45.4063 21.15 46.6063C20.25 47.8063 20.55 48.8564 21.75 49.7564C25.8 52.9064 29.85 56.0563 33.75 59.2063C37.2 62.0563 40.65 64.9064 44.1 67.7564C44.85 68.5064 45.75 69.1063 46.5 69.8563C46.8 70.1563 46.8 70.7563 46.8 71.2063C46.35 71.2063 46.05 71.3563 45.6 71.3563C44.55 71.3563 43.35 71.2063 42.3 71.2063C42 71.2063 41.55 70.9063 41.25 70.6063C34.35 64.9063 27.15 59.5064 19.35 55.0064C18 54.2564 16.65 53.8063 15.3 53.2063C14.4 52.9063 13.35 52.3063 12 51.7063Z" fill="#111827"/>
</svg>
