<svg width="60" height="84" viewBox="0 0 60 84" fill="none" xmlns="http://www.w3.org/2000/svg">
<path d="M45 36.8045C45 33.3545 45 29.6045 45 26.0045C44.85 25.8545 44.55 25.7045 44.4 25.5545C39.45 29.3045 34.35 32.7545 30.15 37.7045C24.75 33.8045 19.2 29.7545 13.35 25.4045C13.35 26.9045 13.35 27.9546 13.35 28.8546C13.65 34.7046 14.1 40.4045 14.4 46.2545C14.55 51.2045 14.7 56.0045 14.85 60.9545C14.85 62.3045 14.7 63.0545 13.35 63.2045C10.95 63.5045 9.9 62.9045 9.75 61.2545C9.6 58.2545 9.44998 55.1046 9.44998 52.1046C9.44998 44.6046 9.45 37.1046 9.3 29.6046C9.3 27.3546 9.15 24.9545 9 22.7045C9 22.2545 9 21.8045 9 21.5045C9.45 19.4045 10.35 18.9545 12.15 20.1545C15.6 22.5545 19.05 25.1045 22.5 27.6545C24.45 29.0045 26.25 30.3545 28.2 31.5545C28.8 31.8545 30 31.8545 30.6 31.4045C35.7 27.8045 40.8 24.0545 45.9 20.4545C46.35 20.1545 46.95 20.0045 47.4 19.7045C47.7 20.3045 48.15 20.7546 48.15 21.3546C48.45 25.5546 48.45 29.7545 49.05 33.8045C49.95 39.8045 49.8 45.9545 50.7 51.9545C51.15 55.1045 51.3 58.4045 51.6 61.5545C51.75 62.4545 50.25 63.9546 48.9 64.1046C47.55 64.2546 46.65 63.6545 46.5 62.3045C46.35 60.8045 46.35 59.3045 46.2 57.8045C46.05 54.0545 46.05 50.3045 45.75 46.5545C45.45 44.0045 46.2 41.6045 45.75 39.0545C45.45 38.4545 45.15 37.7045 45 36.8045Z" fill="#111827"/>
</svg>
