<svg width="110" height="110" viewBox="0 0 110 110" fill="none" xmlns="http://www.w3.org/2000/svg">
<path d="M24.0133 96.9947L24.506 96.1407L25.7194 96.5889L30.205 88.8148L29.2106 87.9871L29.7072 87.1263L33.2492 89.1732L32.7526 90.034L31.5392 89.5858L29.5721 92.995L34.2857 95.719L36.2528 92.3098L35.2584 91.4821L35.755 90.6213L39.297 92.6682L38.8004 93.529L37.587 93.0808L33.1014 100.855L34.0958 101.683L33.603 102.537L30.0611 100.49L30.5538 99.6357L31.7672 100.084L33.6795 96.7695L28.9659 94.0456L27.0536 97.3599L28.048 98.1876L27.5552 99.0416L24.0133 96.9947Z" fill="#111827"/>
<path d="M40.8638 104.97L41.0891 104.01L42.3801 104.089L44.4311 95.3493L43.2402 94.8443L43.4673 93.8767L47.449 94.8126L47.2219 95.7802L45.9309 95.7019L43.8799 104.441L45.0708 104.946L44.8455 105.906L40.8638 104.97Z" fill="#111827"/>
<path d="M57.4784 106.994C56.4262 107.038 55.5044 106.834 54.7131 106.382C53.9215 105.925 53.2992 105.272 52.8461 104.424C52.3929 103.576 52.1424 102.584 52.0946 101.448L52.0867 101.26C52.0385 100.113 52.2046 99.1008 52.5851 98.2231C52.9707 97.34 53.5178 96.6406 54.2267 96.1251C54.9356 95.6095 55.7536 95.3322 56.6808 95.2931C57.5664 95.2558 58.3207 95.3259 58.944 95.5033C59.5724 95.6804 60.1126 95.9318 60.5647 96.2575L60.6614 98.5564L59.3956 98.6098L59.1621 96.9668C58.8998 96.8107 58.582 96.6988 58.2087 96.6309C57.8351 96.5579 57.3957 96.532 56.8904 96.5533C56.2393 96.5808 55.6611 96.7931 55.156 97.1904C54.6509 97.5877 54.2615 98.129 53.9876 98.8142C53.7136 99.4942 53.5954 100.283 53.6332 101.179L53.6417 101.382C53.6799 102.29 53.8513 103.076 54.1558 103.742C54.4654 104.403 54.8964 104.909 55.4487 105.262C56.0008 105.61 56.6597 105.767 57.4255 105.735C57.9464 105.713 58.3847 105.65 58.7404 105.547C59.0958 105.438 59.4085 105.304 59.6785 105.147L59.5659 102.472L57.3827 102.486L57.335 101.352L61.0542 101.195L61.2398 105.606C60.9246 105.927 60.465 106.228 59.8611 106.51C59.2624 106.791 58.4681 106.952 57.4784 106.994Z" fill="#111827"/>
<path d="M69.0811 105.288L68.7105 104.375L69.8093 103.692L66.4357 95.3737L65.1722 95.6505L64.7987 94.7295L68.5885 93.19L68.962 94.111L67.8632 94.7939L69.3427 98.4416L74.3861 96.3929L72.9066 92.7452L71.6431 93.0219L71.2696 92.1009L75.0594 90.5614L75.433 91.4824L74.3342 92.1653L77.7078 100.483L78.9713 100.207L79.3419 101.12L75.552 102.66L75.1814 101.746L76.2802 101.063L74.842 97.5169L69.7985 99.5656L71.2368 103.112L72.5003 102.835L72.8709 103.749L69.0811 105.288Z" fill="#111827"/>
<path d="M95.6257 87.5317C95.1951 88.0757 94.701 88.536 94.1434 88.9127C93.5858 89.2894 92.9602 89.5755 92.2666 89.7711L90.3602 88.2597L91.1032 87.321L92.6672 88.2315C93.0411 88.0953 93.396 87.9074 93.732 87.6679C94.068 87.4283 94.3784 87.1286 94.6633 86.7687C94.987 86.3597 95.1993 85.9655 95.3001 85.5861C95.4 85.1994 95.3996 84.8429 95.2987 84.5166C95.1978 84.1903 95.0002 83.9105 94.706 83.6773C94.4322 83.4602 94.1393 83.3345 93.8273 83.3001C93.5152 83.2657 93.1618 83.3383 92.7669 83.5178C92.3712 83.69 91.9085 83.9888 91.3788 84.4143C90.7502 84.9144 90.149 85.2831 89.5753 85.5205C89.0007 85.7506 88.4564 85.8416 87.9424 85.7935C87.4275 85.7381 86.9494 85.5355 86.508 85.1856C86.0422 84.8162 85.7224 84.363 85.5489 83.826C85.3786 83.2849 85.362 82.7093 85.4992 82.0991C85.6363 81.489 85.938 80.8894 86.4042 80.3005C86.8995 79.6747 87.4326 79.1987 88.0035 78.8725C88.5735 78.5389 89.1164 78.3237 89.6321 78.2267L91.416 79.641L90.673 80.5796L89.2377 79.7711C88.9449 79.8385 88.641 79.9704 88.326 80.1666C88.011 80.3629 87.6932 80.6635 87.3727 81.0683C87.1008 81.4119 86.9225 81.7631 86.8379 82.1221C86.7492 82.4778 86.7549 82.8151 86.8549 83.1341C86.955 83.453 87.1521 83.7292 87.4463 83.9624C87.7038 84.1666 87.9803 84.2793 88.276 84.3007C88.5749 84.318 88.9161 84.2357 89.2996 84.0538C89.6822 83.8646 90.1359 83.5687 90.6608 83.1661C91.6384 82.4101 92.5471 81.9722 93.3868 81.8525C94.2257 81.7255 94.9802 81.9276 95.6504 82.459C96.1286 82.8381 96.4516 83.3039 96.6195 83.8564C96.7833 84.4056 96.7833 84.9981 96.6194 85.6336C96.4587 86.2651 96.1275 86.8978 95.6257 87.5317Z" fill="#111827"/>
<path d="M103.853 72.9249C103.455 73.9956 102.887 74.8029 102.15 75.3466C101.415 75.8855 100.573 76.1836 99.622 76.2411C98.6733 76.2937 97.681 76.1268 96.6453 75.7404L96.4915 75.683C95.446 75.293 94.5879 74.7585 93.9172 74.0796C93.2415 73.3988 92.8003 72.6189 92.5936 71.7399C92.3868 70.8609 92.4655 69.9325 92.8297 68.9547C93.0865 68.2653 93.4288 67.6747 93.8569 67.1829C94.2849 66.6911 94.7351 66.3189 95.2075 66.0663L97.5085 66.9247L97.0796 68.0761L95.3368 67.6013C95.1564 67.7122 94.9865 67.8549 94.8269 68.0292C94.6692 68.1987 94.522 68.3999 94.3851 68.6328C94.2501 68.8609 94.1289 69.1191 94.0214 69.4076C93.761 70.1067 93.7214 70.7657 93.9027 71.3846C94.079 72.0017 94.4359 72.5524 94.9732 73.0369C95.5105 73.5213 96.192 73.9175 97.0176 74.2255L97.1862 74.2884C98.0802 74.6219 98.8939 74.7751 99.6273 74.748C100.358 74.7141 100.984 74.505 101.505 74.1204C102.029 73.731 102.427 73.1696 102.7 72.4362C102.828 72.094 102.911 71.7436 102.95 71.385C102.989 71.0265 102.982 70.7151 102.93 70.4507L101.503 69.7345L101.924 68.6051L104.239 69.4689C104.339 69.9628 104.356 70.5148 104.29 71.125C104.219 71.7334 104.074 72.3334 103.853 72.9249Z" fill="#111827"/>
<path d="M106.996 56.9728C106.972 57.7081 106.809 58.3631 106.508 58.9377C106.207 59.5123 105.794 59.997 105.27 60.3919C104.741 60.7813 104.12 61.0737 103.41 61.2692C102.699 61.4594 101.919 61.5402 101.07 61.5117L100.906 61.5062C100.061 61.4779 99.2912 61.3451 98.5949 61.1077C97.8936 60.8649 97.2918 60.5314 96.7896 60.1074C96.2875 59.6781 95.9056 59.1667 95.6438 58.5732C95.3819 57.9797 95.2634 57.3154 95.288 56.5801C95.314 55.8031 95.4776 55.1247 95.7787 54.5448C96.0798 53.965 96.4949 53.4856 97.0241 53.1066C97.5534 52.7223 98.1758 52.4404 98.8912 52.2608C99.6015 52.081 100.379 52.0053 101.223 52.0336L101.387 52.0391C102.236 52.0676 103.009 52.1953 103.706 52.4223C104.403 52.6493 105.002 52.9722 105.505 53.391C106.002 53.8045 106.381 54.3106 106.643 54.9093C106.905 55.508 107.022 56.1958 106.996 56.9728ZM105.715 56.9298C105.74 56.1737 105.573 55.5573 105.213 55.0806C104.854 54.5987 104.342 54.2369 103.677 53.9954C103.007 53.7536 102.226 53.6178 101.335 53.5879L101.155 53.5819C100.269 53.5522 99.4893 53.6382 98.8149 53.8401C98.1353 54.0366 97.6001 54.3632 97.2092 54.8199C96.8131 55.2765 96.6026 55.8776 96.5776 56.6233C96.5548 57.3065 96.7256 57.8917 97.09 58.379C97.4545 58.8663 97.9688 59.2438 98.6327 59.5114C99.2915 59.7789 100.061 59.9274 100.942 59.9569L101.122 59.963C102.007 59.9927 102.793 59.8963 103.479 59.674C104.159 59.4514 104.697 59.1093 105.094 58.6475C105.485 58.1855 105.692 57.613 105.715 56.9298Z" fill="#111827"/>
<path d="M106.1 44.8494L105.155 45.1312L104.581 43.9712L95.9852 46.5364L96.1396 47.8215L95.1953 48.1033L93.745 43.2357C93.5082 42.4406 93.4285 41.7348 93.5059 41.1182C93.5768 40.4982 93.7947 39.9785 94.1595 39.5593C94.5242 39.1401 95.0313 38.8336 95.6808 38.6398C96.3204 38.449 96.8992 38.4287 97.4173 38.579C97.9339 38.7243 98.3806 39.0184 98.7574 39.4613C99.1292 39.9057 99.4268 40.4757 99.6504 41.1713L100.424 43.6029L104.141 42.4937L103.987 41.2085L104.931 40.9267L106.1 44.8494ZM103.952 37.6417L99.2278 41.6976L98.7726 40.2245L102.533 36.9054L102.442 36.1076L103.409 35.8191L103.952 37.6417ZM99.2622 43.9496L98.6611 41.932C98.4153 41.107 98.0791 40.5539 97.6526 40.2728C97.2262 39.9918 96.7106 39.9414 96.1061 40.1218C95.5315 40.2933 95.1305 40.609 94.903 41.0689C94.6755 41.5288 94.6742 42.1362 94.8992 42.8912L95.545 45.0588L99.2622 43.9496Z" fill="#111827"/>
<path d="M100.231 29.137L99.4248 29.7044L98.5123 28.7871L91.1758 33.9523L91.7301 35.1218L90.9178 35.6937L86.0671 28.7932L88.3058 27.2171L89.0167 28.2284L87.8493 29.2609L90.2701 32.7048L93.3019 30.5702L90.8856 27.1328L91.877 26.4348L94.2934 29.8722L97.6642 27.499L95.0993 23.8503L93.7147 24.6147L93.0082 23.6097L95.2405 22.038L100.231 29.137Z" fill="#111827"/>
<path d="M75.9177 12.7457L76.1291 15.3928L78.3613 14.0985L78.9378 15.2229L76.5714 16.4026L78.2984 18.0952L77.3998 18.9846L75.7527 17.1395L74.58 19.5464L73.4649 18.9613L74.7979 16.5854L72.369 16.2831L72.6031 15.0273L75.018 15.5079L74.6617 12.935L75.9177 12.7457Z" fill="#111827"/>
<path d="M14.5595 72.6702L13.2793 74.9964L15.8548 75.1462L15.7173 76.4025L13.0929 76.083L13.603 78.4476L12.3635 78.6947L12.004 76.2468L9.70069 77.6096L9.09187 76.5067L11.5119 75.2582L9.65091 73.6672L10.5373 72.748L12.2885 74.4801L13.407 72.1361L14.5595 72.6702Z" fill="#111827"/>
<path d="M14.7075 50.6937C14.6634 51.3863 14.5196 52.0463 14.276 52.6739C14.0323 53.3014 13.6812 53.8934 13.2227 54.4498L10.7954 54.2952L10.8714 53.1002L12.6751 52.9562C12.9047 52.631 13.0894 52.2742 13.229 51.8857C13.3686 51.4972 13.453 51.0739 13.4821 50.6157C13.5152 50.095 13.4652 49.65 13.3319 49.2807C13.1938 48.906 12.9904 48.6133 12.7216 48.4028C12.4529 48.1922 12.1313 48.075 11.7566 48.0511C11.408 48.0289 11.0957 48.0927 10.8198 48.2424C10.5438 48.3922 10.2947 48.6534 10.0725 49.0262C9.84544 49.3934 9.63543 49.9028 9.44249 50.5545C9.21072 51.324 8.92673 51.9699 8.59052 52.4922C8.24944 53.009 7.85403 53.3942 7.40429 53.6479C6.94968 53.8961 6.44141 54.0023 5.87947 53.9665C5.28632 53.9287 4.76553 53.7387 4.31711 53.3965C3.86903 53.049 3.52758 52.5855 3.29277 52.0059C3.05796 51.4263 2.9644 50.7616 3.01207 50.0117C3.06272 49.215 3.22969 48.5198 3.51297 47.9262C3.79138 47.327 4.11486 46.8404 4.48343 46.4666L6.75459 46.6112L6.67862 47.8062L5.03885 47.9606C4.83664 48.183 4.66201 48.4647 4.51495 48.8056C4.3679 49.1465 4.27798 49.5747 4.24521 50.0902C4.2174 50.5276 4.27095 50.9179 4.40585 51.2611C4.53556 51.604 4.73233 51.8779 4.99618 52.083C5.26003 52.288 5.57926 52.4024 5.95389 52.4263C6.28168 52.4471 6.57315 52.3821 6.82829 52.231C7.08377 52.0747 7.31724 51.8125 7.52872 51.4443C7.73533 51.0706 7.93964 50.5686 8.14166 49.9384C8.51438 48.7596 9.01165 47.8816 9.63346 47.3042C10.2504 46.7214 10.9855 46.4571 11.8388 46.5114C12.4476 46.5502 12.9783 46.7487 13.4309 47.1069C13.8784 47.4647 14.2157 47.9515 14.443 48.5673C14.6706 49.1778 14.7588 49.8866 14.7075 50.6937Z" fill="#111827"/>
<path d="M18.4958 36.1562C18.0028 37.1868 17.3651 37.9399 16.5827 38.4154C15.8026 38.8863 14.9366 39.1077 13.9847 39.0797C13.035 39.047 12.0617 38.7918 11.0648 38.3142L10.9166 38.2432C9.91028 37.7611 9.10346 37.1518 8.49618 36.4155C7.8842 35.6768 7.51457 34.8605 7.3873 33.9666C7.26004 33.0726 7.42152 32.155 7.87177 31.2137C8.18919 30.5502 8.58306 29.9926 9.05336 29.5411C9.52367 29.0896 10.0054 28.7593 10.4985 28.5501L12.7134 29.6113L12.1832 30.7196L10.4899 30.0906C10.3003 30.1848 10.1183 30.3116 9.9438 30.471C9.77155 30.6257 9.60686 30.8129 9.44973 31.0326C9.29484 31.2476 9.15099 31.494 9.01817 31.7716C8.69624 32.4446 8.59784 33.0974 8.72296 33.7301C8.84337 34.3605 9.14949 34.941 9.64131 35.4716C10.1331 36.0023 10.7764 36.458 11.5711 36.8387L11.7334 36.9165C12.5939 37.3288 13.3907 37.5543 14.1236 37.593C14.854 37.6248 15.4962 37.4726 16.0501 37.1364C16.6062 36.7954 17.0532 36.272 17.3909 35.566C17.5484 35.2366 17.6627 34.8951 17.7336 34.5415C17.8045 34.1878 17.8259 33.8771 17.798 33.6092L16.4404 32.7678L16.9604 31.6807L19.1894 32.7486C19.2447 33.2494 19.2121 33.8007 19.0919 34.4026C18.9669 35.0022 18.7682 35.5867 18.4958 36.1562Z" fill="#111827"/>
<path d="M27.1822 24.5959C26.6339 25.086 26.0482 25.4206 25.4252 25.5998C24.8021 25.7789 24.1668 25.8151 23.5193 25.7083C22.8721 25.5941 22.2325 25.3474 21.6003 24.968C20.972 24.5852 20.3748 24.0766 19.8087 23.4423L19.6993 23.3197C19.1367 22.6893 18.7007 22.0401 18.3912 21.3723C18.0822 20.697 17.9075 20.0312 17.8669 19.3749C17.8303 18.715 17.936 18.0854 18.1839 17.486C18.4319 16.8866 18.83 16.3418 19.3783 15.8517C19.9577 15.3339 20.5608 14.9836 21.1878 14.801C21.8147 14.6184 22.4479 14.5876 23.0872 14.7087C23.7305 14.8264 24.3641 15.082 24.9881 15.4757C25.6086 15.8655 26.2001 16.3756 26.7628 17.0061L26.8722 17.1286C27.4383 17.763 27.8799 18.4106 28.1971 19.0715C28.5143 19.7324 28.6951 20.3893 28.7396 21.0422C28.7844 21.6877 28.6809 22.3119 28.429 22.9148C28.1772 23.5177 27.7615 24.0781 27.1822 24.5959ZM26.3278 23.6386C26.8916 23.1347 27.2215 22.5879 27.3176 21.9984C27.4175 21.4054 27.3251 20.7849 27.0404 20.1369C26.7522 19.485 26.3112 18.8264 25.7173 18.1609L25.5975 18.0267C25.007 17.3651 24.406 16.86 23.7942 16.5114C23.1829 16.1553 22.5772 15.9936 21.9772 16.0263C21.3737 16.055 20.7939 16.3179 20.2379 16.8149C19.7285 17.2702 19.4236 17.7981 19.3233 18.3984C19.223 18.9988 19.3054 19.6317 19.5707 20.297C19.8325 20.9585 20.2569 21.6181 20.8438 22.2757L20.9636 22.41C21.554 23.0715 22.1664 23.5736 22.8006 23.9161C23.4314 24.2548 24.0505 24.408 24.6578 24.3758C25.2618 24.3397 25.8184 24.094 26.3278 23.6386Z" fill="#111827"/>
<path d="M35.5771 18.3086L35.2543 17.3769L36.387 16.7519L33.4487 8.27017L32.1726 8.481L31.8498 7.54926L36.6453 5.88542C37.4285 5.61367 38.1296 5.50296 38.7485 5.5533C39.3706 5.59699 39.8989 5.79197 40.3334 6.13824C40.7679 6.4845 41.0962 6.97807 41.3182 7.61895C41.5368 8.24996 41.5824 8.82778 41.4552 9.35238C41.3328 9.87528 41.0588 10.3348 40.6332 10.731C40.2059 11.1222 39.65 11.4449 38.9655 11.699L36.572 12.5791L37.8427 16.2469L39.1188 16.0361L39.4416 16.9678L35.5771 18.3086ZM42.6779 15.8449L38.4215 11.2996L39.8721 10.7797L43.3506 14.3938L44.143 14.268L44.4735 15.2219L42.6779 15.8449ZM36.175 11.4329L38.1626 10.7433C38.9754 10.4613 39.5127 10.1009 39.7746 9.66212C40.0364 9.22335 40.0641 8.70572 39.8574 8.10921C39.661 7.54228 39.3283 7.15519 38.8592 6.94795C38.3901 6.74071 37.7836 6.76613 37.0398 7.02421L34.9044 7.76512L36.175 11.4329Z" fill="#111827"/>
<path d="M50.1868 14.3738L50.2474 13.3896L51.5332 13.2493L52.0852 4.28931L50.8263 3.99209L50.8874 3L59.3019 3.51912L59.1335 6.25322L57.9002 6.17713L57.8238 4.61982L53.6243 4.36074L53.3962 8.06349L57.5879 8.32209L57.5133 9.53291L53.3217 9.27431L53.0681 13.3911L57.5173 13.6656L57.7857 12.106L59.0112 12.1816L58.8433 14.9079L50.1868 14.3738Z" fill="#111827"/>
<path d="M29 81L81 29" stroke="#111827" stroke-width="2"/>
</svg>
